<?xml version="1.0" encoding="utf-8"?>
<!-- Generator: Adobe Illustrator 27.2.0, SVG Export Plug-In . SVG Version: 6.00 Build 0)  -->
<svg version="1.1" id="Слой_1" xmlns="http://www.w3.org/2000/svg" xmlns:xlink="http://www.w3.org/1999/xlink" x="0px" y="0px"
	 viewBox="0 0 8 16" style="enable-background:new 0 0 8 16;" xml:space="preserve">
<style type="text/css">
	.st0{fill:#FFFFFF;}
</style>
<path class="st0" d="M4.94,16c-0.95,0-2.9,0-2.9,0s0-7.33,0-7.48c-0.68,0-1.33,0-1.97,0c0-0.91,0-1.82,0-2.73c0.65,0,1.29,0,1.97,0
	c0-0.17,0-0.27,0-0.38c0-0.65-0.01-1.3,0-1.95c0.03-1.67,0.95-2.87,2.51-3.3C4.76,0.1,4.98,0.05,5.2,0c0.87,0,1.73,0,2.6,0
	c0,0.89,0,1.78,0,2.67c-0.68,0-1.36-0.02-2.04,0c-0.49,0.02-0.78,0.28-0.8,0.76C4.92,4.19,4.95,4.96,4.95,5.77c0.14,0,0.27,0,0.39,0
	C6.16,5.77,6.98,5.78,7.8,5.79c0,0.63,0,2.72,0,2.72s-1.93,0-2.86,0C4.94,11.03,4.94,13.51,4.94,16z"/>
</svg>
