<?xml version="1.0" encoding="utf-8"?>
<!-- Generator: Adobe Illustrator 27.2.0, SVG Export Plug-In . SVG Version: 6.00 Build 0)  -->
<svg version="1.1" id="Слой_1" xmlns="http://www.w3.org/2000/svg" xmlns:xlink="http://www.w3.org/1999/xlink" x="0px" y="0px"
	 viewBox="0 0 16 14" style="enable-background:new 0 0 16 14;" xml:space="preserve">
<style type="text/css">
	.st0{fill-rule:evenodd;clip-rule:evenodd;fill:url(#SVGID_1_);}
</style>
<linearGradient id="SVGID_1_" gradientUnits="userSpaceOnUse" x1="0" y1="6.895" x2="16" y2="6.895" gradientTransform="matrix(1 0 0 -1 0 13.89)">
	<stop  offset="0" style="stop-color:#E6C482"/>
	<stop  offset="1" style="stop-color:#B07638"/>
</linearGradient>
<path class="st0" d="M0.6,1.1c0.3-0.3,0.7-0.4,1.2-0.4h12.6c0.4,0,0.8,0.2,1.1,0.4L8.4,7.1c-0.2,0.2-0.5,0.2-0.7,0L0.6,1.1z M16,2.2
	c0,0.1,0,0.2,0,0.2v9.1c0,0.4-0.2,0.9-0.5,1.2s-0.8,0.5-1.2,0.5H1.7c-0.5,0-0.9-0.2-1.2-0.5C0.2,12.5,0,12,0,11.6V2.4
	c0-0.1,0-0.2,0-0.2L6.9,8c0.6,0.5,1.6,0.5,2.2,0L16,2.2z"/>
</svg>
