<?xml version="1.0" encoding="utf-8"?>
<!-- Generator: Adobe Illustrator 27.2.0, SVG Export Plug-In . SVG Version: 6.00 Build 0)  -->
<svg version="1.1" id="Слой_1" xmlns="http://www.w3.org/2000/svg" xmlns:xlink="http://www.w3.org/1999/xlink" x="0px" y="0px"
	 viewBox="0 0 8 16" style="enable-background:new 0 0 8 16;" xml:space="preserve">
<style type="text/css">
	.st0{fill:url(#SVGID_1_);}
</style>
<linearGradient id="SVGID_1_" gradientUnits="userSpaceOnUse" x1="6.999993e-02" y1="7.89" x2="7.8098" y2="7.89" gradientTransform="matrix(1 0 0 -1 0 15.89)">
	<stop  offset="0" style="stop-color:#E6C482"/>
	<stop  offset="1" style="stop-color:#B07638"/>
</linearGradient>
<path class="st0" d="M4.9,16C4,16,2,16,2,16s0-7.3,0-7.5c-0.7,0-1.3,0-2,0c0-0.9,0-1.8,0-2.7c0.6,0,1.3,0,2,0c0-0.2,0-0.3,0-0.4
	c0-0.7,0-1.3,0-1.9c0-1.7,1-2.9,2.5-3.3C4.8,0.1,5,0,5.2,0c0.9,0,1.7,0,2.6,0c0,0.9,0,1.8,0,2.7c-0.7,0-1.4,0-2,0
	C5.3,2.7,5,2.9,5,3.4c0,0.8,0,1.5,0,2.3c0.1,0,0.3,0,0.4,0c0.8,0,1.6,0,2.5,0c0,0.6,0,2.7,0,2.7s-1.9,0-2.9,0
	C4.9,11,4.9,13.5,4.9,16z"/>
</svg>
