<?xml version="1.0" encoding="utf-8"?>
<!-- Generator: Adobe Illustrator 27.2.0, SVG Export Plug-In . SVG Version: 6.00 Build 0)  -->
<svg version="1.1" id="Слой_1" xmlns="http://www.w3.org/2000/svg" xmlns:xlink="http://www.w3.org/1999/xlink" x="0px" y="0px"
	 viewBox="0 0 16 14" style="enable-background:new 0 0 16 14;" xml:space="preserve">
<style type="text/css">
	.st0{fill:url(#SVGID_1_);}
</style>
<linearGradient id="SVGID_1_" gradientUnits="userSpaceOnUse" x1="6.835618e-03" y1="7" x2="15.9932" y2="7">
	<stop  offset="0" style="stop-color:#E6C482"/>
	<stop  offset="1" style="stop-color:#B07638"/>
</linearGradient>
<path class="st0" d="M6.18,9.48c0-0.33,0.07-0.45,0.27-0.63c1.4-1.24,2.78-2.5,4.17-3.76c0.72-0.65,1.44-1.29,2.15-1.94
	C12.85,3.08,13,2.94,13,2.94s0.16-0.12,0.13-0.26c-0.09-0.2-0.33-0.04-0.33-0.04s-0.72,0.4-1.06,0.61C9.29,4.79,6.85,6.34,4.41,7.89
	C4.23,8,4.09,8.02,3.9,7.96C2.79,7.61,1.68,7.28,0.58,6.93C0.32,6.85,0.01,6.77,0.01,6.45C0,6.13,0.28,5.98,0.54,5.87
	C1.65,5.43,2.77,5,3.89,4.57c2.28-0.88,4.56-1.75,6.84-2.62c1.38-0.53,2.77-1.04,4.14-1.59c0.8-0.32,1.2,0.21,1.11,0.88
	c-0.07,0.53-0.19,1.05-0.3,1.57c-0.68,3.17-1.35,6.34-2.03,9.51c-0.07,0.33-0.13,0.67-0.26,0.98c-0.17,0.43-0.5,0.55-0.93,0.37
	c-0.23-0.1-0.45-0.25-0.65-0.4c-1.03-0.76-2.05-1.52-3.07-2.29c-0.17-0.13-0.28-0.09-0.42,0.04c-0.46,0.45-0.93,0.9-1.4,1.35
	c-0.05,0.05-0.21,0.24-0.44,0.22s-0.24-0.17-0.24-0.3C6.24,11.35,6.18,10.42,6.18,9.48z"/>
</svg>
