<?xml version="1.0" encoding="utf-8"?>
<!-- Generator: Adobe Illustrator 27.2.0, SVG Export Plug-In . SVG Version: 6.00 Build 0)  -->
<svg version="1.1" id="Слой_1" xmlns="http://www.w3.org/2000/svg" xmlns:xlink="http://www.w3.org/1999/xlink" x="0px" y="0px"
	 viewBox="0 0 48 34" style="enable-background:new 0 0 48 34;" xml:space="preserve">
<path d="M47.13,31.66c-0.98,0-1.42-0.35-2.03-0.82c-0.68-0.53-1.52-1.19-3.1-1.19s-2.42,0.66-3.1,1.19
	c-0.61,0.48-1.05,0.82-2.03,0.82s-1.42-0.35-2.03-0.82c-0.68-0.53-1.52-1.19-3.1-1.19c-1.58,0-2.42,0.66-3.1,1.19
	c-0.5,0.39-0.89,0.69-1.55,0.79c-1.19-1.96-2.93-3.63-5.07-4.86c-0.72-0.41-1.47-0.77-2.25-1.06l4.82-12.26l9.29,3.65
	c0.44,0.17,0.95-0.04,1.12-0.49c0,0,0,0,0,0c2.37-6.02-0.6-12.82-6.62-15.19l-0.02-0.01l-0.03-0.01
	c-6.02-2.34-12.79,0.63-15.15,6.64c-0.17,0.44,0.04,0.95,0.49,1.12l9.29,3.65l-4.86,12.36c-1.25-0.33-2.53-0.52-3.81-0.57
	c-5.89-0.21-11.4,2.6-14.04,7.14c-0.24,0.41-0.1,0.94,0.31,1.18c0.13,0.07,0.27,0.12,0.42,0.12l25.6,0.35h0.01
	c1.58,0,2.42-0.66,3.1-1.19c0.61-0.48,1.05-0.82,2.03-0.82c0.98,0,1.42,0.35,2.03,0.82c0.68,0.53,1.52,1.19,3.1,1.19
	c1.58,0,2.42-0.66,3.1-1.19c0.61-0.48,1.05-0.82,2.03-0.82c0.98,0,1.42,0.35,2.03,0.82c0.68,0.53,1.52,1.19,3.1,1.19
	c0.48,0,0.87-0.39,0.87-0.87S47.61,31.66,47.13,31.66L47.13,31.66z M27.74,3.03c0.27,0.1,0.73,0.87,0.6,3.01
	c-0.12,1.85-0.63,4.11-1.48,6.44l-4.91-1.93c0.97-2.29,2.13-4.3,3.3-5.73C26.61,3.17,27.47,2.93,27.74,3.03z M33.24,8.34
	c0.95,2.15,1.09,4.57,0.42,6.82l-5.2-2.04c0.91-2.5,1.48-4.95,1.6-6.97c0.04-0.61,0.03-1.23-0.03-1.84
	C31.44,5.34,32.55,6.73,33.24,8.34L33.24,8.34z M20.1,3.17c1.6-0.7,3.35-0.97,5.09-0.77c-0.46,0.41-0.89,0.85-1.27,1.33
	c-1.28,1.56-2.54,3.74-3.58,6.2l-5.2-2.04C16.18,5.77,17.94,4.1,20.1,3.17z M2.61,31.34c2.55-3.24,6.94-5.17,11.62-5
	c4.38,0.16,8.44,2.19,10.77,5.31L2.61,31.34z"/>
</svg>
