<?xml version="1.0" encoding="utf-8"?>
<!-- Generator: Adobe Illustrator 27.2.0, SVG Export Plug-In . SVG Version: 6.00 Build 0)  -->
<svg version="1.1" id="Слой_1" xmlns="http://www.w3.org/2000/svg" xmlns:xlink="http://www.w3.org/1999/xlink" x="0px" y="0px"
	 viewBox="0 0 49 49" style="enable-background:new 0 0 49 49;" xml:space="preserve">
<path d="M38.6,33.71c0.41,0,0.74-0.33,0.74-0.74v-2.95h4.8c0.41,0,0.74-0.33,0.74-0.74v-3.4c1.48-0.33,2.58-1.66,2.58-3.25
	c0-1.85-1.48-3.32-3.32-3.32c-1.85,0-3.32,1.48-3.32,3.32c0,1.59,1.11,2.92,2.58,3.25v2.66H33.07c-0.41,0-0.74,0.33-0.74,0.74v5.54
	h-7.75c-0.41,0-0.74,0.33-0.74,0.74s0.33,0.74,0.74,0.74h8.49c0.41,0,0.74-0.33,0.74-0.74v-5.54h4.06v2.95
	C37.87,33.38,38.2,33.71,38.6,33.71z M42.29,22.64c0-1.03,0.81-1.85,1.85-1.85c1.03,0,1.85,0.81,1.85,1.85s-0.81,1.85-1.85,1.85
	C43.11,24.48,42.29,23.67,42.29,22.64z"/>
<path d="M36.02,41.46c1.85,0,3.32-1.48,3.32-3.32c0-0.41-0.33-0.74-0.74-0.74s-0.74,0.33-0.74,0.74c0,1.03-0.81,1.85-1.85,1.85
	h-6.64v-1.85c0-0.41-0.33-0.74-0.74-0.74s-0.74,0.33-0.74,0.74v1.85h-4.8c-0.41,0-0.74,0.33-0.74,0.74s0.33,0.74,0.74,0.74h9.23
	v3.32c0,0.41,0.33,0.74,0.74,0.74h7.83c0.33,1.48,1.66,2.58,3.25,2.58c1.85,0,3.32-1.48,3.32-3.32c0-1.85-1.48-3.32-3.32-3.32
	c-1.59,0-2.92,1.11-3.25,2.58H33.8v-2.58H36.02z M44.14,42.94c1.03,0,1.85,0.81,1.85,1.85c0,1.03-0.81,1.85-1.85,1.85
	c-1.03,0-1.85-0.81-1.85-1.85C42.29,43.75,43.11,42.94,44.14,42.94z"/>
<path d="M43.51,12.41L26.16,1.34c-0.96-0.59-2.21-0.59-3.17,0L5.64,12.41c-1.37,0.89-1.77,2.69-0.89,4.06s2.69,1.77,4.06,0.89
	l1-0.63v9.97c0,0.41,0.33,0.74,0.74,0.74s0.74-0.33,0.74-0.74V15.81l13.29-8.49l13.29,8.49V26.7c0,0.41,0.33,0.74,0.74,0.74
	s0.74-0.33,0.74-0.74v-9.97l1,0.63c0.48,0.3,1.03,0.48,1.59,0.48c1,0,1.96-0.52,2.47-1.37C45.28,15.11,44.88,13.26,43.51,12.41z
	 M43.18,15.7c-0.26,0.44-0.74,0.66-1.26,0.66c-0.3,0-0.55-0.07-0.78-0.22L24.98,5.8c-0.11-0.07-0.26-0.11-0.41-0.11
	s-0.26,0.04-0.41,0.11L8.04,16.14c-0.7,0.44-1.59,0.22-2.03-0.44c-0.44-0.7-0.22-1.59,0.44-2.03L23.8,2.59c0.48-0.3,1.11-0.3,1.59,0
	l17.35,11.07C43.4,14.07,43.62,14.99,43.18,15.7L43.18,15.7z"/>
<path d="M22.36,24.85c0,1.22,1,2.21,2.21,2.21s2.21-1,2.21-2.21c0-1.22-1-2.21-2.21-2.21S22.36,23.63,22.36,24.85z M25.31,24.85
	c0,0.41-0.33,0.74-0.74,0.74s-0.74-0.33-0.74-0.74s0.33-0.74,0.74-0.74S25.31,24.44,25.31,24.85z"/>
<path d="M27.97,22.19c0.18,0,0.37-0.07,0.52-0.22c0.3-0.3,0.3-0.74,0-1.03c-2.14-2.14-5.68-2.14-7.83,0c-0.3,0.3-0.3,0.74,0,1.03
	s0.74,0.3,1.03,0c1.59-1.59,4.17-1.59,5.76,0C27.6,22.12,27.79,22.19,27.97,22.19z"/>
<path d="M30.34,19.83c0.18,0,0.37-0.07,0.52-0.22c0.3-0.3,0.3-0.74,0-1.03c-3.47-3.47-9.08-3.47-12.51,0c-0.3,0.3-0.3,0.74,0,1.03
	c0.3,0.3,0.74,0.3,1.03,0c2.88-2.88,7.57-2.88,10.45,0C29.93,19.76,30.11,19.83,30.34,19.83z"/>
<path d="M32.66,17.51c0.18,0,0.37-0.07,0.52-0.22c0.3-0.3,0.3-0.74,0-1.03c-4.76-4.76-12.48-4.76-17.24,0c-0.3,0.3-0.3,0.74,0,1.03
	c0.3,0.3,0.74,0.3,1.03,0c4.17-4.17,10.96-4.17,15.13,0C32.29,17.43,32.48,17.51,32.66,17.51L32.66,17.51z"/>
<path d="M44.88,32.23c-1.59,0-2.92,1.11-3.25,2.58h-5.54c-0.41,0-0.74,0.33-0.74,0.74s0.33,0.74,0.74,0.74h5.54
	c0.33,1.48,1.66,2.58,3.25,2.58c1.85,0,3.32-1.48,3.32-3.32C48.2,33.71,46.72,32.23,44.88,32.23z M44.88,37.4
	c-1.03,0-1.85-0.81-1.85-1.85c0-1.03,0.81-1.85,1.85-1.85c1.03,0,1.85,0.81,1.85,1.85C46.72,36.59,45.91,37.4,44.88,37.4z"/>
<path d="M1.69,22.64c0,1.59,1.11,2.92,2.58,3.25v3.4c0,0.41,0.33,0.74,0.74,0.74h4.8v2.95c0,0.41,0.33,0.74,0.74,0.74
	s0.74-0.33,0.74-0.74v-2.95h4.06v5.54c0,0.41,0.33,0.74,0.74,0.74c0.41,0,0.74-0.33,0.74-0.74v-6.28c0-0.41-0.33-0.74-0.74-0.74
	H5.75v-2.66c1.48-0.33,2.58-1.66,2.58-3.25c0-1.85-1.48-3.32-3.32-3.32S1.69,20.79,1.69,22.64z M5.01,20.79
	c1.03,0,1.85,0.81,1.85,1.85s-0.81,1.85-1.85,1.85s-1.85-0.81-1.85-1.85S3.98,20.79,5.01,20.79z"/>
<path d="M4.27,38.88c1.59,0,2.92-1.11,3.25-2.58h5.54c0.41,0,0.74-0.33,0.74-0.74s-0.33-0.74-0.74-0.74H7.52
	c-0.33-1.48-1.66-2.58-3.25-2.58c-1.85,0-3.32,1.48-3.32,3.32C0.95,37.4,2.43,38.88,4.27,38.88z M4.27,33.71
	c1.03,0,1.85,0.81,1.85,1.85c0,1.03-0.81,1.85-1.85,1.85s-1.85-0.81-1.85-1.85C2.43,34.52,3.24,33.71,4.27,33.71z"/>
<path d="M8.26,44.05c-0.33-1.48-1.66-2.58-3.25-2.58c-1.85,0-3.32,1.48-3.32,3.32c0,1.85,1.48,3.32,3.32,3.32
	c1.59,0,2.92-1.11,3.25-2.58h7.83c0.41,0,0.74-0.33,0.74-0.74v-3.32h3.69c0.41,0,0.74-0.33,0.74-0.74v-9.97
	c0-0.41,0.33-0.74,0.74-0.74h5.17c0.41,0,0.74,0.33,0.74,0.74v2.21c0,0.41,0.33,0.74,0.74,0.74s0.74-0.33,0.74-0.74v-2.21
	c0-1.22-1-2.21-2.21-2.21h-5.17c-1.22,0-2.21,1-2.21,2.21v9.23h-6.64c-1.03,0-1.85-0.81-1.85-1.85c0-0.41-0.33-0.74-0.74-0.74
	s-0.74,0.33-0.74,0.74c0,1.85,1.48,3.32,3.32,3.32h2.21v2.58H8.26z M5.01,46.63c-1.03,0-1.85-0.81-1.85-1.85
	c0-1.03,0.81-1.85,1.85-1.85s1.85,0.81,1.85,1.85C6.86,45.82,6.05,46.63,5.01,46.63z"/>
</svg>
