<?xml version="1.0" encoding="utf-8"?>
<!-- Generator: Adobe Illustrator 27.2.0, SVG Export Plug-In . SVG Version: 6.00 Build 0)  -->
<svg version="1.1" id="Слой_1" xmlns="http://www.w3.org/2000/svg" xmlns:xlink="http://www.w3.org/1999/xlink" x="0px" y="0px"
	 viewBox="0 0 49 49" style="enable-background:new 0 0 49 49;" xml:space="preserve">
<style type="text/css">
	.st0{fill:none;stroke:#000000;stroke-width:1.5;stroke-linecap:round;stroke-linejoin:round;stroke-miterlimit:10;}
</style>
<path d="M30.09,31.98h-3.83l-3.4-3.59c-0.27-0.29-0.73-0.3-1.02-0.03c-0.29,0.27-0.3,0.73-0.03,1.02l2.46,2.59h-3.5
	c-0.4,0-0.72,0.32-0.72,0.72c0,0.4,0.32,0.72,0.72,0.72h17.76v5.31c-0.54-0.39-1.2-0.64-1.91-0.66c-0.29-1.48-1.59-2.6-3.15-2.6
	c-1.17,0-2.21,0.62-2.77,1.61c-0.14-0.03-0.29-0.04-0.43-0.04c-1.38,0-2.5,1.12-2.5,2.5c0,0.38,0.09,0.75,0.27,1.11
	c0.18,0.35,0.61,0.5,0.96,0.33c0.36-0.18,0.5-0.61,0.33-0.96c-0.08-0.16-0.12-0.31-0.12-0.47c0-0.75,0.81-1.32,1.55-0.93
	c0.19,0.1,0.42,0.11,0.62,0.03c0.2-0.08,0.35-0.25,0.41-0.46c0.22-0.76,0.9-1.27,1.68-1.27c0.97,0,1.77,0.79,1.76,1.77
	c0,0.01-0.01,0.1-0.01,0.11c-0.02,0.23,0.07,0.45,0.24,0.6c0.17,0.15,0.4,0.21,0.62,0.16c1.26-0.26,2.45,0.73,2.45,1.99v0.97
	l-12.08-0.03c-0.41-0.2-0.68-0.61-0.68-1.08c0-0.67,0.54-1.21,1.21-1.21c0.4,0,0.72-0.32,0.72-0.72c0-0.4-0.32-0.72-0.72-0.72
	c-1.46,0-2.64,1.19-2.64,2.64c0,0.39,0.09,0.77,0.25,1.11H10.46v-9.08h6.39c0.4,0,0.72-0.32,0.72-0.72c0-0.4-0.32-0.72-0.72-0.72
	h-6.39v-4.31l2.41-3.28l3.07,3.32c0.25,0.28,0.68,0.31,0.97,0.08l1.94-1.52l1.4,1.48c0.27,0.29,0.73,0.3,1.02,0.03
	c0.29-0.27,0.3-0.73,0.03-1.02l-1.85-1.95c-0.25-0.27-0.67-0.3-0.96-0.07l-1.94,1.52l-3.22-3.48c-0.15-0.16-0.35-0.24-0.57-0.23
	c-0.21,0.01-0.41,0.12-0.54,0.29l-1.76,2.4v-7.27h2.38c0.4,0,0.72-0.32,0.72-0.72c0-0.4-0.32-0.72-0.72-0.72h-2.35
	c0.17-3.24,1.45-6.3,3.6-8.68l1.43,1.43c0.14,0.14,0.32,0.21,0.51,0.21c0.18,0,0.37-0.07,0.51-0.21c0.28-0.28,0.28-0.74,0-1.02
	l-1.43-1.43c0.42-0.38,0.86-0.74,1.33-1.07c0.33-0.23,0.4-0.68,0.17-1c-0.23-0.32-0.68-0.4-1-0.17c-3.75,2.64-6.12,6.81-6.51,11.33
	l-5.43-3.79c-0.42-0.3-0.97-0.33-1.43-0.09c-0.46,0.24-0.74,0.71-0.74,1.22v9.47c0,0.4,0.32,0.72,0.72,0.72
	c0.4,0,0.72-0.32,0.72-0.72v-9.36l6.1,4.26v25.15l-6.1,2.98V25.92c0-0.4-0.32-0.72-0.72-0.72c-0.4,0-0.72,0.32-0.72,0.72v19.93
	c0,0.48,0.24,0.92,0.65,1.17c0.22,0.14,0.48,0.21,0.73,0.21c0.21,0,0.41-0.05,0.61-0.14l6.43-3.15h29.18l6.43,3.15
	c0.19,0.09,0.4,0.14,0.61,0.14c0.25,0,0.51-0.07,0.73-0.21c0.41-0.25,0.65-0.69,0.65-1.17V19.78c0-0.4-0.32-0.72-0.72-0.72
	c-0.4,0-0.72,0.32-0.72,0.72v25.98l-6.1-2.98V17.62l6.1-4.26v3.6c0,0.4,0.32,0.72,0.72,0.72l0,0c0.4,0,0.72-0.32,0.72-0.72v-3.71
	c0-0.52-0.28-0.98-0.74-1.22c-0.46-0.24-1.01-0.2-1.43,0.09l-5.43,3.8C39.23,8,32.58,1.77,24.5,1.77c-1.57,0-3.12,0.23-4.61,0.7
	c-0.38,0.12-0.59,0.52-0.47,0.9c0.12,0.38,0.52,0.59,0.9,0.47c1.12-0.35,2.28-0.55,3.46-0.61v12.28l-5.22-5.22
	c-0.28-0.28-0.74-0.28-1.02,0c-0.28,0.28-0.28,0.74,0,1.02l5.22,5.22h-7.08c-0.4,0-0.72,0.32-0.72,0.72c0,0.4,0.32,0.72,0.72,0.72
	h22.86v14.02h-1.63 M35.38,31.98h-3.77 M25.22,3.25c3.33,0.17,6.35,1.5,8.67,3.6l-8.67,8.67V3.25z M34.91,7.86
	c2.1,2.32,3.43,5.34,3.6,8.67H26.24L34.91,7.86z M44.48,30.33h-2.99c-0.4,0-0.72,0.32-0.72,0.72v10.91c0,0.29,0.17,0.55,0.43,0.66
	l2.99,1.3c0.09,0.04,0.19,0.06,0.29,0.06c0.14,0,0.28-0.04,0.39-0.12c0.2-0.13,0.33-0.36,0.33-0.6V31.05
	C45.2,30.65,44.88,30.33,44.48,30.33L44.48,30.33z M43.76,42.16l-1.55-0.68v-9.72h1.55V42.16z M45.2,16.68
	c0-0.26-0.14-0.5-0.37-0.63c-0.23-0.13-0.51-0.12-0.73,0.02l-2.99,1.87c-0.21,0.13-0.34,0.36-0.34,0.61v10.34
	c0,0.4,0.32,0.72,0.72,0.72h2.99c0.4,0,0.72-0.32,0.72-0.72L45.2,16.68L45.2,16.68z M43.76,28.17h-1.55v-9.22l1.55-0.97V28.17z
	 M3.8,43.26c0,0.24,0.12,0.47,0.33,0.6c0.12,0.08,0.26,0.12,0.39,0.12c0.1,0,0.2-0.02,0.29-0.06l2.99-1.3
	c0.26-0.11,0.43-0.37,0.43-0.66V31.05c0-0.4-0.32-0.72-0.72-0.72H4.52c-0.4,0-0.72,0.32-0.72,0.72L3.8,43.26z M5.24,31.77h1.55v9.72
	l-1.55,0.68V31.77z M4.52,29.61h2.99c0.4,0,0.72-0.32,0.72-0.72V18.55c0-0.25-0.13-0.48-0.34-0.61L4.9,16.07
	c-0.22-0.14-0.5-0.14-0.73-0.02c-0.23,0.13-0.37,0.37-0.37,0.63V28.9C3.8,29.29,4.13,29.61,4.52,29.61L4.52,29.61z M5.24,17.98
	l1.55,0.97v9.22H5.24V17.98z"/>
<polyline class="st0" points="38.5,25.83 36.26,27.83 33.23,21.26 28.86,25.51 24.5,19.66 20.51,25.92 "/>
</svg>
