<?xml version="1.0" encoding="utf-8"?>
<!-- Generator: Adobe Illustrator 27.2.0, SVG Export Plug-In . SVG Version: 6.00 Build 0)  -->
<svg version="1.1" id="Слой_1" xmlns="http://www.w3.org/2000/svg" xmlns:xlink="http://www.w3.org/1999/xlink" x="0px" y="0px"
	 viewBox="0 0 48 42" style="enable-background:new 0 0 48 42;" xml:space="preserve">
<g>
	<path d="M41.33,25.93H6.68c-0.38,0-0.69-0.31-0.7-0.69c0-0.04,0-0.09-0.01-0.13c-0.01-0.08-0.01-0.16-0.01-0.24
		C5.97,13.97,14.06,5.1,24,5.1s18.04,8.87,18.04,19.77c0,0.08,0,0.16-0.01,0.24c0,0.04-0.01,0.09-0.01,0.13
		C42.02,25.63,41.71,25.93,41.33,25.93z M7.36,24.54h33.28C40.48,14.56,33.08,6.49,24,6.49S7.53,14.56,7.36,24.54z"/>
	<path d="M43.67,25.93H4.34c-0.38,0-0.7-0.31-0.7-0.7c0-0.38,0.31-0.7,0.7-0.7h39.33c0.38,0,0.7,0.31,0.7,0.7
		C44.37,25.62,44.06,25.93,43.67,25.93z"/>
	<path d="M24.46,6.48c-1.66,0-3.01-1.35-3.01-3.01s1.35-3.01,3.01-3.01c1.66,0,3.01,1.35,3.01,3.01S26.12,6.48,24.46,6.48z
		 M24.46,1.84c-0.89,0-1.62,0.73-1.62,1.62c0,0.89,0.73,1.62,1.62,1.62s1.62-0.73,1.62-1.62C26.08,2.57,25.36,1.84,24.46,1.84z"/>
	<path d="M25.78,35.68c-0.38,0-0.7-0.31-0.7-0.7v-3.3l-11.85-2.02c-1.86-0.32-3.17-2.1-2.91-3.98c0.05-0.38,0.4-0.65,0.79-0.59
		c0.38,0.05,0.65,0.4,0.59,0.79c-0.16,1.14,0.63,2.23,1.76,2.42L25.9,30.4c0.33,0.06,0.58,0.35,0.58,0.69v3.89
		C26.47,35.36,26.16,35.68,25.78,35.68z"/>
	<path d="M35.47,35.68c-0.38,0-0.7-0.31-0.7-0.7v-5.55c0-1.34-0.52-2.46-1.43-3.08c-0.32-0.22-0.4-0.65-0.18-0.97
		s0.65-0.4,0.97-0.18c1.29,0.88,2.04,2.42,2.04,4.23v5.55C36.17,35.36,35.86,35.68,35.47,35.68z"/>
	<path d="M36.87,41.68H24.42c-0.38,0-0.7-0.31-0.7-0.7v-5.79c0-0.38,0.31-0.7,0.7-0.7h12.46c0.38,0,0.7,0.31,0.7,0.7v5.79
		C37.57,41.36,37.26,41.68,36.87,41.68z M25.11,40.28h11.06v-4.4H25.11V40.28z"/>
	<path d="M27.02,39.34c-0.7,0-1.28-0.57-1.28-1.28c0-0.7,0.57-1.28,1.28-1.28s1.28,0.57,1.28,1.28
		C28.3,38.77,27.73,39.34,27.02,39.34z M27.02,37.95c-0.06,0-0.12,0.05-0.12,0.12c0,0.06,0.05,0.12,0.12,0.12s0.12-0.05,0.12-0.12
		C27.14,38,27.09,37.95,27.02,37.95z"/>
	<path d="M37.16,22.26c-0.31,0-0.6-0.21-0.68-0.53c-1.03-4.3-3.14-7.54-6.27-9.62c-2.34-1.56-4.42-1.86-4.44-1.87
		c-0.38-0.05-0.65-0.4-0.6-0.78c0.05-0.38,0.4-0.65,0.78-0.6c0.09,0.01,2.36,0.33,4.96,2.05c2.38,1.57,5.52,4.67,6.92,10.5
		c0.09,0.37-0.14,0.75-0.52,0.84C37.26,22.25,37.21,22.26,37.16,22.26z"/>
</g>
</svg>
