<?xml version="1.0" encoding="utf-8"?>
<!-- Generator: Adobe Illustrator 27.2.0, SVG Export Plug-In . SVG Version: 6.00 Build 0)  -->
<svg version="1.1" id="Слой_1" xmlns="http://www.w3.org/2000/svg" xmlns:xlink="http://www.w3.org/1999/xlink" x="0px" y="0px"
	 viewBox="0 0 48 42" style="enable-background:new 0 0 48 42;" xml:space="preserve">
<path d="M1.33,12.07h9.49v22.34c-1.74,0.66-3.7,0.44-5.25-0.63L1.82,31.2c-0.39-0.27-0.93-0.18-1.2,0.22
	c-0.27,0.39-0.17,0.93,0.22,1.2l3.74,2.59c2.21,1.53,5.07,1.75,7.46,0.57c0,0,0,0,0,0c0,0,0,0,0,0c0.33-0.16,0.67-0.35,0.98-0.57
	c1.92-1.33,4.58-1.32,6.49,0c1.25,0.87,2.72,1.33,4.23,1.33c1.39,0,2.74-0.39,3.9-1.11c0.01-0.01,0.15-0.1,0.16-0.1l0.17-0.11
	c1.91-1.32,4.56-1.33,6.49,0c1.24,0.86,2.73,1.33,4.22,1.33c1.52,0,2.98-0.46,4.23-1.33l3.74-2.59c0.39-0.27,0.49-0.81,0.22-1.2
	c-0.27-0.39-0.81-0.49-1.2-0.22l-3.74,2.59c-1.91,1.32-4.56,1.33-6.49,0c-2.15-1.49-4.92-1.73-7.39-0.59V12.07h18.11
	c0.48,0,0.86-0.39,0.86-0.86s-0.39-0.86-0.86-0.86h-9.49V0.86c0-0.36-0.23-0.69-0.57-0.81c-0.34-0.13-0.72-0.02-0.96,0.26
	L26.8,10.35h-5.63V0.86c0-0.36-0.23-0.69-0.57-0.81c-0.34-0.13-0.72-0.02-0.96,0.26l-8.36,10.04H1.33c-0.48,0-0.86,0.39-0.86,0.86
	S0.85,12.07,1.33,12.07z M26.34,34.16c-0.07,0.03-0.13,0.07-0.2,0.1c-0.09,0.04-0.17,0.08-0.26,0.11c-0.17,0.07-0.34,0.13-0.52,0.18
	c-0.07,0.02-0.14,0.04-0.22,0.06c-0.19,0.05-0.39,0.08-0.59,0.11c-0.06,0.01-0.13,0.02-0.19,0.02c-0.21,0.02-0.41,0.03-0.62,0.03
	c-0.06,0-0.12,0-0.18,0c-0.21-0.01-0.41-0.03-0.62-0.06c-0.06-0.01-0.13-0.01-0.19-0.02c-0.2-0.04-0.4-0.09-0.6-0.14
	c-0.06-0.02-0.13-0.03-0.19-0.05c-0.2-0.06-0.39-0.15-0.58-0.23c-0.06-0.03-0.12-0.04-0.17-0.07c-0.24-0.12-0.48-0.26-0.7-0.41
	c-1.25-0.87-2.72-1.33-4.23-1.33c-1.07,0-2.14,0.26-3.12,0.71c-0.09,0.04-0.19,0.09-0.28,0.14c-0.11,0.06-0.22,0.1-0.33,0.16v-2.43
	h13.8V34.16z M12.54,25.01h13.8v4.31h-13.8V25.01z M26.34,23.28h-13.8v-4.31h13.8V23.28z M34.96,3.24v7.1h-5.92L34.96,3.24z
	 M26.34,17.25h-13.8v-5.17h13.8V17.25z M19.44,3.24v7.1h-5.92L19.44,3.24z M46.88,36.59c0.27,0.39,0.17,0.93-0.22,1.2l-3.74,2.59
	c-2.53,1.75-5.93,1.75-8.46,0c-1.94-1.34-4.55-1.34-6.49,0c-1.26,0.88-2.75,1.31-4.23,1.31s-2.96-0.44-4.23-1.31
	c-1.94-1.34-4.55-1.34-6.49,0c-2.53,1.75-5.93,1.75-8.46,0l-3.74-2.59c-0.39-0.27-0.49-0.81-0.22-1.2c0.27-0.39,0.81-0.5,1.2-0.22
	l3.74,2.59c1.94,1.34,4.55,1.34,6.49,0c2.53-1.75,5.92-1.75,8.46,0c1.94,1.35,4.55,1.35,6.49,0c2.53-1.75,5.92-1.75,8.46,0
	c1.94,1.34,4.55,1.34,6.49,0l3.74-2.59C46.07,36.09,46.61,36.19,46.88,36.59z"/>
</svg>
