<?xml version="1.0" encoding="utf-8"?>
<!-- Generator: Adobe Illustrator 27.2.0, SVG Export Plug-In . SVG Version: 6.00 Build 0)  -->
<svg version="1.1" id="Слой_1" xmlns="http://www.w3.org/2000/svg" xmlns:xlink="http://www.w3.org/1999/xlink" x="0px" y="0px"
	 viewBox="0 0 49 49" style="enable-background:new 0 0 49 49;" xml:space="preserve">
<path d="M36.03,5.16h-0.76c-0.45,0-0.82,0.34-0.82,0.75s0.37,0.75,0.82,0.75h0.76c4.07,0,7.38,3.05,7.38,6.79v21.12
	c0,1.25-1.1,2.26-2.46,2.26h-4.1v-2.26h3.28c0.45,0,0.82-0.34,0.82-0.75V13.46c0-2.5-2.21-4.53-4.92-4.53
	c-0.45,0-0.82,0.34-0.82,0.75c0,0.42,0.37,0.75,0.82,0.75c1.81,0,3.28,1.35,3.28,3.02v19.62h-2.46v-0.75c0-0.42-0.37-0.75-0.82-0.75
	h-2.46v-8.3c0-0.42-0.37-0.75-0.82-0.75H16.35c-0.45,0-0.82,0.34-0.82,0.75v8.3h-2.46c-0.45,0-0.82,0.34-0.82,0.75v0.75H9.8V13.46
	c0-1.66,1.47-3.02,3.28-3.02c0.45,0,0.82-0.34,0.82-0.75c0-0.42-0.37-0.75-0.82-0.75c-2.71,0-4.92,2.03-4.92,4.53v20.37
	c0,0.42,0.37,0.75,0.82,0.75h3.28v2.26h-4.1c-1.36,0-2.46-1.01-2.46-2.26V13.46c0-3.74,3.31-6.79,7.38-6.79h0.76
	c0.45,0,0.82-0.34,0.82-0.75s-0.37-0.75-0.82-0.75h-0.76c-4.97,0-9.02,3.72-9.02,8.3v21.12c0,2.08,1.84,3.77,4.1,3.77h4.1v0.75
	c0,0.42,0.37,0.75,0.82,0.75h2.18c0.78,2.05,1.34,4.19,1.65,6.38l0.27,2.01c0.05,0.38,0.4,0.66,0.81,0.66c0.03,0,0.07,0,0.1-0.01
	c0.45-0.05,0.77-0.43,0.71-0.84l-0.27-2.01c-0.07-0.49-0.16-0.98-0.25-1.47c0.97,0.17,1.94,0.3,2.92,0.38
	c0.04,0.83,0.07,1.66,0.07,2.49v0.69c0,0.42,0.37,0.75,0.82,0.75c0.45,0,0.82-0.34,0.82-0.75v-0.69c0-0.79-0.02-1.58-0.06-2.37
	c0.55,0.02,1.11,0.04,1.7,0.04c0.58,0,1.14-0.02,1.7-0.04c-0.04,0.79-0.06,1.58-0.06,2.37v0.69c0,0.42,0.37,0.75,0.82,0.75
	c0.45,0,0.82-0.34,0.82-0.75v-0.69c0-0.83,0.03-1.66,0.07-2.49c0.98-0.09,1.95-0.22,2.92-0.38c-0.09,0.49-0.18,0.98-0.25,1.47
	l-0.27,2.01c-0.06,0.41,0.26,0.79,0.71,0.84c0.03,0,0.07,0.01,0.1,0.01c0.41,0,0.76-0.28,0.81-0.66l0.27-2
	c0.31-2.2,0.87-4.34,1.65-6.39h2.18c0.45,0,0.82-0.34,0.82-0.75v-0.75h4.1c2.26,0,4.1-1.69,4.1-3.77V13.46
	C45.04,8.89,40.99,5.16,36.03,5.16L36.03,5.16z M17.17,24.03h14.75v7.54H17.17L17.17,24.03z M17.94,43
	c-0.26-1.06-0.58-2.11-0.95-3.13h3.7c0.18,1.19,0.33,2.38,0.42,3.59C20.05,43.35,18.99,43.2,17.94,43z M22.76,43.59
	c-0.09-1.25-0.24-2.49-0.42-3.72h4.42c-0.18,1.23-0.33,2.47-0.42,3.72C25.13,43.65,23.9,43.65,22.76,43.59L22.76,43.59z M31.16,43
	c-1.05,0.2-2.11,0.35-3.17,0.45c0.1-1.2,0.24-2.4,0.42-3.59h3.7C31.74,40.89,31.43,41.94,31.16,43z M35.21,38.36H13.9v-5.28h21.31
	V38.36z M31.51,16.09c3.83-3.53,3.83-9.27,0-12.8c-3.83-3.53-10.08-3.53-13.91,0c-3.83,3.53-3.83,9.27,0,12.8
	C21.43,19.62,27.67,19.62,31.51,16.09z M18.2,4.92l5.19,4.77l-1.2,1.1c-1.68-1.27-3.83-1.85-5.81-1.59
	C16.49,7.67,17.09,6.17,18.2,4.92L18.2,4.92z M29.74,3.85L26.9,6.46c-1.06-1.25-1.51-2.81-1.23-4.23
	C27.13,2.41,28.54,2.95,29.74,3.85L29.74,3.85z M32.66,8.65c-1.53,0.26-3.23-0.15-4.59-1.13l2.83-2.61
	C31.87,6.02,32.46,7.32,32.66,8.65L32.66,8.65z M30.9,14.46l-5.19-4.77L26.9,8.6c1.42,1.07,3.16,1.65,4.87,1.65
	c0.32,0,0.64-0.02,0.95-0.06C32.61,11.71,32.01,13.21,30.9,14.46L30.9,14.46z M19.36,15.53l2.83-2.61c1.06,1.25,1.51,2.81,1.23,4.23
	C21.97,16.97,20.56,16.43,19.36,15.53L19.36,15.53z M23.35,11.86l1.2-1.1l5.19,4.77c-1.36,1.02-2.99,1.58-4.66,1.68
	C25.37,15.38,24.73,13.41,23.35,11.86L23.35,11.86z M25.75,7.52l-1.2,1.1l-5.19-4.77c1.36-1.02,2.99-1.58,4.66-1.68
	C23.73,4,24.37,5.97,25.75,7.52L25.75,7.52z M21.04,11.86l-2.83,2.61c-0.98-1.1-1.56-2.4-1.76-3.74
	C17.98,10.47,19.68,10.88,21.04,11.86L21.04,11.86z"/>
</svg>
