<?xml version="1.0" encoding="utf-8"?>
<!-- Generator: Adobe Illustrator 27.2.0, SVG Export Plug-In . SVG Version: 6.00 Build 0)  -->
<svg version="1.1" id="Слой_1" xmlns="http://www.w3.org/2000/svg" xmlns:xlink="http://www.w3.org/1999/xlink" x="0px" y="0px"
	 viewBox="0 0 43 43" style="enable-background:new 0 0 43 43;" xml:space="preserve">
<style type="text/css">
	.st0{fill:none;}
	.st1{fill-rule:evenodd;clip-rule:evenodd;}
</style>
<g transform="matrix(1,0,0,1,-562.5,-337.5)">
	<g transform="matrix(1,0,0,1,562.5,337.5)">
		<rect x="-1.79" y="-1.7" class="st0" width="46.4" height="46.4"/>
		<g transform="matrix(1,0,0,1,-562.62,-337)">
			<path class="st1" d="M577.39,351.38c-0.51-0.22-1.04-0.41-1.58-0.57c-4.31-1.23-8.88-0.01-12.71,2.99
				c-0.32,0.25-0.44,0.67-0.3,1.05c1.68,4.56,4.93,8.01,9.24,9.23c0.37,0.1,0.74,0.19,1.11,0.26c-0.24,0.29-0.47,0.6-0.69,0.91
				c-2.53,3.7-2.83,8.42-1.21,13c0.13,0.38,0.5,0.63,0.9,0.62c4.86-0.14,9.16-2.13,11.69-5.82c0.22-0.32,0.42-0.64,0.6-0.97
				c0.2,0.32,0.42,0.64,0.65,0.95c2.7,3.58,7.08,5.36,11.95,5.28c0.4-0.01,0.76-0.27,0.87-0.66c1.41-4.66,0.89-9.36-1.81-12.93
				c-0.23-0.31-0.48-0.6-0.73-0.88c0.37-0.09,0.74-0.19,1.1-0.31c4.25-1.42,7.33-5.01,8.8-9.65c0.12-0.38-0.02-0.8-0.35-1.04
				c-3.97-2.82-8.59-3.82-12.84-2.4c-0.36,0.12-0.72,0.26-1.07,0.41c0.04-0.38,0.05-0.76,0.05-1.14c0-4.48-2.42-8.54-6.35-11.41
				c-0.33-0.24-0.77-0.24-1.09,0c-3.93,2.87-6.35,6.93-6.35,11.41C577.28,350.27,577.32,350.83,577.39,351.38z M583.68,361.87
				c-2.55,1.71-5.36,2.67-8.18,2.68c-0.56,0.52-1.07,1.11-1.51,1.75c-2.09,3.05-2.37,6.89-1.2,10.68c3.96-0.28,7.44-1.94,9.53-4.98
				c0.49-0.72,0.88-1.48,1.18-2.27c0.02-0.07,0.04-0.14,0.08-0.21C584.4,367.17,584.4,364.52,583.68,361.87z M585.45,361.32
				c0.82,2.96,0.83,5.93-0.06,8.6c0.32,0.7,0.71,1.36,1.18,1.99c2.22,2.95,5.78,4.44,9.75,4.54c0.99-3.84,0.53-7.67-1.7-10.62
				C592.51,363.03,589.19,361.54,585.45,361.32z M577.96,353.77c-0.82-0.51-1.71-0.9-2.66-1.17c-3.55-1.01-7.29-0.06-10.51,2.25
				c1.52,3.66,4.2,6.44,7.75,7.45c3.4,0.97,6.97,0.14,10.09-1.96C580.44,358.5,578.82,356.25,577.96,353.77z M593.63,362.25
				c0.76-0.08,1.52-0.24,2.26-0.49c3.5-1.17,6.05-4.07,7.4-7.8c-3.32-2.16-7.1-2.94-10.6-1.76c-3.33,1.12-5.8,3.8-7.2,7.27
				C588.55,359.63,591.37,360.56,593.63,362.25z M588.97,352c0.17-0.75,0.25-1.52,0.25-2.3c0-3.69-1.94-7.03-5.04-9.49
				c-3.11,2.46-5.04,5.8-5.04,9.49c0,3.51,1.75,6.71,4.6,9.13C584.87,355.98,586.65,353.61,588.97,352z"/>
		</g>
	</g>
</g>
</svg>
