<?xml version="1.0" encoding="utf-8"?>
<!-- Generator: Adobe Illustrator 27.2.0, SVG Export Plug-In . SVG Version: 6.00 Build 0)  -->
<svg version="1.1" id="Слой_1" xmlns="http://www.w3.org/2000/svg" xmlns:xlink="http://www.w3.org/1999/xlink" x="0px" y="0px"
	 viewBox="0 0 49 49" style="enable-background:new 0 0 49 49;" xml:space="preserve">
<g>
	<path d="M45.03,29.76h-3.3c-0.63-1.23-1.8-2.09-3.15-2.31V26.2h-1.43v1.25c-1.35,0.23-2.52,1.09-3.15,2.31h-3.68v-1.01
		c0-3.27-2.66-5.94-5.94-5.94s-5.94,2.66-5.94,5.94v1.01h-3.86v-2.38H6.93v2.38H2.87v17.81H0V49h48.04v-1.43h-3.01V29.76z
		 M37.86,28.82c0.83,0,1.6,0.35,2.14,0.94h-4.28C36.27,29.18,37.04,28.82,37.86,28.82z M19.87,28.75c0-2.48,2.02-4.5,4.5-4.5
		c2.48,0,4.5,2.02,4.5,4.5v1.01h-9.01V28.75z M8.36,28.82h4.78v0.94H8.36V28.82z M4.3,31.19h39.29v16.37H4.3V31.19z"/>
	<path d="M20.6,18.46c0,2.08,1.69,3.78,3.78,3.78c2.08,0,3.78-1.69,3.78-3.78s-1.69-3.78-3.78-3.78
		C22.3,14.68,20.6,16.38,20.6,18.46z M26.72,18.46c0,1.29-1.05,2.34-2.34,2.34c-1.29,0-2.34-1.05-2.34-2.34
		c0-1.29,1.05-2.34,2.34-2.34C25.67,16.12,26.72,17.17,26.72,18.46z"/>
	<path d="M6.93,33.51v11.78h33.36V33.51H6.93z M38.86,43.86H8.36v-8.91h30.5V43.86z"/>
	<path d="M6.17,13.34c3.22,0,5.83-2.62,5.83-5.83S9.38,1.68,6.17,1.68S0.33,4.3,0.33,7.51S2.95,13.34,6.17,13.34z M6.17,3.11
		c2.43,0,4.4,1.97,4.4,4.4s-1.97,4.4-4.4,4.4s-4.4-1.97-4.4-4.4S3.74,3.11,6.17,3.11z"/>
	<polygon points="8.79,7.23 6.88,7.23 6.88,4.98 5.45,4.98 5.45,8.66 8.79,8.66 	"/>
	<path d="M24.38,13.34c3.22,0,5.83-2.62,5.83-5.83s-2.62-5.83-5.83-5.83s-5.83,2.62-5.83,5.83S21.16,13.34,24.38,13.34z M24.38,3.11
		c2.42,0,4.4,1.97,4.4,4.4s-1.97,4.4-4.4,4.4s-4.4-1.97-4.4-4.4S21.95,3.11,24.38,3.11z"/>
	<polygon points="27.01,7.23 25.09,7.23 25.09,4.98 23.66,4.98 23.66,8.66 27.01,8.66 	"/>
	<path d="M42.37,13.34c3.22,0,5.83-2.62,5.83-5.83s-2.62-5.83-5.83-5.83c-3.21,0-5.83,2.62-5.83,5.83S39.15,13.34,42.37,13.34z
		 M42.37,3.11c2.43,0,4.4,1.97,4.4,4.4s-1.97,4.4-4.4,4.4c-2.43,0-4.4-1.97-4.4-4.4S39.94,3.11,42.37,3.11z"/>
	<polygon points="45,7.23 43.08,7.23 43.08,4.98 41.65,4.98 41.65,8.66 45,8.66 	"/>
</g>
</svg>
