<?xml version="1.0" encoding="utf-8"?>
<!-- Generator: Adobe Illustrator 27.2.0, SVG Export Plug-In . SVG Version: 6.00 Build 0)  -->
<svg version="1.1" id="Слой_1" xmlns="http://www.w3.org/2000/svg" xmlns:xlink="http://www.w3.org/1999/xlink" x="0px" y="0px"
	 viewBox="0 0 49 49" style="enable-background:new 0 0 49 49;" xml:space="preserve">
<style type="text/css">
	.st0{fill:#FFFFFF;}
</style>
<path d="M39.74,31.98H20.78c-0.4,0-0.72,0.32-0.72,0.72c0,0.4,0.32,0.72,0.72,0.72h17.76c0,0,0,9.08,0,9.08"/>
<path d="M10.46,42.5c0,0,0-24.54,0-24.54h2.38c0.4,0,0.72-0.32,0.72-0.72c0-0.4-0.32-0.72-0.72-0.72h-2.35
	c0.17-3.24,1.45-6.3,3.6-8.68l1.43,1.43c0.14,0.14,0.32,0.21,0.51,0.21c0.18,0,0.37-0.07,0.51-0.21c0.28-0.28,0.28-0.74,0-1.02
	l-1.43-1.43c0.42-0.38,0.86-0.74,1.33-1.07c0.33-0.23,0.4-0.68,0.17-1c-0.23-0.32-0.68-0.4-1-0.17c-3.75,2.64-6.12,6.81-6.51,11.33
	l-5.43-3.79c-0.42-0.3-0.97-0.33-1.43-0.09c-0.46,0.24-0.74,0.71-0.74,1.22v9.47c0,0.4,0.32,0.72,0.72,0.72
	c0.4,0,0.72-0.32,0.72-0.72v-9.36l6.1,4.26v25.15l-6.1,2.98V25.92c0-0.4-0.32-0.72-0.72-0.72c-0.4,0-0.72,0.32-0.72,0.72v19.93
	c0,0.48,0.24,0.92,0.65,1.17c0.22,0.14,0.48,0.21,0.73,0.21c0.21,0,0.41-0.05,0.61-0.14l6.43-3.15h29.18l6.43,3.15
	c0.19,0.09,0.4,0.14,0.61,0.14c0.25,0,0.51-0.07,0.73-0.21c0.41-0.25,0.65-0.69,0.65-1.17V19.78c0-0.4-0.32-0.72-0.72-0.72
	c-0.4,0-0.72,0.32-0.72,0.72v25.98l-6.1-2.98V17.62l6.1-4.26v3.6c0,0.4,0.32,0.72,0.72,0.72l0,0c0.4,0,0.72-0.32,0.72-0.72v-3.71
	c0-0.52-0.28-0.98-0.74-1.22c-0.46-0.24-1.01-0.2-1.43,0.09l-5.43,3.8C39.23,8,32.58,1.77,24.5,1.77c-1.57,0-3.12,0.23-4.61,0.7
	c-0.38,0.12-0.59,0.52-0.47,0.9c0.12,0.38,0.52,0.59,0.9,0.47c1.12-0.35,2.28-0.55,3.46-0.61v12.28l-5.22-5.22
	c-0.28-0.28-0.74-0.28-1.02,0c-0.28,0.28-0.28,0.74,0,1.02l5.22,5.22h-7.08c-0.4,0-0.72,0.32-0.72,0.72c0,0.4,0.32,0.72,0.72,0.72
	h22.86v14.02h-1.63c0.08-0.3,0.13-0.62,0.13-0.94c0-1.95-1.59-3.54-3.54-3.54c-0.33,0-0.65,0.05-0.96,0.13
	c-0.38,0.11-0.61,0.51-0.5,0.89c0.11,0.38,0.51,0.61,0.89,0.5c0.19-0.05,0.38-0.08,0.58-0.08c1.16,0,2.1,0.94,2.1,2.1
	c0,0.33-0.08,0.65-0.22,0.94h-3.77c-0.15-0.29-0.22-0.61-0.22-0.94c0-0.34,0.08-0.67,0.24-0.97c0.18-0.35,0.05-0.79-0.31-0.97
	c-0.35-0.18-0.79-0.05-0.97,0.31c-0.26,0.5-0.45,1.78-0.4,2.67c0,0,8.34-0.02,8.58-0.1c0,0,0,10.38,0,10.38"/>
<path d="M10.46,27.67l0,14.83v-9.08h6.39c0.4,0,0.72-0.32,0.72-0.72c0-0.4-0.32-0.72-0.72-0.72h-6.39V27.67"/>
<path class="st0" d="M25.22,3.25c3.33,0.17,6.35,1.5,8.67,3.6l-8.67,8.67V3.25z"/>
<path class="st0" d="M34.91,7.86c2.1,2.32,3.43,5.34,3.6,8.67H26.24L34.91,7.86z"/>
<path d="M44.48,30.33h-2.99c-0.4,0-0.72,0.32-0.72,0.72v10.91c0,0.29,0.17,0.55,0.43,0.66l2.99,1.3c0.09,0.04,0.19,0.06,0.29,0.06
	c0.14,0,0.28-0.04,0.39-0.12c0.2-0.13,0.33-0.36,0.33-0.6V31.05C45.2,30.65,44.88,30.33,44.48,30.33L44.48,30.33z"/>
<polygon class="st0" points="43.76,42.16 42.21,41.49 42.21,31.77 43.76,31.77 "/>
<path d="M45.2,16.68c0-0.26-0.14-0.5-0.37-0.63c-0.23-0.13-0.51-0.12-0.73,0.02l-2.99,1.87c-0.21,0.13-0.34,0.36-0.34,0.61v10.34
	c0,0.4,0.32,0.72,0.72,0.72h2.99c0.4,0,0.72-0.32,0.72-0.72L45.2,16.68L45.2,16.68z"/>
<polygon class="st0" points="43.76,28.17 42.21,28.17 42.21,18.95 43.76,17.98 "/>
<path d="M3.8,43.26c0,0.24,0.12,0.47,0.33,0.6c0.12,0.08,0.26,0.12,0.39,0.12c0.1,0,0.2-0.02,0.29-0.06l2.99-1.3
	c0.26-0.11,0.43-0.37,0.43-0.66V31.05c0-0.4-0.32-0.72-0.72-0.72H4.52c-0.4,0-0.72,0.32-0.72,0.72L3.8,43.26z"/>
<polygon class="st0" points="5.24,31.77 6.79,31.77 6.79,41.49 5.24,42.16 "/>
<path d="M4.52,29.61h2.99c0.4,0,0.72-0.32,0.72-0.72V18.55c0-0.25-0.13-0.48-0.34-0.61L4.9,16.07c-0.22-0.14-0.5-0.14-0.73-0.02
	c-0.23,0.13-0.37,0.37-0.37,0.63V28.9C3.8,29.29,4.13,29.61,4.52,29.61L4.52,29.61z"/>
<polygon class="st0" points="5.24,17.98 6.79,18.95 6.79,28.17 5.24,28.17 "/>
<path d="M14.02,24.19c-0.1,1.66,0.75,1.92,2.65,2.01c1.9,0.09,4.85,0.01,4.85,0.01l0,0c0.09,1.04,0.95,1.86,2.02,1.86h2.23
	c1.12,0,2.03-0.91,2.03-2.03c0-1.12-0.91-2.03-2.03-2.03h-2.04c-0.07-1.08-0.96-1.95-2.06-1.95h-0.15
	c-0.26-0.57-0.82-0.97-1.48-0.99c-0.31-0.74-1.04-1.25-1.89-1.25c-0.98,0-1.8,0.7-2,1.62c-1.19,0.14-2.13,1.46-2.13,2.68"/>
<path class="st0" d="M26.35,26.04c0,0.33-0.27,0.59-0.59,0.59h-2.23c-0.33,0-0.59-0.27-0.59-0.59c0-0.33,0.27-0.59,0.59-0.59h2.23
	C26.09,25.44,26.35,25.71,26.35,26.04z"/>
<path class="st0" d="M15.46,23.81c0-0.53,0.43-0.95,0.95-0.95c0.07,0,0.16,0.01,0.26,0.04c0.25,0.07,0.52,0,0.7-0.18
	c0.18-0.18,0.26-0.45,0.19-0.7c-0.02-0.07-0.03-0.12-0.03-0.16c0-0.34,0.27-0.61,0.61-0.61s0.61,0.27,0.61,0.54
	c0,0.02-0.01,0.06-0.01,0.08c-0.02,0.27,0.11,0.52,0.34,0.66c0.23,0.14,0.51,0.14,0.74,0.01c0.18-0.11,0.38,0.03,0.39,0.2v0.03
	c0,0.4,0.32,0.72,0.72,0.72h0.72c0.35,0,0.64,0.29,0.64,0.64c0,0.35-0.28,0.64-0.64,0.64h-5.25C15.88,24.77,15.46,24.34,15.46,23.81
	L15.46,23.81z"/>
<path d="M14.66,36.04h-2.66c-0.4,0-0.72-0.32-0.72-0.72s0.32-0.72,0.72-0.72h2.66c0.4,0,0.72,0.32,0.72,0.72
	S15.06,36.04,14.66,36.04z"/>
<path d="M24.88,36.04h-4.09c-0.4,0-0.72-0.32-0.72-0.72s0.32-0.72,0.72-0.72h4.09c0.4,0,0.72,0.32,0.72,0.72
	S25.27,36.04,24.88,36.04z"/>
<path d="M17.2,36.04c-0.4,0-0.72-0.32-0.72-0.72s0.32-0.72,0.72-0.72h1.09c0.4,0,0.72,0.32,0.72,0.72s-0.32,0.72-0.72,0.72H17.2z"/>
<path d="M11.28,40.79c0-0.4,0.32-0.72,0.72-0.72h3.69c0.4,0,0.72,0.32,0.72,0.72c0,0.4-0.32,0.72-0.72,0.72h-3.69
	C11.6,41.51,11.28,41.19,11.28,40.79z"/>
<path d="M20.32,40.79c0,0.4-0.32,0.72-0.72,0.72h-0.75c-0.4,0-0.72-0.32-0.72-0.72c0-0.4,0.32-0.72,0.72-0.72h0.75
	C20,40.07,20.32,40.39,20.32,40.79z"/>
<path d="M20.48,38.05c0,0.4-0.32,0.72-0.72,0.72h-2.54c-0.4,0-0.72-0.32-0.72-0.72c0-0.4,0.32-0.72,0.72-0.72h2.54
	C20.16,37.33,20.48,37.66,20.48,38.05z"/>
<path d="M32.28,38.4h-4.09c-0.4,0-0.72-0.32-0.72-0.72c0-0.4,0.32-0.72,0.72-0.72h4.09c0.4,0,0.72,0.32,0.72,0.72
	C33,38.08,32.68,38.4,32.28,38.4z"/>
<path d="M27.89,40.42c0,0.4-0.32,0.72-0.72,0.72h-2.54c-0.4,0-0.72-0.32-0.72-0.72c0-0.4,0.32-0.72,0.72-0.72h2.54
	C27.57,39.7,27.89,40.02,27.89,40.42z"/>
<path d="M35.32,36.04h-4.09c-0.4,0-0.72-0.32-0.72-0.72s0.32-0.72,0.72-0.72h4.09c0.4,0,0.72,0.32,0.72,0.72
	S35.72,36.04,35.32,36.04z"/>
<path d="M36.04,40.07c0,0.4-0.32,0.72-0.72,0.72h-2.54c-0.4,0-0.72-0.32-0.72-0.72c0-0.4,0.32-0.72,0.72-0.72h2.54
	C35.72,39.35,36.04,39.67,36.04,40.07z"/>
<path d="M13.84,37.33c0.4,0,0.72,0.32,0.72,0.72c0,0.4-0.32,0.72-0.72,0.72h-1c-0.4,0-0.72-0.32-0.72-0.72
	c0-0.4,0.32-0.72,0.72-0.72H13.84z"/>
<path d="M23.19,37.33c0.4,0,0.72,0.32,0.72,0.72c0,0.4-0.32,0.72-0.72,0.72h-0.83c-0.4,0-0.72-0.32-0.72-0.72
	c0-0.4,0.32-0.72,0.72-0.72H23.19z"/>
</svg>
