<?xml version="1.0" encoding="utf-8"?>
<!-- Generator: Adobe Illustrator 27.2.0, SVG Export Plug-In . SVG Version: 6.00 Build 0)  -->
<svg version="1.1" id="Слой_1" xmlns="http://www.w3.org/2000/svg" xmlns:xlink="http://www.w3.org/1999/xlink" x="0px" y="0px"
	 viewBox="0 0 49 49" style="enable-background:new 0 0 49 49;" xml:space="preserve">
<path d="M14.75,9.17V8.98c0-0.83,0.34-1.59,0.89-2.14c0.55-0.55,1.3-0.89,2.14-0.89h0.58c0.24,0,0.45-0.07,0.61-0.19
	c0.17-0.13,0.3-0.31,0.36-0.53c0.38-1.29,1.17-2.41,2.22-3.2c1.03-0.77,2.31-1.23,3.69-1.23c1.38,0,2.65,0.46,3.69,1.23
	c1.05,0.79,1.84,1.9,2.22,3.2c0.07,0.22,0.19,0.41,0.36,0.53c0.17,0.12,0.38,0.19,0.61,0.19h0.58c0.83,0,1.59,0.34,2.14,0.89
	c0.55,0.55,0.89,1.31,0.89,2.14v0.18h3.66c0.98,0,1.89,0.23,2.7,0.67c0.81,0.44,1.49,1.08,1.99,1.9l4.77,7.79
	c0.14,0.21,0.21,0.48,0.15,0.75c-0.33,1.68-1.18,3.12-2.36,4.15c-0.94,0.82-2.08,1.38-3.32,1.58v14.66h0.31
	c1.11,0,2.11,0.45,2.84,1.18c0.73,0.73,1.18,1.73,1.18,2.84v1.13h0.26c0.55,0,1,0.45,1,1c0,0.55-0.45,1-1,1H19.06
	c-0.55,0-1-0.45-1-1c0-0.55,0.45-1,1-1h26.57V44.7c0-0.55-0.23-1.06-0.59-1.42c-0.36-0.37-0.87-0.59-1.42-0.59H6.84
	c-0.55,0-1.06,0.23-1.42,0.59c-0.37,0.37-0.59,0.87-0.59,1.43v1.13h5.61c0.55,0,1,0.45,1,1c0,0.55-0.45,1-1,1l-7.88,0
	c-0.55,0-1-0.45-1-1c0-0.55,0.45-1,1-1h0.26V44.7c0-1.11,0.45-2.12,1.18-2.85c0.73-0.73,1.74-1.18,2.85-1.18h0.31V26.01
	c-1.24-0.2-2.38-0.75-3.32-1.58c-1.17-1.03-2.03-2.47-2.36-4.15c-0.11-0.54,0.25-1.07,0.79-1.18s1.07,0.25,1.18,0.79
	c0.24,1.23,0.86,2.29,1.7,3.03c0.83,0.73,1.88,1.15,3,1.15c1.12,0,2.17-0.43,3-1.15c0.82-0.72,1.43-1.74,1.68-2.93v-2.22
	c0-0.56,0.45-1.01,1.01-1.01c0.56,0,1.01,0.45,1.01,1.01v2.22c0.25,1.19,0.86,2.21,1.68,2.93c0.83,0.73,1.88,1.15,3,1.15
	c1.12,0,2.17-0.43,3-1.15c0.82-0.72,1.43-1.74,1.68-2.93v-2.22c0-0.56,0.45-1.01,1.01-1.01c0.56,0,1.01,0.45,1.01,1.01v2.22
	c0.25,1.19,0.86,2.21,1.68,2.93c0.83,0.73,1.88,1.15,3,1.15c1.12,0,2.17-0.43,3-1.15c0.82-0.72,1.43-1.74,1.68-2.93v-2.22
	c0-0.56,0.45-1.01,1.01-1.01c0.56,0,1.01,0.45,1.01,1.01v2.22c0.25,1.19,0.86,2.21,1.69,2.93c0.83,0.73,1.88,1.15,3,1.15
	c1.12,0,2.17-0.43,3-1.15c0.76-0.67,1.34-1.59,1.62-2.66l-4.58-7.48c-0.31-0.51-0.74-0.91-1.23-1.18c-0.5-0.27-1.09-0.42-1.74-0.42
	H11.09c-0.64,0-1.23,0.15-1.74,0.42c-0.5,0.27-0.92,0.67-1.23,1.18l-0.85,1.38c-0.29,0.47-0.91,0.62-1.38,0.33
	c-0.47-0.29-0.62-0.91-0.33-1.38l0.85-1.38c0.5-0.81,1.18-1.46,1.99-1.9c0.8-0.44,1.72-0.67,2.7-0.67L14.75,9.17L14.75,9.17z
	 M34.62,27h4.21c0.56,0,1.01,0.45,1.01,1.01v4.21c0,0.56-0.45,1.01-1.01,1.01h-4.21c-0.56,0-1.01-0.45-1.01-1.01v-4.21
	C33.62,27.45,34.07,27,34.62,27z M37.83,29.02h-2.19v2.19h2.19V29.02z M11.62,27h4.21c0.56,0,1.01,0.45,1.01,1.01v4.21
	c0,0.56-0.45,1.01-1.01,1.01h-4.21c-0.56,0-1.01-0.45-1.01-1.01v-4.21C10.62,27.45,11.07,27,11.62,27z M14.83,29.02h-2.19v2.19h2.19
	V29.02z M24.22,40.67v-8.93h-1.65c-0.83,0-1.59,0.34-2.13,0.89c-0.55,0.55-0.89,1.3-0.89,2.13v5.91L24.22,40.67z M26.24,31.74v8.93
	h4.67v-5.91c0-0.83-0.34-1.59-0.89-2.13c-0.55-0.55-1.3-0.89-2.13-0.89H26.24z M41.3,26.01c-1.24-0.2-2.38-0.75-3.32-1.58
	c-0.53-0.46-0.99-1.01-1.37-1.62c-0.38,0.61-0.84,1.16-1.37,1.62c-1.19,1.04-2.7,1.66-4.32,1.66c-1.62,0-3.13-0.61-4.32-1.66
	c-0.53-0.46-0.99-1.01-1.37-1.62c-0.38,0.61-0.84,1.16-1.37,1.62c-1.19,1.04-2.7,1.66-4.32,1.66s-3.13-0.61-4.32-1.66
	c-0.53-0.46-0.99-1.01-1.37-1.62c-0.38,0.61-0.84,1.16-1.37,1.62c-0.94,0.82-2.08,1.38-3.32,1.58v14.66h8.37v-5.91
	c0-1.38,0.57-2.64,1.48-3.55c0.92-0.92,2.17-1.48,3.56-1.48h5.32c1.38,0,2.64,0.57,3.55,1.48c0.92,0.92,1.48,2.17,1.48,3.56v5.91
	h8.37L41.3,26.01L41.3,26.01z M14.24,47.84c-0.56,0-1.01-0.45-1.01-1.01s0.45-1.01,1.01-1.01h0.1c0.56,0,1.01,0.45,1.01,1.01
	s-0.45,1.01-1.01,1.01H14.24z M33.7,9.17V8.98c0-0.28-0.11-0.53-0.29-0.71c-0.19-0.18-0.44-0.3-0.72-0.3h-0.58
	c-0.68,0-1.31-0.22-1.82-0.6c-0.51-0.39-0.89-0.93-1.09-1.58c-0.25-0.87-0.79-1.63-1.5-2.16c-0.69-0.52-1.55-0.82-2.48-0.82
	c-0.93,0-1.8,0.3-2.48,0.82c-0.71,0.53-1.24,1.28-1.5,2.15c-0.19,0.65-0.58,1.2-1.09,1.58c-0.51,0.38-1.14,0.6-1.82,0.6h-0.58
	c-0.28,0-0.53,0.11-0.71,0.3c-0.18,0.18-0.3,0.44-0.3,0.71v0.18L33.7,9.17L33.7,9.17z M3.87,15.87c0.29-0.47,0.91-0.62,1.38-0.33
	c0.47,0.29,0.62,0.91,0.33,1.38l-0.14,0.23c-0.29,0.47-0.91,0.62-1.38,0.33c-0.47-0.29-0.62-0.91-0.33-1.38L3.87,15.87z"/>
</svg>
