<svg width="40" height="40" viewBox="0 0 40 40" fill="none" xmlns="http://www.w3.org/2000/svg">
<g clip-path="url(#clip0_2184_249)">
<circle cx="20" cy="20" r="19" stroke="url(#paint0_linear_2184_249)" stroke-width="2"/>
<path d="M20.9 28C20 28 18 28 18 28C18 28 18 20.7 18 20.5C17.3 20.5 16.7 20.5 16 20.5C16 19.6 16 18.7 16 17.8C16.6 17.8 17.3 17.8 18 17.8C18 17.6 18 17.5 18 17.4C18 16.7 18 16.1 18 15.5C18 13.8 19 12.6 20.5 12.2C20.8 12.1 21 12 21.2 12C22.1 12 22.9 12 23.8 12C23.8 12.9 23.8 13.8 23.8 14.7C23.1 14.7 22.4 14.7 21.8 14.7C21.3 14.7 21 14.9 21 15.4C21 16.2 21 16.9 21 17.7C21.1 17.7 21.3 17.7 21.4 17.7C22.2 17.7 23 17.7 23.9 17.7C23.9 18.3 23.9 20.4 23.9 20.4C23.9 20.4 22 20.4 21 20.4C20.9 23 20.9 25.5 20.9 28Z" fill="url(#paint1_linear_2184_249)"/>
</g>
<defs>
<linearGradient id="paint0_linear_2184_249" x1="0.35443" y1="20" x2="39.5433" y2="20" gradientUnits="userSpaceOnUse">
<stop stop-color="#E6C482"/>
<stop offset="1" stop-color="#B07638"/>
</linearGradient>
<linearGradient id="paint1_linear_2184_249" x1="16.07" y1="20" x2="23.8098" y2="20" gradientUnits="userSpaceOnUse">
<stop stop-color="#E6C482"/>
<stop offset="1" stop-color="#B07638"/>
</linearGradient>
<clipPath id="clip0_2184_249">
<rect width="40" height="40" fill="white"/>
</clipPath>
</defs>
</svg>
