<svg width="19" height="24" viewBox="0 0 19 24" fill="none" xmlns="http://www.w3.org/2000/svg">
<path fill-rule="evenodd" clip-rule="evenodd" d="M8.28368 23.4348L8.28915 23.4403L8.2928 23.4439C8.53228 23.6254 8.82452 23.7237 9.125 23.7237C9.42548 23.7237 9.71772 23.6254 9.9572 23.4439L9.96085 23.4403L9.96633 23.4348L9.98822 23.4184C10.1057 23.3277 10.2213 23.2346 10.335 23.1392C11.6956 21.9921 12.9458 20.72 14.0689 19.3395C16.0782 16.8539 18.25 13.2404 18.25 9.125C18.25 6.7049 17.2886 4.38392 15.5773 2.67265C13.8661 0.961381 11.5451 0 9.125 0C6.7049 0 4.38392 0.961381 2.67265 2.67265C0.961381 4.38392 0 6.7049 0 9.125C0 13.2404 2.17175 16.8539 4.1829 19.3395C5.30606 20.72 6.55618 21.9921 7.91685 23.1392L8.26178 23.4184L8.28368 23.4348ZM9.125 11.8625C9.48449 11.8625 9.84047 11.7917 10.1726 11.6541C10.5047 11.5165 10.8065 11.3149 11.0607 11.0607C11.3149 10.8065 11.5165 10.5047 11.6541 10.1726C11.7917 9.84047 11.8625 9.48449 11.8625 9.125C11.8625 8.76551 11.7917 8.40953 11.6541 8.0774C11.5165 7.74527 11.3149 7.44349 11.0607 7.18929C10.8065 6.93509 10.5047 6.73345 10.1726 6.59588C9.84047 6.45831 9.48449 6.3875 9.125 6.3875C8.39897 6.3875 7.70268 6.67591 7.1893 7.18929C6.67591 7.70268 6.3875 8.39897 6.3875 9.125C6.3875 9.85103 6.67591 10.5473 7.1893 11.0607C7.70268 11.5741 8.39897 11.8625 9.125 11.8625Z" fill="white"/>
</svg>
