<svg width="40" height="40" viewBox="0 0 40 40" fill="none" xmlns="http://www.w3.org/2000/svg">
<g clip-path="url(#clip0_2184_251)">
<circle cx="20" cy="20" r="19" stroke="url(#paint0_linear_2184_251)" stroke-width="2"/>
<path fill-rule="evenodd" clip-rule="evenodd" d="M12.6 14.4C12.9 14.1 13.3 14 13.8 14H26.4C26.8 14 27.2 14.2 27.5 14.4L20.4 20.4C20.2 20.6 19.9 20.6 19.7 20.4L12.6 14.4ZM28 15.5C28 15.6 28 15.7 28 15.7V24.8C28 25.2 27.8 25.7 27.5 26C27.2 26.3 26.7 26.5 26.3 26.5H13.7C13.2 26.5 12.8 26.3 12.5 26C12.2 25.8 12 25.3 12 24.9V15.7C12 15.6 12 15.5 12 15.5L18.9 21.3C19.5 21.8 20.5 21.8 21.1 21.3L28 15.5Z" fill="url(#paint1_linear_2184_251)"/>
</g>
<defs>
<linearGradient id="paint0_linear_2184_251" x1="0.35443" y1="20" x2="39.5433" y2="20" gradientUnits="userSpaceOnUse">
<stop stop-color="#E6C482"/>
<stop offset="1" stop-color="#B07638"/>
</linearGradient>
<linearGradient id="paint1_linear_2184_251" x1="12" y1="20.295" x2="28" y2="20.295" gradientUnits="userSpaceOnUse">
<stop stop-color="#E6C482"/>
<stop offset="1" stop-color="#B07638"/>
</linearGradient>
<clipPath id="clip0_2184_251">
<rect width="40" height="40" fill="white"/>
</clipPath>
</defs>
</svg>
