<svg width="40" height="40" viewBox="0 0 40 40" fill="none" xmlns="http://www.w3.org/2000/svg">
<g clip-path="url(#clip0_2184_247)">
<circle cx="20" cy="20" r="19" stroke="url(#paint0_linear_2184_247)" stroke-width="2"/>
<path d="M18.1703 22.2158C18.1703 21.8858 18.2403 21.7658 18.4403 21.5858C19.8403 20.3458 21.2203 19.0858 22.6103 17.8258C23.3303 17.1758 24.0503 16.5358 24.7603 15.8858C24.8403 15.8158 24.9903 15.6758 24.9903 15.6758C24.9903 15.6758 25.1503 15.5558 25.1203 15.4158C25.0303 15.2158 24.7903 15.3758 24.7903 15.3758C24.7903 15.3758 24.0703 15.7758 23.7303 15.9858C21.2803 17.5258 18.8403 19.0758 16.4003 20.6258C16.2203 20.7358 16.0803 20.7558 15.8903 20.6958C14.7803 20.3458 13.6703 20.0158 12.5703 19.6658C12.3103 19.5858 12.0003 19.5058 12.0003 19.1858C11.9903 18.8658 12.2703 18.7158 12.5303 18.6058C13.6403 18.1658 14.7603 17.7358 15.8803 17.3058C18.1603 16.4258 20.4403 15.5558 22.7203 14.6858C24.1003 14.1558 25.4903 13.6458 26.8603 13.0958C27.6603 12.7758 28.0603 13.3058 27.9703 13.9758C27.9003 14.5058 27.7803 15.0258 27.6703 15.5458C26.9903 18.7158 26.3203 21.8858 25.6403 25.0558C25.5703 25.3858 25.5103 25.7258 25.3803 26.0358C25.2103 26.4658 24.8803 26.5858 24.4503 26.4058C24.2203 26.3058 24.0003 26.1558 23.8003 26.0058C22.7703 25.2458 21.7503 24.4858 20.7303 23.7158C20.5603 23.5858 20.4503 23.6258 20.3103 23.7558C19.8503 24.2058 19.3803 24.6558 18.9103 25.1058C18.8603 25.1558 18.7003 25.3458 18.4703 25.3258C18.2403 25.3058 18.2303 25.1558 18.2303 25.0258C18.2303 24.0858 18.1703 23.1558 18.1703 22.2158Z" fill="url(#paint1_linear_2184_247)"/>
</g>
<defs>
<linearGradient id="paint0_linear_2184_247" x1="0.35443" y1="20" x2="39.5433" y2="20" gradientUnits="userSpaceOnUse">
<stop stop-color="#E6C482"/>
<stop offset="1" stop-color="#B07638"/>
</linearGradient>
<linearGradient id="paint1_linear_2184_247" x1="11.9971" y1="19.7358" x2="27.9835" y2="19.7358" gradientUnits="userSpaceOnUse">
<stop stop-color="#E6C482"/>
<stop offset="1" stop-color="#B07638"/>
</linearGradient>
<clipPath id="clip0_2184_247">
<rect width="40" height="40" fill="white"/>
</clipPath>
</defs>
</svg>
