<svg width="23" height="29" viewBox="0 0 23 29" fill="none" xmlns="http://www.w3.org/2000/svg">
<g clip-path="url(#clip0_2216_144)">
<path d="M20.45 10.06H10.89L12.47 4.91C12.83 3.83 12.65 2.85 12.2 1.52C11.9 0.63 11.1 0.02 10.2 0C10.18 0 10.17 0 10.15 0C9.27999 0 8.51999 0.56 8.15999 1.48C7.69999 2.65 7.20999 3.74 6.84999 4.4L1.63999 11.49C0.609993 12.76 0.0399933 14.37 0.0399933 16.05V22.14C0.0399933 25.93 3.11999 29 6.89999 29H17.83C19.21 29 20.34 27.88 20.34 26.49V25.62C20.34 25.14 20.2 24.69 19.97 24.3C20.71 23.86 21.21 23.06 21.21 22.14V21.27C21.21 20.79 21.07 20.34 20.84 19.95C21.58 19.51 22.08 18.71 22.08 17.78V16.91C22.08 16.43 21.94 15.98 21.71 15.59C22.45 15.15 22.95 14.35 22.95 13.42V12.55C22.95 11.19 21.83 10.06 20.45 10.06ZM21.42 13.44C21.42 13.98 20.98 14.41 20.45 14.41H19.58H18.35V15.94H19.58C20.12 15.94 20.55 16.38 20.55 16.91V17.78C20.55 18.32 20.11 18.75 19.58 18.75H18.7H17.47V20.28H18.7C19.24 20.28 19.67 20.72 19.67 21.25V22.12C19.67 22.66 19.23 23.09 18.7 23.09H17.83H16.6V24.62H17.83C18.37 24.62 18.8 25.06 18.8 25.59V26.46C18.8 27 18.36 27.43 17.83 27.43H6.89999C3.96999 27.43 1.57999 25.04 1.57999 22.11V16.01C1.57999 14.69 2.01999 13.41 2.85999 12.39L8.11999 5.23L8.16999 5.15C8.74999 4.12 9.35999 2.6 9.58999 2C9.65999 1.81 9.83999 1.5 10.15 1.5H10.16C10.37 1.5 10.64 1.65 10.74 1.97C11.1 3.04 11.24 3.71 11 4.41L8.79999 11.56H20.43C20.97 11.56 21.4 12 21.4 12.53L21.42 13.44Z" fill="white"/>
</g>
<defs>
<clipPath id="clip0_2216_144">
<rect width="23" height="29" fill="white"/>
</clipPath>
</defs>
</svg>
