<svg width="32" height="32" viewBox="0 0 32 32" fill="none" xmlns="http://www.w3.org/2000/svg">
<path d="M31.4315 26.1263C30.7761 26.1263 30.4818 25.8882 30.0739 25.5686C29.6191 25.2081 29.0573 24.7591 28.0006 24.7591C26.9439 24.7591 26.3821 25.2081 25.9274 25.5686C25.5194 25.895 25.2251 26.1263 24.5697 26.1263C23.9143 26.1263 23.62 25.8882 23.2121 25.5686C22.7573 25.2081 22.1955 24.7591 21.1388 24.7591C20.0821 24.7591 19.5203 25.2081 19.0656 25.5686C18.7312 25.8338 18.4703 26.0379 18.0289 26.1059C17.2331 24.7727 16.0694 23.6368 14.6381 22.8002C14.1566 22.5213 13.655 22.2765 13.1334 22.0792L16.3569 13.7401L22.57 16.2228C22.8643 16.3384 23.2054 16.1956 23.3191 15.8895C24.9041 11.7948 22.9178 7.1695 18.8917 5.55746L18.8783 5.55066L18.8582 5.54386C14.8321 3.95222 10.3044 5.97237 8.72601 10.0603C8.61232 10.3596 8.75277 10.7065 9.05372 10.8221L15.2668 13.3048L12.0165 21.7119C11.1805 21.4874 10.3244 21.3582 9.46837 21.3242C5.52918 21.1814 1.84414 23.0927 0.078523 26.1807C-0.0819872 26.4596 0.0116437 26.8201 0.285849 26.9833C0.372792 27.031 0.466423 27.065 0.566742 27.065L17.6878 27.303H17.6945C18.7512 27.303 19.313 26.8541 19.7678 26.4936C20.1757 26.1671 20.47 25.9359 21.1254 25.9359C21.7808 25.9359 22.0751 26.1739 22.4831 26.4936C22.9379 26.8541 23.4996 27.303 24.5563 27.303C25.613 27.303 26.1748 26.8541 26.6296 26.4936C27.0376 26.1671 27.3318 25.9359 27.9872 25.9359C28.6427 25.9359 28.9369 26.1739 29.3449 26.4936C29.7997 26.8541 30.3615 27.303 31.4182 27.303C31.7392 27.303 32 27.0378 32 26.7113C32 26.3848 31.7525 26.1263 31.4315 26.1263ZM18.4636 6.65256C18.6442 6.72058 18.9519 7.24432 18.8649 8.69992C18.7847 9.95827 18.4436 11.4955 17.8751 13.0803L14.5913 11.7676C15.2401 10.2099 16.0159 8.84276 16.7983 7.8701C17.7079 6.74779 18.2831 6.58454 18.4636 6.65256ZM22.142 10.2644C22.7774 11.7268 22.871 13.3728 22.4229 14.9032L18.9452 13.5156C19.5538 11.8152 19.935 10.1487 20.0152 8.77474C20.042 8.35983 20.0353 7.93811 19.9952 7.5232C20.9382 8.22379 21.6805 9.16925 22.142 10.2644ZM13.3541 6.74779C14.4241 6.27166 15.5945 6.08801 16.7582 6.22404C16.4506 6.50292 16.163 6.8022 15.9088 7.12869C15.0528 8.18978 14.2101 9.67259 13.5146 11.3459L10.0368 9.95827C10.7324 8.51627 11.9095 7.38036 13.3541 6.74779ZM1.65687 25.9086C3.3623 23.7048 6.2983 22.3921 9.42825 22.5077C12.3576 22.6165 15.0729 23.9973 16.6311 26.1195L1.65687 25.9086Z" fill="#B3B3B3"/>
</svg>
