<?xml version="1.0" encoding="utf-8"?>
<!-- Generator: Adobe Illustrator 27.2.0, SVG Export Plug-In . SVG Version: 6.00 Build 0)  -->
<svg version="1.1" id="Слой_1" xmlns="http://www.w3.org/2000/svg" xmlns:xlink="http://www.w3.org/1999/xlink" x="0px" y="0px"
	 viewBox="0 0 37 37" style="enable-background:new 0 0 37 37;" xml:space="preserve">
<style type="text/css">
	.st0{fill-rule:evenodd;clip-rule:evenodd;fill:#FFFFFF;}
</style>
<path class="st0" d="M35.61,23.2c-0.11-0.44-0.45-0.74-0.97-0.86c-0.19-0.04-0.35-0.03-0.52,0.05l-10.94,4.92
	c-0.54,1.46-2.1,2.25-3.58,1.85l-7.97-2.13c-0.3-0.08-0.47-0.38-0.39-0.68c0.08-0.29,0.38-0.47,0.68-0.39l7.97,2.14
	c1,0.27,2.04-0.33,2.3-1.33c0,0,0,0,0,0c0.27-1-0.33-2.04-1.33-2.3l-7.82-2.1l-4.41,1.22v8.73l3.09-0.84c0.35-0.09,0.69-0.09,1.03,0
	l8.14,2.28c0.24,0.07,0.47,0.03,0.68-0.1l13.17-8.58c0.03-0.02,0.05-0.04,0.08-0.06C35.45,24.48,35.75,23.79,35.61,23.2L35.61,23.2z
	 M7.52,23.07c0-0.42-0.34-0.77-0.77-0.77H2.12c-0.42,0-0.77,0.34-0.77,0.77V33.2c0,0.42,0.34,0.77,0.77,0.77h4.63
	c0.42,0,0.77-0.34,0.77-0.77V23.07L7.52,23.07z M21.15,23.39l-5.32-1.42c-2.35-1.6-3.75-4.23-3.75-7.08c0-4.71,3.83-8.55,8.55-8.55
	c4.71,0,8.55,3.83,8.55,8.55c0,4.49-3.48,8.21-7.94,8.52C21.21,23.41,21.18,23.4,21.15,23.39L21.15,23.39z M10.97,21.79
	c-1.45-2.02-2.21-4.39-2.21-6.9c0-6.54,5.32-11.86,11.86-11.86c6.54,0,11.86,5.32,11.86,11.86c0,3.33-1.41,6.51-3.86,8.76
	l-5.28,2.37c-0.05-0.63-0.31-1.22-0.71-1.69c4.38-0.93,7.64-4.83,7.64-9.44c0-5.32-4.33-9.65-9.65-9.65c-5.32,0-9.65,4.33-9.65,9.65
	c0,2.41,0.89,4.68,2.45,6.43c-0.2-0.05-0.35-0.12-0.54-0.06L10.97,21.79L10.97,21.79z M35.52,25.86c-0.06,0.05-0.11,0.09-0.18,0.13
	l-13.17,8.58c-0.49,0.32-1.04,0.4-1.58,0.24l-8.14-2.28c-0.16-0.04-0.29-0.04-0.44,0l-3.4,0.93c-0.13,0.91-0.91,1.61-1.86,1.61H2.12
	c-1.03,0-1.87-0.84-1.87-1.87V23.07c0-1.03,0.84-1.87,1.87-1.87h4.63c0.82,0,1.52,0.53,1.77,1.27l1.32-0.36
	c-1.43-2.13-2.19-4.61-2.19-7.21c0-7.15,5.82-12.97,12.97-12.97c7.15,0,12.97,5.82,12.97,12.97c0,2.77-0.89,5.44-2.5,7.65l2.56-1.15
	c0.4-0.18,0.79-0.22,1.22-0.12C37.03,21.74,37.44,24.26,35.52,25.86L35.52,25.86z M21.18,20.08v-0.72c1.2-0.23,2.07-1.17,2.13-2.46
	c0-0.02,0-0.03,0-0.05c-0.07-1.49-1.26-2.51-2.65-2.51c-1.58,0-2.15-1.86-0.91-2.61c0.25-0.15,0.55-0.26,0.88-0.25
	c0.69,0.03,1.28,0.22,1.8,0.58c0.25,0.17,0.6,0.11,0.77-0.14c0.17-0.25,0.11-0.6-0.14-0.77c-0.57-0.39-1.19-0.63-1.88-0.73V9.71
	c0-0.31-0.25-0.55-0.55-0.55c-0.31,0-0.55,0.25-0.55,0.55v0.72c-1.19,0.24-2.08,1.2-2.1,2.46c-0.01,0.89,0.43,1.6,1.19,2.13
	c0.01,0,0.01,0.01,0.02,0.01c1.17,0.68,1.56,0.18,2.35,0.66c0.91,0.57,0.9,1.81,0,2.36c-0.82,0.51-1.96,0.17-2.73-0.34
	c-0.25-0.17-0.6-0.1-0.77,0.16c-0.17,0.25-0.1,0.6,0.16,0.77c0.59,0.39,1.23,0.63,1.88,0.73v0.71c0,0.31,0.25,0.55,0.55,0.55
	C20.93,20.63,21.18,20.39,21.18,20.08z"/>
</svg>
