<?xml version="1.0" encoding="utf-8"?>
<!-- Generator: Adobe Illustrator 27.2.0, SVG Export Plug-In . SVG Version: 6.00 Build 0)  -->
<svg version="1.1" id="Слой_1" xmlns="http://www.w3.org/2000/svg" xmlns:xlink="http://www.w3.org/1999/xlink" x="0px" y="0px"
	 viewBox="0 0 37 37" style="enable-background:new 0 0 37 37;" xml:space="preserve">
<style type="text/css">
	.st0{fill:#FFFFFF;}
</style>
<g>
	<g>
		<g>
			<path class="st0" d="M22.37,4.89c-0.14,0-0.27-0.05-0.38-0.15l-3.48-3.22l-3.48,3.22c-0.22,0.21-0.58,0.19-0.78-0.03
				s-0.19-0.58,0.03-0.78l3.86-3.57c0.21-0.19,0.54-0.19,0.75,0l3.86,3.57c0.22,0.21,0.24,0.56,0.03,0.78
				C22.68,4.83,22.53,4.89,22.37,4.89z"/>
		</g>
		<g>
			<path class="st0" d="M18.52,12.01c-0.31,0-0.55-0.25-0.55-0.55V0.76c0-0.31,0.25-0.55,0.55-0.55s0.55,0.25,0.55,0.55v10.69
				C19.08,11.77,18.82,12.01,18.52,12.01z"/>
		</g>
	</g>
	<g>
		<g>
			<path class="st0" d="M0.96,12.89c-0.15,0-0.3-0.06-0.41-0.18c-0.21-0.22-0.19-0.58,0.03-0.78l3.86-3.57
				c0.21-0.19,0.54-0.19,0.75,0l3.86,3.57c0.22,0.21,0.24,0.56,0.03,0.78c-0.21,0.22-0.56,0.24-0.78,0.03L4.82,9.52l-3.48,3.22
				C1.23,12.84,1.09,12.89,0.96,12.89z"/>
		</g>
		<g>
			<path class="st0" d="M4.82,21.52c-0.31,0-0.55-0.25-0.55-0.55V8.77c0-0.31,0.25-0.55,0.55-0.55c0.31,0,0.55,0.25,0.55,0.55v12.2
				C5.37,21.27,5.12,21.52,4.82,21.52z"/>
		</g>
	</g>
	<g>
		<g>
			<path class="st0" d="M36.04,12.89c-0.14,0-0.27-0.05-0.38-0.15l-3.48-3.22l-3.48,3.22c-0.22,0.21-0.58,0.19-0.78-0.03
				s-0.19-0.58,0.03-0.78l3.86-3.57c0.21-0.19,0.54-0.19,0.75,0l3.86,3.57c0.22,0.21,0.24,0.56,0.03,0.78
				C36.34,12.83,36.19,12.89,36.04,12.89z"/>
		</g>
		<g>
			<path class="st0" d="M32.18,21.52c-0.31,0-0.55-0.25-0.55-0.55V8.77c0-0.31,0.25-0.55,0.55-0.55c0.31,0,0.55,0.25,0.55,0.55v12.2
				C32.74,21.27,32.48,21.52,32.18,21.52z"/>
		</g>
	</g>
	<g>
		<g>
			<g>
				<g>
					<path class="st0" d="M18.52,31.1c-0.62,0-1.22-0.2-1.71-0.58c-0.69-0.53-1.09-1.34-1.09-2.21c0-0.31,0.25-0.55,0.55-0.55
						c0.31,0,0.55,0.25,0.55,0.55c0,0.53,0.24,1.01,0.66,1.34c0.42,0.33,0.95,0.43,1.49,0.29c0.56-0.14,1.03-0.62,1.17-1.19
						c0.13-0.51,0.03-1.02-0.26-1.43c-0.29-0.41-0.75-0.66-1.25-0.69c-1.53-0.11-2.71-1.1-2.89-2.41c-0.11-0.81,0.13-1.62,0.66-2.23
						c0.53-0.61,1.3-0.95,2.1-0.95c1.54,0,2.79,1.25,2.79,2.79c0,0.31-0.25,0.55-0.55,0.55s-0.55-0.25-0.55-0.55
						c0-0.93-0.75-1.69-1.69-1.69c-0.49,0-0.95,0.21-1.27,0.58c-0.33,0.37-0.47,0.85-0.4,1.35c0.13,0.91,1.06,1.39,1.87,1.45
						c0.82,0.06,1.58,0.48,2.06,1.15c0.49,0.67,0.65,1.53,0.45,2.35c-0.24,0.96-1.01,1.74-1.97,1.99
						C19.01,31.07,18.77,31.1,18.52,31.1z"/>
				</g>
				<g>
					<path class="st0" d="M18.52,32.15c-0.31,0-0.55-0.25-0.55-0.55v-1.06c0-0.31,0.25-0.55,0.55-0.55s0.55,0.25,0.55,0.55v1.06
						C19.07,31.91,18.82,32.15,18.52,32.15z"/>
				</g>
				<g>
					<path class="st0" d="M18.52,22.14c-0.31,0-0.55-0.25-0.55-0.55v-1.06c0-0.31,0.25-0.55,0.55-0.55s0.55,0.25,0.55,0.55v1.06
						C19.07,21.9,18.82,22.14,18.52,22.14z"/>
				</g>
			</g>
			<g>
				<path class="st0" d="M18.52,36.79c-5.91,0-10.72-4.81-10.72-10.72s4.81-10.72,10.72-10.72s10.72,4.81,10.72,10.72
					S24.43,36.79,18.52,36.79z M18.52,16.45c-5.3,0-9.61,4.32-9.61,9.61c0,5.3,4.32,9.61,9.61,9.61c5.3,0,9.61-4.32,9.61-9.61
					C28.14,20.76,23.82,16.45,18.52,16.45z"/>
			</g>
		</g>
	</g>
</g>
</svg>
