<?xml version="1.0" encoding="utf-8"?>
<!-- Generator: Adobe Illustrator 27.2.0, SVG Export Plug-In . SVG Version: 6.00 Build 0)  -->
<svg version="1.1" id="Слой_1" xmlns="http://www.w3.org/2000/svg" xmlns:xlink="http://www.w3.org/1999/xlink" x="0px" y="0px"
	 viewBox="0 0 37 37" style="enable-background:new 0 0 37 37;" xml:space="preserve">
<style type="text/css">
	.st0{fill:#FFFFFF;}
</style>
<g>
	<g>
		<path class="st0" d="M34.38,2.12c-1.28-1.28-2.98-1.98-4.79-1.98c-1.81,0-3.51,0.7-4.79,1.98c-0.54,0.54-0.97,1.15-1.3,1.82
			c-0.99-0.54-2.1-0.83-3.25-0.83c-1.81,0-3.51,0.7-4.79,1.98c-2.64,2.64-2.64,6.94,0,9.58c0.28,0.28,0.59,0.54,0.92,0.77
			l-1.31,1.31c-0.4,0.4-0.4,1.04,0,1.43l0,0L1.31,31.96c-0.89,0.89-0.89,2.34,0,3.23c0.89,0.89,2.34,0.89,3.23,0l0.49-0.49
			l1.88,1.88c0.18,0.18,0.42,0.28,0.68,0.28c0,0,0,0,0,0c0.26,0,0.5-0.1,0.68-0.28l1.34-1.34c0.37-0.37,0.37-0.98,0-1.36l-1.89-1.88
			l1.03-1.03l1.9,1.91c0.36,0.36,0.96,0.36,1.32,0l1.96-1.96c0.18-0.18,0.28-0.41,0.28-0.66c0-0.25-0.1-0.49-0.28-0.66l-1.9-1.9
			l6.24-6.24l0,0c0.38,0.38,1.05,0.39,1.44,0l1.31-1.31c0.23,0.33,0.49,0.63,0.77,0.92c1.28,1.28,2.98,1.98,4.79,1.98
			c1.81,0,3.51-0.7,4.79-1.98c2.15-2.15,2.59-5.42,1.16-8.03c0.67-0.33,1.29-0.76,1.82-1.3C37.02,9.06,37.02,4.76,34.38,2.12z
			 M10.8,27.25c-0.23,0.23-0.23,0.61,0,0.84l2.15,2.15l-1.62,1.62L9.19,29.7c-0.11-0.11-0.26-0.17-0.42-0.17
			c-0.16,0-0.31,0.06-0.42,0.17l-1.87,1.87c-0.11,0.11-0.17,0.26-0.17,0.42c0,0.16,0.06,0.31,0.17,0.42l2.15,2.15L7.6,35.58
			l-2.15-2.15c-0.11-0.11-0.26-0.17-0.42-0.17c0,0,0,0,0,0c-0.16,0-0.31,0.06-0.42,0.17L3.7,34.35c-0.43,0.43-1.13,0.43-1.55,0
			c-0.43-0.43-0.43-1.12,0-1.55l13.76-13.77l1.55,1.55L10.8,27.25z M31.48,12.17c-0.17,0.06-0.31,0.2-0.36,0.38
			c-0.06,0.18-0.03,0.37,0.08,0.52c1.54,2.22,1.28,5.22-0.64,7.13c-1.05,1.06-2.46,1.64-3.95,1.64c-1.49,0-2.9-0.58-3.95-1.64
			c-0.39-0.39-0.71-0.83-0.97-1.31c-0.09-0.16-0.25-0.28-0.44-0.31c-0.03,0-0.06-0.01-0.09-0.01c-0.16,0-0.31,0.06-0.42,0.17
			l-1.72,1.72l-3-3l1.72-1.72c0.13-0.13,0.19-0.32,0.17-0.5c-0.03-0.19-0.14-0.35-0.31-0.44c-0.48-0.26-0.92-0.59-1.31-0.97
			c-2.18-2.18-2.18-5.72,0-7.9c1.06-1.05,2.46-1.64,3.95-1.64c1.15,0,2.25,0.34,3.19,1c0.15,0.11,0.34,0.13,0.52,0.08
			c0.18-0.06,0.31-0.19,0.38-0.36c0.28-0.78,0.72-1.47,1.3-2.05c1.06-1.05,2.46-1.64,3.95-1.64s2.9,0.58,3.95,1.64
			c2.18,2.18,2.18,5.72,0,7.9C32.95,11.45,32.26,11.88,31.48,12.17z"/>
		<path class="st0" d="M29.59,3.81c-0.83,0-1.6,0.32-2.19,0.91c-1.21,1.21-1.21,3.17,0,4.38C27.99,9.68,28.76,10,29.59,10
			c0.83,0,1.6-0.32,2.19-0.91c1.21-1.21,1.21-3.17,0-4.38C31.19,4.14,30.42,3.81,29.59,3.81z M30.94,8.26
			c-0.72,0.72-1.98,0.72-2.7,0c-0.74-0.75-0.74-1.96,0-2.7C28.6,5.2,29.08,5,29.59,5c0.51,0,0.99,0.2,1.35,0.56
			C31.69,6.3,31.69,7.52,30.94,8.26z"/>
		<path class="st0" d="M26.61,13.15c-0.83,0-1.6,0.32-2.19,0.91c-0.58,0.58-0.91,1.36-0.91,2.19s0.32,1.6,0.91,2.19
			c0.59,0.59,1.36,0.91,2.19,0.91c0.83,0,1.6-0.32,2.19-0.91c0.58-0.58,0.91-1.36,0.91-2.19c0-0.83-0.32-1.6-0.91-2.19
			C28.21,13.47,27.44,13.15,26.61,13.15z M27.96,17.6c-0.72,0.72-1.98,0.72-2.7,0c-0.36-0.36-0.56-0.84-0.56-1.35
			c0-0.51,0.2-0.99,0.56-1.35c0.36-0.36,0.84-0.56,1.35-0.56c0.51,0,0.99,0.2,1.35,0.56c0.36,0.36,0.56,0.84,0.56,1.35
			C28.52,16.76,28.32,17.24,27.96,17.6z"/>
		<path class="st0" d="M20.25,6.79c-0.83,0-1.6,0.32-2.19,0.91c-1.21,1.21-1.21,3.17,0,4.38c0.58,0.58,1.36,0.91,2.19,0.91
			c0.83,0,1.6-0.32,2.19-0.91c1.21-1.21,1.21-3.17,0-4.38C21.86,7.11,21.08,6.79,20.25,6.79z M21.6,11.24
			c-0.72,0.72-1.98,0.72-2.7,0c-0.74-0.74-0.74-1.96,0-2.7c0.36-0.36,0.84-0.56,1.35-0.56s0.99,0.2,1.35,0.56
			C22.35,9.28,22.35,10.5,21.6,11.24z"/>
	</g>
</g>
</svg>
