<?xml version="1.0" encoding="utf-8"?>
<!-- Generator: Adobe Illustrator 27.2.0, SVG Export Plug-In . SVG Version: 6.00 Build 0)  -->
<svg version="1.1" id="Слой_1" xmlns="http://www.w3.org/2000/svg" xmlns:xlink="http://www.w3.org/1999/xlink" x="0px" y="0px"
	 viewBox="0 0 49 49" style="enable-background:new 0 0 49 49;" xml:space="preserve">
<path d="M10.26,30.34c0-0.43,0.36-0.79,0.79-0.79c0.44,0,0.79,0.36,0.79,0.79c0,0.44-0.35,0.79-0.79,0.79
	C10.62,31.13,10.26,30.78,10.26,30.34z M48.99,46.24c0,1.46-1.18,2.64-2.64,2.64l-43.47,0c-1.46,0-2.64-1.18-2.64-2.64
	c0-1.45,1.18-2.64,2.64-2.64h5.31v-8.5c0-0.88,0.15-1.75,0.45-2.58c0.15-0.41,0.6-0.61,1.01-0.47c0.41,0.15,0.62,0.6,0.47,1.01
	c-0.24,0.65-0.36,1.34-0.36,2.04v8.5h2.61c-0.16-2.47,0.17-4.95,0.59-7.4c0.66-1.1,0.84,3.49,0.93,3.89
	c0.08,1.18,0.22,3.51,0.22,3.51h16.35c-0.15-0.33-0.23-0.69-0.23-1.07c0-1.11,0.69-2.05,1.66-2.44v-0.16c0-2.41,1.77-4.4,4.07-4.78
	v-0.59c0-0.43,0.35-0.79,0.79-0.79c0.43,0,0.79,0.35,0.79,0.79v0.59c0.71,0.12,1.37,0.37,1.94,0.76v-0.81
	c0-3.29-2.68-5.97-5.97-5.97h-2.13c-0.07,0-0.12,0.05-0.14,0.11l-0.97,3.98c-0.38,1.56-1.77,2.65-3.38,2.65h-4.46
	c-1.61,0-3.01-1.1-3.38-2.67l-0.95-3.96c-0.02-0.07-0.07-0.11-0.14-0.11h-2.21c-0.6,0-1.2,0.09-1.76,0.27
	c-0.42,0.13-0.86-0.1-0.98-0.52c-0.13-0.41,0.1-0.86,0.52-0.98c0.72-0.22,1.47-0.34,2.23-0.34h2.21c0.7,0,1.29,0.43,1.55,1.05h0.28
	c0.61,0,1.1-0.5,1.1-1.1v-2.37c-1.54-0.81-2.8-2.12-3.54-3.75c-0.26,0.06-0.52,0.1-0.79,0.1c-1.88,0-3.4-1.53-3.4-3.4
	c0-1.62,1.13-2.97,2.66-3.31c-0.2-2.19,0.42-4.4,1.81-6.19c0.77-0.99,1.72-1.78,2.78-2.35c-0.19-0.51-0.3-1.05-0.3-1.6
	c0-2.49,2.02-4.51,4.51-4.51s4.51,2.02,4.51,4.51c0,0.55-0.1,1.09-0.29,1.6c1.06,0.58,2.01,1.36,2.78,2.35
	c1.39,1.79,2,3.99,1.81,6.19c1.53,0.34,2.66,1.7,2.66,3.31c0,1.88-1.53,3.4-3.4,3.4c-0.27,0-0.54-0.04-0.79-0.1
	c-0.75,1.63-2,2.93-3.54,3.75v2.37c0,0.61,0.5,1.1,1.1,1.1h0.36c0.27-0.62,0.86-1.05,1.55-1.05h2.13c4.16,0,7.55,3.38,7.55,7.54
	v2.61c0.35,0.67,0.56,1.41,0.56,2.21v0.16c0.97,0.39,1.66,1.34,1.66,2.44c0,0.38-0.08,0.74-0.23,1.07h3.32
	C47.82,43.6,49,44.78,48.99,46.24L48.99,46.24z M32.41,19.89c0.09,0.01,0.18,0.03,0.28,0.03c1.01,0,1.83-0.82,1.83-1.83
	c0-0.84-0.57-1.55-1.35-1.76L32.41,19.89z M16.83,19.89l-0.75-3.56c-0.78,0.21-1.35,0.92-1.35,1.76c0,1.01,0.82,1.83,1.83,1.83
	C16.65,19.92,16.74,19.9,16.83,19.89L16.83,19.89z M28.41,13.63c0.73,0.81,2.08,1.54,3.3,1.96c0.47-2.14-0.01-4.32-1.34-6.04
	c-0.17-0.22-0.36-0.44-0.55-0.63C29.9,11.06,28.95,12.8,28.41,13.63L28.41,13.63z M21.68,4.64c0,0.33,0.08,0.65,0.18,0.96
	c0.88-0.28,1.8-0.44,2.75-0.44s1.88,0.16,2.75,0.44c0.11-0.31,0.18-0.63,0.18-0.96c0-1.62-1.32-2.94-2.94-2.94
	C23,1.7,21.68,3.02,21.68,4.64L21.68,4.64z M17.42,15.04c2.46,0.62,7.72,0.4,9.37-1.87c0.01-0.01,0.64-0.8,1.06-1.93
	c0.36-1,0.59-2.31,0.13-3.69c-1.02-0.53-2.17-0.83-3.36-0.83c-2.27,0-4.36,1.03-5.75,2.82C17.64,11.13,17.13,13.1,17.42,15.04
	L17.42,15.04z M24.62,24.5c2.93,0,5.49-1.98,6.22-4.82l0.54-2.54c-1.25-0.41-2.91-1.2-3.99-2.29c-2.42,2.19-7.07,2.28-9.63,1.87
	l0.63,3C19.13,22.52,21.69,24.5,24.62,24.5L24.62,24.5z M29.38,30.18c-1.44-0.04-2.6-1.22-2.6-2.67v-1.76
	c-0.69,0.19-1.41,0.32-2.16,0.32s-1.47-0.13-2.16-0.32v1.76c0,1.43-1.12,2.58-2.53,2.66l0.64,2.67c0.21,0.86,0.97,1.46,1.85,1.46
	h4.46c0.88,0,1.64-0.6,1.85-1.45L29.38,30.18L29.38,30.18z M33.47,39.9h6.56c-0.02-1.8-1.48-3.25-3.28-3.25
	C34.95,36.64,33.49,38.1,33.47,39.9L33.47,39.9z M31.81,42.53c0,0.59,0.48,1.07,1.07,1.07h7.75c0.59,0,1.06-0.48,1.06-1.07
	c0-0.59-0.48-1.06-1.06-1.06h-7.75C32.28,41.47,31.81,41.95,31.81,42.53z M47.42,46.24c0-0.59-0.48-1.06-1.07-1.06l-43.46,0
	c-0.59,0-1.07,0.48-1.07,1.06c0,0.59,0.48,1.07,1.07,1.07h43.47C46.94,47.3,47.42,46.82,47.42,46.24L47.42,46.24z"/>
</svg>
