<?xml version="1.0" encoding="utf-8"?>
<!-- Generator: Adobe Illustrator 27.2.0, SVG Export Plug-In . SVG Version: 6.00 Build 0)  -->
<svg version="1.1" id="Слой_1" xmlns="http://www.w3.org/2000/svg" xmlns:xlink="http://www.w3.org/1999/xlink" x="0px" y="0px"
	 viewBox="0 0 49 49" style="enable-background:new 0 0 49 49;" xml:space="preserve">
<path d="M15.5,6.22c0.15,0.11,0.32,0.16,0.49,0.16c0.24,0,0.49-0.11,0.64-0.32c0.81-1.06,1.83-3.58-0.07-5.48
	c-0.32-0.32-0.83-0.32-1.14,0c-0.32,0.32-0.32,0.83,0,1.14C16.79,3.1,15.4,5,15.34,5.09C15.07,5.44,15.14,5.95,15.5,6.22z"/>
<path d="M44.83,15.7v-4.23c0-0.45-0.36-0.81-0.81-0.81H32.85V8.33c0-0.45-0.36-0.81-0.81-0.81h-7.75c-0.45,0-0.81,0.36-0.81,0.81
	v2.34h-2.81V8.33c0-0.45-0.36-0.81-0.81-0.81h-7.75c-0.45,0-0.81,0.36-0.81,0.81v2.34H8.64c-0.45,0-0.81,0.36-0.81,0.81v4.23
	c0,5.44,2.36,10.33,6.1,13.72l-3.36,11.23c-1.75,0.22-3.11,1.71-3.11,3.51c0,1.96,1.6,3.55,3.56,3.55c1.68,0,3.09-1.17,3.46-2.74
	H32.8c0.65,2.26,2.69,3.85,5.11,3.85c2.95,0,5.35-2.4,5.35-5.36c0-2.95-2.4-5.35-5.35-5.35c-0.26,0-0.53,0.02-0.78,0.06l-1.92-6.25
	C40.94,28.78,44.83,22.69,44.83,15.7z M25.09,9.13h6.14v1.53h-6.14V9.13z M12.92,9.13h6.14v1.53h-6.14V9.13z M9.45,12.28h33.76v2.61
	H9.45V12.28z M11.03,46.09c-1.07,0-1.94-0.87-1.94-1.93c0-1.07,0.87-1.94,1.94-1.95c0.04,0.01,0.08,0.01,0.12,0.01
	c1.04,0.06,1.83,0.89,1.83,1.93C12.98,45.23,12.1,46.09,11.03,46.09z M37.91,39.73c2.06,0,3.73,1.67,3.73,3.73
	c0,2.06-1.67,3.74-3.73,3.74c-1.82,0-3.41-1.36-3.68-3.18c-0.03-0.19-0.05-0.37-0.05-0.56c0-1.65,1.06-3.08,2.63-3.57
	C37.17,39.78,37.54,39.73,37.91,39.73z M35.59,38.65c-1.8,0.87-2.97,2.66-3.01,4.71H14.49c-0.28-1.18-1.14-2.13-2.27-2.53
	l3.08-10.29c3.08,2.3,6.91,3.67,11.04,3.67c2.63,0,5.14-0.56,7.41-1.55L35.59,38.65z M26.33,32.58c-9.04,0-16.41-7.14-16.84-16.07
	h33.68C42.75,25.44,35.37,32.58,26.33,32.58z"/>
<path d="M26.64,6.22c0.15,0.11,0.32,0.16,0.49,0.16c0.24,0,0.49-0.11,0.64-0.32C28.58,5,29.6,2.48,27.7,0.58
	c-0.32-0.32-0.83-0.32-1.14,0c-0.32,0.32-0.32,0.83,0,1.14c1.38,1.38-0.01,3.29-0.07,3.37C26.21,5.44,26.29,5.95,26.64,6.22z"/>
<path d="M21.07,6.22c0.15,0.11,0.32,0.16,0.49,0.16c0.24,0,0.49-0.11,0.64-0.32c0.81-1.06,1.83-3.58-0.07-5.48
	c-0.32-0.32-0.83-0.32-1.14,0c-0.32,0.32-0.32,0.83,0,1.14c1.38,1.38-0.01,3.29-0.07,3.37C20.64,5.44,20.71,5.95,21.07,6.22z"/>
</svg>
