<?xml version="1.0" encoding="utf-8"?>
<!-- Generator: Adobe Illustrator 27.2.0, SVG Export Plug-In . SVG Version: 6.00 Build 0)  -->
<svg version="1.1" id="Слой_1" xmlns="http://www.w3.org/2000/svg" xmlns:xlink="http://www.w3.org/1999/xlink" x="0px" y="0px"
	 viewBox="0 0 49 49" style="enable-background:new 0 0 49 49;" xml:space="preserve">
<path d="M8.47,18.26c-0.43,0-0.77-0.35-0.77-0.77V8.65c0-0.43,0.35-0.77,0.77-0.77h2.31c0.83-0.01,1.62,0.3,2.22,0.88
	c0.59,0.58,0.92,1.37,0.92,2.2c0,0.83-0.33,1.62-0.92,2.2c-0.59,0.58-1.39,0.9-2.22,0.88H9.24v3.45
	C9.24,17.91,8.89,18.26,8.47,18.26L8.47,18.26z M9.24,12.49h1.53v0c0.41,0.01,0.81-0.14,1.11-0.43c0.3-0.29,0.46-0.68,0.46-1.1
	c0-0.41-0.17-0.81-0.46-1.1c-0.3-0.29-0.7-0.44-1.11-0.43H9.24V12.49z"/>
<path d="M10.01,22.69c-2.55,0-5-1.01-6.81-2.82c-1.8-1.81-2.82-4.25-2.82-6.81c0-2.55,1.01-5,2.82-6.81
	c1.81-1.81,4.25-2.82,6.81-2.82c2.55,0,5,1.01,6.81,2.82c1.81,1.8,2.82,4.25,2.82,6.81c0,2.55-1.02,5-2.82,6.8
	C15.01,21.67,12.56,22.69,10.01,22.69L10.01,22.69z M10.01,4.99c-2.14,0-4.2,0.85-5.71,2.37c-1.52,1.51-2.37,3.57-2.37,5.71
	c0,2.14,0.85,4.2,2.37,5.71c1.52,1.52,3.57,2.37,5.71,2.37c2.14,0,4.2-0.85,5.71-2.37c1.52-1.52,2.37-3.57,2.37-5.71
	c0-2.14-0.85-4.19-2.37-5.71C14.2,5.84,12.15,4.99,10.01,4.99L10.01,4.99z"/>
<path d="M13.24,46H6.76c-0.2,0-0.4-0.08-0.55-0.23c-0.15-0.14-0.23-0.34-0.23-0.55L6,21.31c0-0.43,0.35-0.77,0.77-0.77
	c0.2,0,0.4,0.08,0.55,0.23c0.14,0.14,0.23,0.34,0.23,0.55L7.54,44.45h4.93l0.01-23.15v0c0-0.43,0.35-0.77,0.77-0.77
	c0.2,0,0.4,0.08,0.55,0.23c0.14,0.15,0.23,0.34,0.23,0.55l-0.01,23.92h0C14.02,45.65,13.67,46,13.24,46L13.24,46z"/>
<path d="M42.5,42.37H21.47c-1.37,0-2.41-1.08-2.85-2.96c-0.56-2.39-0.03-5.54,1.8-6.45h0c0.38-0.19,0.85-0.03,1.04,0.35
	c0.19,0.38,0.04,0.85-0.35,1.04c-0.94,0.47-1.43,2.8-0.98,4.71c0.1,0.41,0.48,1.76,1.34,1.76l21.03,0c0.86,0,1.25-1.35,1.34-1.76
	c0.45-1.91-0.04-4.24-0.98-4.71v0c-0.19-0.09-0.33-0.25-0.39-0.45c-0.07-0.19-0.05-0.41,0.04-0.59c0.19-0.38,0.65-0.54,1.04-0.35
	c1.83,0.91,2.36,4.06,1.8,6.45C44.91,41.3,43.87,42.37,42.5,42.37L42.5,42.37z"/>
<path d="M41.03,46h-1.69c-1.05,0-1.9-0.77-1.9-1.71V41.6l0,0c0-0.43,0.35-0.77,0.77-0.77c0.43,0,0.77,0.34,0.77,0.77v2.68
	c0,0.03,0.12,0.17,0.36,0.17h1.69c0.24,0,0.36-0.13,0.36-0.17V41.6h0c0-0.43,0.35-0.77,0.77-0.77s0.77,0.34,0.77,0.77v2.68
	C42.93,45.23,42.08,46,41.03,46L41.03,46z"/>
<path d="M24.64,46h-1.69c-1.05,0-1.9-0.77-1.9-1.71V41.6v0c0-0.43,0.35-0.77,0.77-0.77c0.43,0,0.77,0.34,0.77,0.77v2.68
	c0,0.03,0.12,0.17,0.36,0.17h1.69c0.24,0,0.36-0.13,0.36-0.17V41.6c0-0.43,0.35-0.77,0.77-0.77c0.43,0,0.77,0.34,0.77,0.77v2.68
	C26.55,45.23,25.69,46,24.64,46L24.64,46z"/>
<path d="M43.21,34.43H20.77c-0.26,0-0.51-0.13-0.65-0.36c-0.14-0.22-0.16-0.5-0.05-0.74l2.84-6.14c0.62-1.33,2.23-2.12,4.31-2.12
	h9.53c2.08,0,3.69,0.79,4.31,2.12l2.85,6.13h0c0.11,0.24,0.09,0.52-0.05,0.74C43.72,34.3,43.48,34.43,43.21,34.43L43.21,34.43z
	 M21.98,32.88H42l-2.34-5.03c-0.27-0.59-1.18-1.22-2.9-1.22l-9.53,0c-1.72,0-2.63,0.63-2.91,1.22L21.98,32.88z"/>
<path d="M20.77,34.43c-0.06,0-0.12-0.01-0.18-0.02l-1.2-0.28v0c-0.42-0.1-0.68-0.52-0.58-0.93c0.1-0.42,0.52-0.67,0.93-0.57
	l1.2,0.28v0c0.38,0.09,0.64,0.45,0.59,0.84C21.49,34.14,21.16,34.43,20.77,34.43L20.77,34.43z"/>
<path d="M46.84,34.15h-2.44c-0.43,0-0.77-0.35-0.77-0.78v-2.76c0-0.43,0.35-0.77,0.77-0.77h3.82c0.2,0,0.4,0.08,0.55,0.23
	c0.14,0.15,0.23,0.34,0.23,0.55v1.38C49,33.18,48.03,34.15,46.84,34.15L46.84,34.15z M45.18,32.6h1.66c0.33,0,0.61-0.27,0.61-0.61
	v-0.61h-2.27L45.18,32.6z"/>
<path d="M43.21,34.43c-0.39,0-0.72-0.3-0.77-0.69c-0.05-0.39,0.21-0.75,0.59-0.84l1.2-0.28v0c0.42-0.1,0.83,0.16,0.93,0.57
	c0.1,0.42-0.16,0.83-0.58,0.93l-1.2,0.28v0C43.33,34.43,43.27,34.43,43.21,34.43L43.21,34.43z"/>
<path d="M35.27,40.03H28.7c-2.12,0-3.84-1.56-3.84-3.49V36v0c0-0.43,0.35-0.77,0.77-0.77h12.7c0.2,0,0.4,0.08,0.55,0.23
	c0.14,0.14,0.23,0.34,0.23,0.55v0.53C39.11,38.46,37.39,40.03,35.27,40.03L35.27,40.03z M26.43,36.78c0.14,0.96,1.11,1.7,2.27,1.7
	h6.57c1.17,0,2.13-0.74,2.27-1.7H26.43z"/>
<path d="M39.5,34.43c-0.43,0-0.77-0.35-0.77-0.77c0-1.37-0.85-2.54-1.86-2.54c-1.01,0-1.86,1.16-1.86,2.54
	c0,0.43-0.35,0.77-0.78,0.77c-0.43,0-0.77-0.35-0.77-0.77c0-2.25,1.53-4.08,3.41-4.08c1.88,0,3.41,1.83,3.41,4.08
	c0,0.2-0.08,0.4-0.23,0.55C39.9,34.35,39.7,34.43,39.5,34.43L39.5,34.43z"/>
<path d="M19.57,34.15h-2.44c-1.19,0-2.15-0.97-2.16-2.16v-1.38c0-0.43,0.35-0.77,0.77-0.77h3.82c0.2,0,0.4,0.08,0.55,0.23
	c0.14,0.14,0.23,0.34,0.23,0.55v2.76c0,0.21-0.08,0.4-0.23,0.55C19.97,34.07,19.77,34.15,19.57,34.15L19.57,34.15z M16.53,31.39
	v0.61h0c0,0.33,0.27,0.6,0.61,0.61h1.66l0-1.22L16.53,31.39z"/>
</svg>
