<?xml version="1.0" encoding="utf-8"?>
<!-- Generator: Adobe Illustrator 27.2.0, SVG Export Plug-In . SVG Version: 6.00 Build 0)  -->
<svg version="1.1" id="Слой_1" xmlns="http://www.w3.org/2000/svg" xmlns:xlink="http://www.w3.org/1999/xlink" x="0px" y="0px"
	 viewBox="0 0 49 49" style="enable-background:new 0 0 49 49;" xml:space="preserve">
<path d="M45.82,15.42h-0.36v-3.98c0-0.29-0.18-0.58-0.47-0.69l-19.55-7.6c-0.18-0.07-0.36-0.07-0.51,0l-19.55,7.6
	c-0.29,0.11-0.47,0.36-0.47,0.69v3.98H4.55c-0.8,0-1.45,0.65-1.45,1.45v2.9c0,0.8,0.65,1.45,1.45,1.45h0.36v1.09
	c0,1.19,0.98,2.17,2.17,2.17v14.12c-1.19,0-2.17,0.98-2.17,2.17v1.09H4.55c-0.8,0-1.45,0.65-1.45,1.45v3.26
	c0,0.8,0.65,1.45,1.45,1.45h41.27c0.8,0,1.45-0.65,1.45-1.45v-3.26c0-0.8-0.65-1.45-1.45-1.45h-0.36v-1.09
	c0-1.19-0.98-2.17-2.17-2.17V24.47c1.19,0,2.17-0.98,2.17-2.17v-1.09h0.36c0.8,0,1.45-0.65,1.45-1.45v-2.9
	C47.27,16.07,46.62,15.42,45.82,15.42z M6.36,11.94l18.83-7.31l18.83,7.31v3.48H6.36V11.94z M36.41,24.47v14.12
	c-1.19,0-2.17,0.98-2.17,2.17v1.09h-18.1v-1.09c0-1.19-0.98-2.17-2.17-2.17V24.47c1.19,0,2.17-0.98,2.17-2.17v-1.09h18.1v1.09
	C34.24,23.49,35.21,24.47,36.41,24.47z M6.36,22.29v-1.09h8.33v1.09c0,0.4-0.33,0.72-0.72,0.72H7.08
	C6.69,23.02,6.36,22.69,6.36,22.29z M8.53,24.47h3.98v14.12H8.53V24.47z M6.36,40.76c0-0.4,0.33-0.72,0.72-0.72h6.88
	c0.4,0,0.72,0.33,0.72,0.72v1.09H6.36V40.76z M45.82,46.55H4.55v-3.26h41.27V46.55z M44.01,40.76v1.09h-8.33v-1.09
	c0-0.4,0.33-0.72,0.72-0.72h6.88C43.69,40.03,44.01,40.36,44.01,40.76z M41.84,38.59h-3.98V24.47h3.98V38.59z M44.01,22.29
	c0,0.4-0.33,0.72-0.72,0.72h-6.88c-0.4,0-0.72-0.33-0.72-0.72v-1.09h8.33V22.29z M4.55,19.76v-2.9h41.27v2.9H4.55z"/>
<path d="M41.12,12.52H16.14c-0.4,0-0.72,0.33-0.72,0.72s0.33,0.72,0.72,0.72h24.98c0.4,0,0.72-0.33,0.72-0.72
	S41.51,12.52,41.12,12.52z"/>
<path d="M33.62,11.07c0.36,0.14,0.8-0.04,0.94-0.4c0.14-0.36-0.04-0.8-0.4-0.94l-8.73-3.4c-0.18-0.07-0.36-0.07-0.54,0L8.97,12.59
	c-0.36,0.14-0.54,0.58-0.4,0.94C8.68,13.82,8.97,14,9.26,14c0.07,0,0.18,0,0.25-0.04l15.68-6.15L33.62,11.07z"/>
<path d="M20.84,32.43c-0.29,0.29-0.29,0.72,0,1.01c0.29,0.29,0.72,0.29,1.01,0c1.85-1.85,4.82-1.85,6.66,0
	c0.14,0.14,0.33,0.22,0.51,0.22s0.36-0.07,0.51-0.22c0.29-0.29,0.29-0.72,0-1.01C27.14,30.04,23.23,30.04,20.84,32.43z"/>
<path d="M25.19,27.36c-2.5,0-4.89,0.98-6.66,2.75c-0.29,0.29-0.29,0.72,0,1.01c0.14,0.14,0.33,0.22,0.51,0.22s0.36-0.07,0.51-0.22
	c1.52-1.48,3.51-2.32,5.65-2.32s4.13,0.83,5.65,2.32c0.29,0.29,0.72,0.29,1.01,0c0.29-0.29,0.29-0.72,0-1.01
	C30.07,28.34,27.72,27.36,25.19,27.36z"/>
<path d="M16.24,27.83c-0.29,0.29-0.29,0.72,0,1.01s0.72,0.29,1.01,0c4.38-4.38,11.51-4.38,15.86,0c0.14,0.14,0.33,0.22,0.51,0.22
	s0.36-0.07,0.51-0.22c0.29-0.29,0.29-0.72,0-1.01C29.2,22.87,21.17,22.87,16.24,27.83z"/>
<path d="M23.12,34.71c-1.12,1.12-1.12,2.97,0,4.09c0.58,0.58,1.3,0.83,2.06,0.83c0.76,0,1.48-0.29,2.06-0.83
	c1.12-1.12,1.12-2.97,0-4.09C26.09,33.59,24.28,33.59,23.12,34.71z M26.2,37.79c-0.58,0.58-1.48,0.58-2.06,0
	c-0.58-0.58-0.58-1.48,0-2.06c0.33-0.25,0.69-0.4,1.05-0.4c0.36,0,0.72,0.14,1.01,0.43C26.78,36.31,26.78,37.25,26.2,37.79z"/>
</svg>
