<?xml version="1.0" encoding="utf-8"?>
<!-- Generator: Adobe Illustrator 27.2.0, SVG Export Plug-In . SVG Version: 6.00 Build 0)  -->
<svg version="1.1" id="Слой_1" xmlns="http://www.w3.org/2000/svg" xmlns:xlink="http://www.w3.org/1999/xlink" x="0px" y="0px"
	 viewBox="0 0 49 49" style="enable-background:new 0 0 49 49;" xml:space="preserve">
<g>
	<g>
		<g>
			<path d="M46.83,23.13v-0.92c1.11-0.39,1.9-1.45,1.9-2.69v-1.9c0-1.57-1.28-2.85-2.85-2.85h-7.62c-0.52,0-0.95,0.42-0.95,0.95
				s0.42,0.95,0.95,0.95h7.62c0.53,0,0.95,0.43,0.95,0.95v1.9c0,0.53-0.43,0.95-0.95,0.95c-8.88,0-33.12,0-42.77,0
				c-0.53,0-0.95-0.43-0.95-0.95v-1.9c0-0.53,0.43-0.95,0.95-0.95c0.94,0,27.05,0,31.37,0c0.52,0,0.95-0.42,0.95-0.95
				s-0.42-0.95-0.95-0.95c-0.5,0-2.49,0-5.23,0V9.54c0-1.15-0.82-2.11-1.9-2.33V3.36c0-0.36-0.2-0.69-0.52-0.85l-3.8-1.9
				c-0.63-0.31-1.37,0.14-1.37,0.85v5.75c-1.08,0.22-1.9,1.18-1.9,2.33v5.23c-8.12,0-16.55,0-16.64,0c-1.57,0-2.85,1.28-2.85,2.85
				v1.9c0,1.24,0.79,2.29,1.9,2.69v0.92c0,1.41,0.73,2.68,1.9,3.4v20.56H1.21c-0.52,0-0.95,0.42-0.95,0.95
				c0,0.52,0.42,0.95,0.95,0.95c5.88,0,45.64,0,46.57,0c0.52,0,0.95-0.42,0.95-0.95s-0.42-0.95-0.95-0.95h-2.86V26.53
				C46.1,25.81,46.83,24.54,46.83,23.13z M23.55,2.99l1.91,0.95v3.22h-1.91L23.55,2.99L23.55,2.99z M21.64,9.54
				c0-0.26,0.21-0.48,0.48-0.48c0.95,0,3.8,0,4.75,0c0.26,0,0.48,0.21,0.48,0.48v5.23c-1.75,0-3.7,0-5.71,0V9.54z M34.61,22.37h4.22
				v0.76c0,1.16-0.94,2.1-2.1,2.1h-0.01c-1.16,0-2.1-0.94-2.1-2.1V22.37z M28.5,22.37h4.22v0.75c0,1.16-0.95,2.1-2.11,2.1
				c-1.16,0-2.11-0.95-2.11-2.11V22.37z M22.39,22.37h4.22v0.75c0,1.16-0.95,2.11-2.11,2.11s-2.11-0.95-2.11-2.11L22.39,22.37
				L22.39,22.37z M16.28,22.37h4.22v0.75c0,1.16-0.95,2.11-2.11,2.11c-1.16,0-2.11-0.94-2.11-2.11V22.37z M10.17,22.37h4.22v0.76
				c0,1.16-0.94,2.1-2.1,2.1h-0.01c-1.16,0-2.1-0.94-2.1-2.1V22.37z M4.06,23.13v-0.76h4.22v0.76c0,1.16-0.94,2.1-2.1,2.1
				C4.76,25.1,4.06,24.2,4.06,23.13z M43.04,47.09H24.02V33.78c0-2.09-1.7-3.8-3.8-3.8h-8.55c-2.09,0-3.8,1.7-3.8,3.8v5.7
				c0,0.52,0.42,0.95,0.95,0.95c0.52,0,0.95-0.42,0.95-0.95v-5.7c0-1.05,0.85-1.9,1.9-1.9h8.55c1.05,0,1.9,0.85,1.9,1.9v13.31H9.76
				v-3.82c0-0.52-0.42-0.95-0.95-0.95s-0.95,0.42-0.95,0.95v3.82H5.96V27.12c1.29,0.06,2.47-0.48,3.26-1.41
				c1.6,1.89,4.51,1.89,6.11,0c1.61,1.9,4.51,1.89,6.11,0c1.6,1.89,4.51,1.9,6.11,0c1.6,1.9,4.51,1.89,6.11,0
				c1.6,1.89,4.51,1.89,6.11,0c0.79,0.93,1.97,1.48,3.26,1.41V47.09z M42.84,25.23h-0.01c-1.16,0-2.1-0.94-2.1-2.1v-0.76h4.22v0.76
				C44.94,24.31,43.99,25.23,42.84,25.23z"/>
			<path d="M19.27,40.43c0.52,0,0.95-0.42,0.95-0.95c0-0.53-0.43-0.95-0.95-0.95c-0.52,0-0.95,0.42-0.95,0.95
				C18.33,40,18.75,40.43,19.27,40.43z"/>
			<path d="M37.33,29.98h-7.6c-2.09,0-3.8,1.7-3.8,3.8v3.8c0,2.09,1.7,3.8,3.8,3.8h7.6c2.09,0,3.8-1.7,3.8-3.8v-3.8
				C41.13,31.69,39.43,29.98,37.33,29.98z M39.24,37.58c0,1.05-0.85,1.9-1.9,1.9h-7.6c-1.05,0-1.9-0.85-1.9-1.9v-3.8
				c0-1.05,0.85-1.9,1.9-1.9h7.6c1.05,0,1.9,0.85,1.9,1.9L39.24,37.58L39.24,37.58z"/>
		</g>
	</g>
</g>
</svg>
