<?xml version="1.0" encoding="utf-8"?>
<!-- Generator: Adobe Illustrator 27.2.0, SVG Export Plug-In . SVG Version: 6.00 Build 0)  -->
<svg version="1.1" id="Слой_1" xmlns="http://www.w3.org/2000/svg" xmlns:xlink="http://www.w3.org/1999/xlink" x="0px" y="0px"
	 viewBox="0 0 47 28" style="enable-background:new 0 0 47 28;" xml:space="preserve">
<g>
	<path d="M44.05,10.88V5.99c0-1.64-1.33-2.97-2.97-2.97h-0.12c-0.1,0-0.2,0.01-0.3,0.02c-0.34-1.62-1.78-2.85-3.5-2.85H37
		c-1.97,0-3.58,1.61-3.58,3.58v6.91H13.2V3.77c0-1.97-1.61-3.58-3.58-3.58H9.46c-1.72,0-3.16,1.22-3.5,2.85
		c-0.1-0.01-0.2-0.02-0.3-0.02H5.53c-1.64,0-2.97,1.33-2.97,2.97v4.89c-1.31,0.47-2.21,1.7-2.21,3.14s0.9,2.68,2.21,3.14v4.89
		c0,1.64,1.33,2.97,2.97,2.97h0.12c0.1,0,0.2-0.01,0.3-0.02c0.34,1.62,1.78,2.85,3.5,2.85h0.16c1.97,0,3.58-1.61,3.58-3.58v-6.91
		h20.23v6.91c0,1.97,1.61,3.58,3.58,3.58h0.16c1.72,0,3.16-1.22,3.5-2.85c0.1,0.01,0.2,0.02,0.3,0.02h0.12
		c1.64,0,2.97-1.33,2.97-2.97v-4.89c1.31-0.47,2.21-1.7,2.21-3.14S45.36,11.34,44.05,10.88z M2.57,15.49
		c-0.44-0.34-0.73-0.88-0.73-1.47s0.29-1.12,0.73-1.47V15.49z M5.88,23.51c-0.07,0.01-0.15,0.03-0.22,0.03H5.53
		c-0.82,0-1.48-0.67-1.48-1.48v-5.47v-0.64v-3.87v-0.64V5.99c0-0.82,0.67-1.48,1.48-1.48h0.12c0.07,0,0.15,0.01,0.22,0.03V23.51z
		 M11.72,11.42v0.74v3.72v0.74v7.65c0,1.16-0.94,2.1-2.1,2.1H9.46c-1.16,0-2.1-0.94-2.1-2.1v-1.4l0,0V5.17l0,0v-1.4
		c0-1.16,0.94-2.1,2.1-2.1h0.16c1.16,0,2.1,0.94,2.1,2.1V11.42z M33.42,15.88H13.2v-3.72h20.23V15.88z M39.26,5.17v17.7v1.4
		c0,1.16-0.94,2.1-2.1,2.1H37c-1.16,0-2.1-0.94-2.1-2.1v-7.65v-0.74v-3.72v-0.74V3.77c0-1.16,0.94-2.1,2.1-2.1h0.16
		c1.16,0,2.1,0.94,2.1,2.1V5.17z M42.57,11.45v0.64v3.87v0.64v5.46c0,0.82-0.67,1.48-1.48,1.48h-0.12c-0.07,0-0.15-0.01-0.22-0.03
		V4.53c0.07-0.01,0.15-0.03,0.22-0.03h0.12c0.82,0,1.48,0.67,1.48,1.48V11.45z M44.05,15.49v-2.93c0.44,0.34,0.73,0.88,0.73,1.47
		S44.49,15.14,44.05,15.49z"/>
</g>
</svg>
