<?xml version="1.0" encoding="utf-8"?>
<!-- Generator: Adobe Illustrator 27.2.0, SVG Export Plug-In . SVG Version: 6.00 Build 0)  -->
<svg version="1.1" id="Слой_1" xmlns="http://www.w3.org/2000/svg" xmlns:xlink="http://www.w3.org/1999/xlink" x="0px" y="0px"
	 viewBox="0 0 50 41" style="enable-background:new 0 0 50 41;" xml:space="preserve">
<g>
	<path d="M48.9,39.07h-0.92V16.06V13.3h0.92c0.52,0,0.92-0.4,0.92-0.92s-0.4-0.92-0.92-0.92h-1.84c-0.52,0-0.92,0.4-0.92,0.92v2.76
		h-7.36v-2.76c0-0.52-0.4-0.92-0.92-0.92h-1.84c-0.52,0-0.92,0.4-0.92,0.92s0.4,0.92,0.92,0.92h0.92v2.1
		c-5.89,2.08-12.52,2.08-18.41,0v-2.1h0.92c0.35,0,0.68-0.2,0.83-0.53s0.11-0.7-0.13-0.98l-9.2-11.04c-0.35-0.42-1.07-0.42-1.42,0
		l-9.2,11.04c-0.22,0.28-0.28,0.66-0.13,0.98c0.17,0.33,0.5,0.53,0.85,0.53h0.92v14.73v11.04H1.04c-0.52,0-0.92,0.4-0.92,0.92
		s0.4,0.92,0.92,0.92h3.68c0.52,0,0.92-0.4,0.92-0.92s-0.4-0.92-0.92-0.92H3.81V28.94h2.76h7.36h2.76v10.12h-0.92
		c-0.52,0-0.92,0.4-0.92,0.92s0.4,0.92,0.92,0.92h3.68c0.52,0,0.92-0.4,0.92-0.92s-0.4-0.92-0.92-0.92h-0.92V28.94h18.41v10.12
		h-0.92c-0.52,0-0.92,0.4-0.92,0.92s0.4,0.92,0.92,0.92h1.84h9.2h1.84c0.52,0,0.92-0.4,0.92-0.92S49.42,39.07,48.9,39.07z
		 M38.78,22.5h7.36v4.6h-7.36V22.5z M46.14,20.66h-7.36v-3.68h7.36V20.66z M10.25,2.77l7.23,8.69H3.01L10.25,2.77z M7.49,27.1v-3.68
		c0-1.53,1.23-2.76,2.76-2.76c0.74,0,1.44,0.29,1.95,0.83c0.52,0.5,0.81,1.2,0.81,1.93v3.68H7.49z M14.85,27.1v-3.68
		c0-1.25-0.48-2.39-1.34-3.24c-0.87-0.88-2.01-1.36-3.26-1.36c-2.54,0-4.6,2.06-4.6,4.6v3.68H3.81V13.3h12.89V27.1H14.85z
		 M18.53,27.1v-9.77c2.96,0.98,6.04,1.49,9.2,1.49s6.24-0.52,9.2-1.49v9.77H18.53z M46.14,28.94v4.6h-7.36v-4.6H46.14z M38.78,39.07
		v-3.68h7.36v3.68H38.78z"/>
</g>
</svg>
