<?xml version="1.0" encoding="utf-8"?>
<!-- Generator: Adobe Illustrator 27.2.0, SVG Export Plug-In . SVG Version: 6.00 Build 0)  -->
<svg version="1.1" id="Слой_1" xmlns="http://www.w3.org/2000/svg" xmlns:xlink="http://www.w3.org/1999/xlink" x="0px" y="0px"
	 viewBox="0 0 90 65" style="enable-background:new 0 0 90 65;" xml:space="preserve">
<style type="text/css">
	.st0{fill:#D5AE6C;}
</style>
<g>
	<path class="st0" d="M88.39,58.57c-1.12,0-2.24,0.09-3.34,0.27l4.82-15.88c0.24-0.78-0.15-1.62-0.9-1.94l-5.58-2.44l-4.64-20.56
		c-0.17-0.74-0.85-1.26-1.61-1.24h-4.82v-4.82c0-0.89-0.72-1.61-1.61-1.61H67.5V2.32c0-0.89-0.72-1.61-1.61-1.61h-6.43
		c-0.89,0-1.61,0.72-1.61,1.61v8.04h-3.21c-0.89,0-1.61,0.72-1.61,1.61v4.82h-4.82c-0.76-0.02-1.43,0.5-1.61,1.24l-4.82,20.56
		l-5.46,2.44c-0.78,0.3-1.2,1.14-0.96,1.94l5.66,18.37c-0.91-0.27-1.81-0.61-2.67-1.01c-2.43-1.2-5.1-1.8-7.81-1.75
		c-0.56,0-1.09,0-1.61,0v-9.64h1.61c0.89,0,1.61-0.72,1.61-1.61v-6.43c0-0.89-0.72-1.61-1.61-1.61H1.61C0.72,39.28,0,40,0,40.89
		s0.72,1.61,1.61,1.61h27.32v3.21H1.61C0.72,45.71,0,46.43,0,47.32c0,0.89,0.72,1.61,1.61,1.61h24.11v10.24
		c-1.05,0.3-2.08,0.69-3.07,1.16c-2.04,1.02-4.3,1.53-6.57,1.46c-2.28,0.06-4.55-0.44-6.59-1.46c-2.45-1.21-5.15-1.81-7.87-1.75
		C0.72,58.57,0,59.29,0,60.17s0.72,1.61,1.61,1.61c2.28-0.07,4.54,0.44,6.57,1.46c2.45,1.21,5.16,1.81,7.89,1.75
		c2.73,0.06,5.43-0.54,7.88-1.75c2.04-1.03,4.31-1.53,6.59-1.46c2.28-0.06,4.55,0.44,6.59,1.46c2.45,1.21,5.15,1.81,7.88,1.75
		c2.73,0.06,5.44-0.54,7.89-1.75c2.04-1.03,4.29-1.53,6.57-1.46c2.28-0.06,4.55,0.44,6.59,1.46c5,2.34,10.77,2.34,15.77,0
		c2.04-1.02,4.3-1.52,6.57-1.46c0.89,0,1.61-0.72,1.61-1.61S89.28,58.57,88.39,58.57z M61.07,3.92h3.21v6.43h-3.21V3.92z
		 M56.25,13.57h12.86v3.21H56.25V13.57z M49.5,20h26.36l3.92,16.97l-3.1-1.35l-2.8-11.25c-0.2-0.69-0.84-1.16-1.56-1.16H53.04
		c-0.76-0.02-1.43,0.49-1.61,1.22l-2.8,11.25l-3.1,1.35L49.5,20z M52.39,33.99l1.9-7.57h1.96v5.88L52.39,33.99z M59.46,26.42h6.43
		v4.47l-2.57-1.13c-0.41-0.18-0.88-0.18-1.29,0l-2.57,1.13L59.46,26.42z M69.11,26.42h1.96l1.9,7.57l-3.86-1.69V26.42z M62.68,33
		l23.75,10.4l-1,3.21l-22.16-8.82c-0.38-0.15-0.81-0.15-1.19,0l-22.16,8.87l-1-3.21L62.68,33z M51.57,60.32
		c-2.04,1.02-4.3,1.52-6.57,1.46h-0.4l-3.71-12.02l20.2-8.04v16.84c-0.51,0-1.04,0-1.61,0C56.74,58.5,54.03,59.1,51.57,60.32z
		 M73.93,61.78c-2.28,0.07-4.55-0.44-6.59-1.46c-0.99-0.46-2.01-0.85-3.05-1.16v-17.5l20.2,8.04L81.27,59.9l-0.84,0.37
		C78.43,61.3,76.19,61.82,73.93,61.78z"/>
</g>
</svg>
