<?xml version="1.0" encoding="utf-8"?>
<!-- Generator: Adobe Illustrator 27.2.0, SVG Export Plug-In . SVG Version: 6.00 Build 0)  -->
<svg version="1.1" id="Слой_1" xmlns="http://www.w3.org/2000/svg" xmlns:xlink="http://www.w3.org/1999/xlink" x="0px" y="0px"
	 viewBox="0 0 75 75" style="enable-background:new 0 0 75 75;" xml:space="preserve">
<style type="text/css">
	.st0{fill:#D5AE6C;}
</style>
<path class="st0" d="M69.74,22.05c3.14-2.7,5.03-6.56,5.24-10.7c0.36-5.88-4.11-10.94-9.99-11.3c-0.44-0.03-0.88-0.03-1.32,0
	c-4.14,0.21-8.01,2.1-10.71,5.25l-6.61,7.62l-8.89-2.71c1.3-2.04,1-4.71-0.71-6.42l-1.28-1.28c-2.05-1.96-5.27-1.96-7.32,0
	l-3.73,3.73l-7.92-2.41c-0.55-0.17-1.15-0.02-1.56,0.39L9.08,10.1c-0.61,0.61-0.61,1.6,0,2.21c0.1,0.1,0.21,0.18,0.32,0.25
	l24.85,14.3L19.81,43.51L6.93,41.29c-0.5-0.09-1.01,0.08-1.37,0.44l-5.11,5.11c-0.61,0.61-0.6,1.6,0.01,2.21
	c0.12,0.12,0.26,0.22,0.41,0.29l16.63,8.19l8.19,16.63c0.38,0.77,1.32,1.09,2.09,0.71c0.15-0.07,0.29-0.17,0.41-0.29l5.11-5.11
	c0.36-0.36,0.52-0.87,0.44-1.37l-2.23-12.88l16.65-14.44l14.3,24.85c0.24,0.42,0.67,0.71,1.15,0.77c0.07,0.01,0.14,0.01,0.2,0.01
	c0.41,0,0.81-0.16,1.1-0.46l5.87-5.87c0.41-0.41,0.56-1.01,0.39-1.56l-2.41-7.92l3.73-3.73c2.02-2.02,2.02-5.3,0-7.32c0,0,0,0,0,0
	l-1.28-1.28c-1.73-1.65-4.36-1.93-6.4-0.7l-2.71-8.9L69.74,22.05z M30.37,4.73c0.81-0.78,2.09-0.78,2.9,0l1.28,1.28
	c0.8,0.8,0.8,2.1,0,2.9l-0.32,0.32l-6.4-1.95L30.37,4.73z M12.74,10.88l3.77-3.77l27.61,8.4l-7.77,8.96L12.74,10.88z M28.28,54.88
	l2.24,12.95l-2.99,2.99l-7.46-15.15c-0.15-0.31-0.4-0.56-0.71-0.71L4.21,47.49L7.2,44.5l12.95,2.24c0.54,0.09,1.09-0.1,1.45-0.52
	L55.32,7.36c2.12-2.49,5.18-4.01,8.45-4.19c4.16-0.31,7.78,2.81,8.09,6.96c0.03,0.37,0.03,0.75,0,1.12
	c-0.18,3.26-1.69,6.31-4.17,8.44L28.8,53.43C28.39,53.79,28.19,54.34,28.28,54.88z M66.13,40.48c0.81-0.78,2.09-0.78,2.9,0
	l1.27,1.28c0.8,0.8,0.8,2.1,0,2.9l-2.55,2.55l-1.95-6.4L66.13,40.48z M67.92,58.52l-3.77,3.77L50.57,38.68l8.96-7.77L67.92,58.52z"
	/>
</svg>
