<?xml version="1.0" encoding="utf-8"?>
<!-- Generator: Adobe Illustrator 27.2.0, SVG Export Plug-In . SVG Version: 6.00 Build 0)  -->
<svg version="1.1" id="Слой_1" xmlns="http://www.w3.org/2000/svg" xmlns:xlink="http://www.w3.org/1999/xlink" x="0px" y="0px"
	 viewBox="0 0 122 71" style="enable-background:new 0 0 122 71;" xml:space="preserve">
<style type="text/css">
	.st0{fill:none;stroke:#D5AE6C;stroke-width:3;stroke-miterlimit:10;}
</style>
<path class="st0" d="M54.06,17.85c0,0-5.71-2.35-10.41,6.21S40.56,38.53,28.03,48.8S4.18,65.58,4.18,65.58s-4.31,2.82,0,3.81
	c2.32-0.44,74.82-0.22,74.82-0.22s-2.37-14.74-39.37-7.84c-5.58,0.99-6.32,1.93-7.87,0.39c-2.1-1.65,4.72-9.17,13.15-23.89
	C51.12,28.64,56.44,19.82,54.06,17.85z"/>
<g>
	<path class="st0" d="M88.73,44L73.91,31.13L39.19,47.25l-3.97,6.13c0,0,27.05-15.13,55.1-9.06s29.65,17.61,29.65,17.61
		s3.2,7.07-5.63,7.01s-35.34,0.22-35.34,0.22"/>
	<path class="st0" d="M60.06,13.52c0,0-7.07,2.54-5.19-5.3S65.8,1.48,65.8,1.48S78.5,3.58,78.5,4.96S60.06,13.52,60.06,13.52z"/>
</g>
</svg>
