<?xml version="1.0" encoding="utf-8"?>
<!-- Generator: Adobe Illustrator 27.2.0, SVG Export Plug-In . SVG Version: 6.00 Build 0)  -->
<svg version="1.1" id="Слой_1" xmlns="http://www.w3.org/2000/svg" xmlns:xlink="http://www.w3.org/1999/xlink" x="0px" y="0px"
	 viewBox="0 0 108 73" style="enable-background:new 0 0 108 73;" xml:space="preserve">
<style type="text/css">
	.st0{fill-rule:evenodd;clip-rule:evenodd;fill:#D5AE6C;}
</style>
<g transform="matrix(0.0492748,2.90514e-18,-2.90514e-18,0.0492748,-347.723,-162)">
	<path class="st0" d="M8053.01,4200.67c-48.65-23.35-102.4-35.84-157.55-35.84h-804.53c-16.47,0-29.82-13.35-29.82-29.82
		s13.35-29.82,29.82-29.82h804.53c102.1,0,200.12,36.86,276.56,102.73c13.5,11.62,26.35,24.16,38.41,37.58l133.35,148.21
		c45.06,50.06,56.44,121.98,29.01,183.5c-27.01,60.66-86.77,100.06-153,101.14v17.72c0,2.99-0.18,5.93-0.54,8.8h420.45
		c0,0,0-489.86,0-489.89c-6.32-153.68-142.07-219.85-259.76-202.94c-77.25,11.11-147.64,58.14-167.01,142.07
		c-3.71,16.05-19.73,26.05-35.75,22.34c-16.05-3.68-26.05-19.7-22.37-35.75c25.33-109.67,115.66-173.15,216.62-187.67
		c149.49-21.47,320.27,64.76,327.88,260.24c0,0.39,0.03,0.75,0.03,1.14v490.45h71.2v-490.45c0-66.5,53.89-120.39,120.39-120.39
		c66.53,0,120.42,53.89,120.42,120.39v490.45h105.21v-753.99c-0.09-0.87-0.12-1.77-0.12-2.66c0-1.71,0-3.44,0-5.15
		c-0.03-0.39-0.03-0.81-0.03-1.2l0.03-0.36l0.09,0.06c-4.1-327.25-313.9-589.62-692.55-589.62c-378.72,0-688.57,262.46-692.55,589.8
		c-0.03,2.1-0.03,4.22-0.03,6.35v100.81c0,16.44-13.35,29.79-29.82,29.79c-16.44,0-29.82-13.35-29.82-29.79v-100.69h-0.09v-5.48
		c0-0.42,0-0.84,0-1.23c0-0.12,0.03-0.24,0.03-0.36l0.12,0.09c0-0.06,0-0.15,0-0.21c4.34-357.43,338.63-648.69,752.16-648.69
		c413.51,0,747.82,291.26,752.17,648.69c0.03,2.33,0.03,4.7,0.03,7.07v756.77h42.55c16.47,0,29.82,13.35,29.82,29.82
		c0,16.44-13.36,29.79-29.82,29.79H7090.94c-16.47,0-29.82-13.35-29.82-29.79c0-16.47,13.35-29.82,29.82-29.82h203.54
		c-0.36-2.87-0.57-5.81-0.57-8.8v-17.69h-202.97c-16.47,0-29.82-13.35-29.82-29.82s13.35-29.82,29.82-29.82H8217
		c43.83,0,83.53-25.78,101.35-65.81c17.85-40,10.45-86.77-18.86-119.34l-28.35-31.5h-220.72c-42.1,0-80.84-22.96-101.05-59.91
		l-25.78-47.1c-10.81-19.76-10.39-43.77,1.11-63.14c11.5-19.37,32.34-31.26,54.85-31.26H8053.01z M8217.47,4342.44l-51.35-57.07
		c-7.93-8.8-16.23-17.16-24.88-25.06h-161.71c-1.47,0-2.81,0.75-3.56,2.04c-0.75,1.26-0.78,2.81-0.09,4.1l25.78,47.1
		c9.76,17.81,28.44,28.89,48.74,28.89H8217.47z M8151.4,4704.87c4.85,0,8.8-3.92,8.8-8.8v-17.69h-47.9v17.69
		c0,4.88,3.92,8.8,8.77,8.8H8151.4z M8951.76,4704.87v-490.45c0-33.56-27.22-60.78-60.81-60.78c-33.56,0-60.78,27.22-60.78,60.78
		v490.45H8951.76z M7966.33,4704.87h86.89c-0.36-2.87-0.54-5.81-0.54-8.8v-17.69h-85.78v17.69
		C7966.9,4699.06,7966.72,4702,7966.33,4704.87z M7868.16,4704.87h30.33c4.85,0,8.77-3.92,8.77-8.8v-17.69h-47.87v17.69
		C7859.39,4700.95,7863.31,4704.87,7868.16,4704.87z M7713.43,4704.87h86.89c-0.36-2.87-0.57-5.81-0.57-8.8v-17.69H7714v17.69
		C7714,4699.06,7713.79,4702,7713.43,4704.87z M7615.25,4704.87h30.33c4.85,0,8.77-3.92,8.77-8.8v-17.69h-47.9v17.69
		C7606.45,4700.95,7610.4,4704.87,7615.25,4704.87z M7460.52,4704.87h86.86c-0.36-2.87-0.54-5.81-0.54-8.8v-17.69h-85.78v17.69
		C7461.06,4699.06,7460.88,4702,7460.52,4704.87z M7362.32,4704.87h30.33c4.85,0,8.8-3.92,8.8-8.8v-17.69h-47.9v17.69
		C7353.54,4700.95,7357.47,4704.87,7362.32,4704.87z M7090.94,4260.32c-16.47,0-29.82-13.38-29.82-29.82
		c0-16.47,13.35-29.82,29.82-29.82h665.19c36.41,0,69.94,19.88,87.4,51.83l17.81,32.52c13.38,24.52,12.87,54.28-1.38,78.29
		c-14.22,24.01-40.09,38.77-68.03,38.77h-701c-16.47,0-29.82-13.35-29.82-29.82s13.35-29.82,29.82-29.82h701
		c6.89,0,13.23-3.62,16.74-9.52c3.53-5.93,3.65-13.26,0.33-19.28l-17.78-32.52c-7.01-12.84-20.48-20.81-35.09-20.81H7090.94z
		 M7944.06,3884.41c-35.54,0-68.83-17.54-88.92-46.86c-20.09-29.34-24.43-66.74-11.59-99.91
		c70.09-179.55,302.61-314.97,580.45-314.97c277.85,0,510.37,135.45,580.25,315.09c12.81,33.08,8.47,70.39-11.59,99.64
		c-20.06,29.28-53.23,46.77-88.68,46.77C8689.1,3884.41,8158.94,3884.41,7944.06,3884.41z M7944.06,3824.8
		c214.85,0,745.01,0,959.86-0.24c15.81,0,30.63-7.81,39.55-20.84c8.95-13.05,10.87-29.67,5.18-44.4
		c-62.82-161.41-274.97-277.01-524.65-277.01c-249.67,0-461.86,115.6-524.89,276.95c-5.72,14.79-3.77,31.47,5.21,44.58
		C7913.31,3816.96,7928.16,3824.8,7944.06,3824.8z"/>
</g>
</svg>
