<?xml version="1.0" encoding="utf-8"?>
<!-- Generator: Adobe Illustrator 27.2.0, SVG Export Plug-In . SVG Version: 6.00 Build 0)  -->
<svg version="1.1" id="Слой_1" xmlns="http://www.w3.org/2000/svg" xmlns:xlink="http://www.w3.org/1999/xlink" x="0px" y="0px"
	 viewBox="0 0 112 105" style="enable-background:new 0 0 112 105;" xml:space="preserve">
<style type="text/css">
	.st0{fill:#D5AE6C;}
</style>
<g>
	<g>
		<path class="st0" d="M51.6,0.61L35.21,3.89V2.25c0-0.48-0.21-0.94-0.57-1.25c-0.36-0.32-0.83-0.46-1.31-0.41L19.96,2.27
			c-0.84,0.1-1.46,0.81-1.46,1.66v3.31L1.45,10.64c-0.91,0.18-1.49,1.06-1.31,1.97C0.3,13.4,1,13.95,1.78,13.95
			c0.11,0,0.22-0.01,0.33-0.03l16.39-3.28v1.64c0,0.48,0.21,0.94,0.57,1.25c0.31,0.27,0.7,0.42,1.11,0.42c0.07,0,0.14,0,0.21-0.01
			l4.81-0.6v7.3H6.8c-0.56,0-1.08,0.28-1.39,0.74c-0.15,0.22-3.62,5.53-3.62,14.3s3.48,14.08,3.62,14.3
			c0.31,0.47,0.83,0.74,1.39,0.74h40.12c0.57,0,1.1-0.29,1.41-0.77c0.15-0.23,3.61-5.74,3.61-14.27s-3.46-14.04-3.61-14.27
			c-0.31-0.48-0.84-0.77-1.41-0.77H28.53v-7.72l5.22-0.65c0.84-0.1,1.46-0.81,1.46-1.66V7.3l17.04-3.41
			c0.91-0.18,1.49-1.06,1.31-1.97C53.39,1.02,52.51,0.43,51.6,0.61z M20.17,39.02V23.98h13.37v15.04H20.17z M7.77,23.98h9.06v15.04
			H5.34c-0.12-1.05-0.21-2.15-0.21-3.34C5.13,29.75,6.93,25.6,7.77,23.98z M45.93,47.38H7.77c-0.47-0.91-1.24-2.64-1.83-5.01h41.81
			C47.16,44.71,46.4,46.45,45.93,47.38z M48.58,35.68c0,1.19-0.09,2.29-0.22,3.34H36.88V23.98h9.04
			C46.77,25.65,48.58,29.9,48.58,35.68z M31.87,9.13l-10.03,1.25V5.4l10.03-1.25V9.13z"/>
		<path class="st0" d="M110.38,101.3h-3.75l-32.8-56.88c-0.99-1.77-2.87-2.87-4.86-2.87c-1.99,0-3.87,1.1-4.86,2.87L56.37,57.9
			c-1.1-1.22-2.54-1.88-4.2-1.88c-2.1,0-3.87,1.1-4.86,2.87l-9.61,16.57L22.58,101.3h-3.31c-0.88,0-1.66,0.77-1.66,1.66
			c0,0.88,0.77,1.66,1.66,1.66h91.11c0.88,0,1.66-0.77,1.66-1.66C112.03,102.07,111.26,101.3,110.38,101.3L110.38,101.3z
			 M58.91,59.89l7.95-13.8c0.44-0.77,1.22-1.22,1.99-1.22c0.77,0,1.66,0.44,1.99,1.22l31.91,55.22H81.44L58.91,62.32
			C58.47,61.54,58.47,60.66,58.91,59.89L58.91,59.89z M49.97,60.55c0.44-0.77,1.22-1.22,1.99-1.22c0.88,0,1.66,0.44,1.99,1.22
			l6.74,11.71c-2.87-0.66-6.29-0.22-9.61,2.76c-3.87,3.53-8.06,1.88-9.94,0.77L49.97,60.55z M39.58,78.66
			c1.66,0.99,3.98,1.88,6.41,1.88c2.43,0,4.97-0.77,7.4-2.98c4.75-4.31,9.28-0.99,10.27-0.11l13.03,22.64l0.77,1.32l-51.02,0
			L39.58,78.66z M82.77,86.72c-0.55,0-1.1-0.33-1.44-0.88l-8.72-15.79c-0.44-0.77-0.11-1.77,0.66-2.21
			c0.77-0.44,1.77-0.11,2.21,0.66l8.72,15.68c0.44,0.77,0.11,1.77-0.66,2.21C83.32,86.61,82.99,86.72,82.77,86.72L82.77,86.72z"/>
	</g>
</g>
</svg>
