<?xml version="1.0" encoding="utf-8"?>
<!-- Generator: Adobe Illustrator 27.2.0, SVG Export Plug-In . SVG Version: 6.00 Build 0)  -->
<svg version="1.1" id="Слой_1" xmlns="http://www.w3.org/2000/svg" xmlns:xlink="http://www.w3.org/1999/xlink" x="0px" y="0px"
	 viewBox="0 0 26 33" style="enable-background:new 0 0 26 33;" xml:space="preserve">
<g>
	<path d="M13.18,11.64c1.69,0,3.3,0.4,4.71,1.11L23.25,2.6c0.06-0.12,0.09-0.24,0.09-0.35c0-0.11-0.04-0.23-0.11-0.34
		c-0.06-0.1-0.14-0.18-0.23-0.24l-0.02-0.01c-0.1-0.06-0.22-0.09-0.35-0.09h-4.28c-0.14,0-0.26,0.03-0.36,0.09
		c-0.1,0.06-0.19,0.16-0.25,0.28l-5.12,9.7C12.8,11.64,12.99,11.64,13.18,11.64L13.18,11.64z M12.4,9.08L8.63,1.95
		C8.57,1.83,8.48,1.73,8.38,1.67c-0.1-0.06-0.23-0.09-0.36-0.09H3.73c-0.13,0-0.25,0.03-0.35,0.09L3.36,1.68
		C3.27,1.73,3.19,1.81,3.13,1.92c-0.07,0.11-0.1,0.23-0.11,0.34c0,0.11,0.03,0.23,0.09,0.35l5.35,10.15
		c0.77-0.39,1.59-0.68,2.46-0.87L12.4,9.08L12.4,9.08z M7.27,13.45L1.89,3.25C1.71,2.92,1.63,2.57,1.64,2.22
		c0.01-0.35,0.11-0.7,0.3-1.02c0.18-0.3,0.43-0.54,0.71-0.72l0.05-0.03c0.31-0.17,0.65-0.26,1.03-0.26h4.28
		c0.39,0,0.76,0.1,1.08,0.3C9.41,0.68,9.67,0.95,9.86,1.3l3.32,6.3l3.32-6.3c0.18-0.35,0.45-0.63,0.76-0.82
		c0.32-0.19,0.69-0.3,1.08-0.3h4.28c0.37,0,0.72,0.09,1.03,0.26l0.05,0.03c0.29,0.17,0.53,0.41,0.71,0.72
		c0.19,0.32,0.29,0.66,0.3,1.02c0.01,0.35-0.07,0.7-0.24,1.03l-5.38,10.2c0.55,0.38,1.07,0.8,1.54,1.27l0.04,0.04
		c1.88,1.9,3.05,4.52,3.05,7.41c0,2.91-1.18,5.54-3.09,7.45c-1.91,1.91-4.54,3.09-7.45,3.09c-2.91,0-5.54-1.18-7.45-3.09
		c-1.91-1.91-3.09-4.54-3.09-7.45c0-2.91,1.18-5.54,3.09-7.45C6.2,14.26,6.72,13.83,7.27,13.45L7.27,13.45z M13.81,15.83l1.56,3.32
		l3.65,0.46c0.38,0.05,0.65,0.39,0.6,0.77c-0.02,0.18-0.11,0.34-0.25,0.45l-2.65,2.49l0.69,3.61c0.07,0.38-0.17,0.74-0.55,0.81
		c-0.17,0.03-0.33,0-0.47-0.08l-3.22-1.77l-3.22,1.77c-0.34,0.18-0.76,0.06-0.94-0.27c-0.08-0.15-0.1-0.31-0.07-0.46l0.69-3.61
		l-2.68-2.52c-0.28-0.26-0.29-0.7-0.03-0.98c0.12-0.12,0.27-0.19,0.42-0.21l3.65-0.46l1.56-3.32c0.16-0.35,0.57-0.5,0.92-0.33
		C13.63,15.57,13.74,15.69,13.81,15.83L13.81,15.83z M14.28,20.09l-1.1-2.34l-1.08,2.29c-0.09,0.24-0.3,0.41-0.57,0.45l-2.56,0.32
		l1.87,1.75c0.18,0.16,0.27,0.4,0.23,0.65l-0.49,2.54l2.26-1.25c0.2-0.11,0.45-0.12,0.67,0l2.26,1.25l-0.49-2.54
		c-0.04-0.22,0.03-0.47,0.21-0.63l1.88-1.77l-2.56-0.32C14.59,20.46,14.38,20.32,14.28,20.09L14.28,20.09z M19.65,15.71
		c-1.66-1.66-3.94-2.68-6.47-2.68c-2.53,0-4.82,1.02-6.47,2.68c-1.65,1.66-2.68,3.94-2.68,6.47s1.02,4.82,2.68,6.47
		c1.66,1.65,3.94,2.68,6.47,2.68c2.53,0,4.81-1.02,6.47-2.68c1.66-1.65,2.68-3.94,2.68-6.47c0-2.51-1.01-4.78-2.64-6.44L19.65,15.71
		L19.65,15.71z"/>
</g>
</svg>
