<?xml version="1.0" encoding="utf-8"?>
<!-- Generator: Adobe Illustrator 27.2.0, SVG Export Plug-In . SVG Version: 6.00 Build 0)  -->
<svg version="1.1" id="Слой_1" xmlns="http://www.w3.org/2000/svg" xmlns:xlink="http://www.w3.org/1999/xlink" x="0px" y="0px"
	 viewBox="0 0 33 30" style="enable-background:new 0 0 33 30;" xml:space="preserve">
<style type="text/css">
	.st0{fill:#FFFFFF;}
</style>
<g>
	<path class="st0" d="M29.1,24.4c-1.3,0-2.3-0.3-3.2-0.6c-0.5-0.1-0.9-0.3-1.4-0.4c-0.4-0.1-0.7-0.5-0.6-0.9
		c0.1-0.4,0.5-0.7,0.9-0.6c0.5,0.1,1,0.3,1.5,0.4c1.4,0.4,2.7,0.8,4.9,0.2c0.4-0.1,0.9,0.1,1,0.6c0.1,0.4-0.1,0.9-0.6,1
		C30.7,24.3,29.8,24.4,29.1,24.4L29.1,24.4z"/>
	<path class="st0" d="M20.2,23.8c-0.3,0-0.6-0.2-0.8-0.5c-0.1-0.4,0.1-0.9,0.5-1c0.2-0.1,0.4-0.1,0.7-0.2c0.3-0.1,0.6-0.2,0.9-0.2
		c0.4-0.1,0.8,0.2,0.9,0.6c0.1,0.4-0.2,0.8-0.6,0.9c-0.3,0-0.5,0.1-0.8,0.2c-0.2,0.1-0.4,0.1-0.6,0.2C20.3,23.8,20.2,23.8,20.2,23.8
		L20.2,23.8z"/>
	<path class="st0" d="M9.4,29.7c-1.3,0-2.3-0.3-3.2-0.6c-1.4-0.4-2.6-0.8-4.9-0.2c-0.4,0.1-0.9-0.1-1-0.6c-0.1-0.4,0.1-0.9,0.6-1
		c2.7-0.7,4.3-0.2,5.8,0.2c1.4,0.4,2.6,0.8,4.9,0.2c2.2-0.6,3.1-1.6,4.1-2.6c0.4-0.5,0.9-1,1.5-1.4c0.3-0.3,0.8-0.2,1.1,0.1
		c0.3,0.3,0.2,0.8-0.1,1.1c-0.5,0.4-0.9,0.8-1.3,1.3c-1,1.1-2.2,2.4-4.9,3.1C11,29.6,10.2,29.7,9.4,29.7L9.4,29.7z"/>
	<path class="st0" d="M23.6,11.2c-0.2,0-0.4-0.1-0.6-0.2c-0.3-0.3-0.6-0.5-0.9-0.8C21.8,10,21.8,9.5,22,9.1c0.3-0.3,0.8-0.4,1.1-0.1
		c0.4,0.3,0.7,0.6,1,0.9c0.3,0.3,0.3,0.8,0,1.1C24,11.2,23.8,11.2,23.6,11.2L23.6,11.2z"/>
	<path class="st0" d="M32.2,18.3c-0.1-0.4-0.6-0.7-1-0.6c-1.6,0.4-2.8,0.3-3.8,0.1c0,0,0,0,0-0.1c0-1.9-0.5-3.7-1.4-5.4
		C25.8,12,25.4,11.8,25,12c-0.4,0.2-0.5,0.7-0.3,1.1c0.7,1.3,1.1,2.8,1.2,4.2c-1.3-0.4-2.9-0.7-5.2-0.1c-0.5,0.1-0.9,0.3-1.3,0.5
		c0,0,0,0,0,0h-8.7c-0.4,0-0.8,0.4-0.8,0.8c0,0.4,0.4,0.8,0.8,0.8h6.3c-0.4,0.4-0.7,0.7-1,1.1c-1,1-1.9,2-4.1,2.6
		c-2.2,0.6-3.5,0.2-4.9-0.2c-1.4-0.4-3.1-0.9-5.8-0.2c-0.4,0.1-0.7,0.6-0.6,1c0.1,0.4,0.6,0.7,1,0.6c2.2-0.6,3.5-0.2,4.9,0.2
		c0.9,0.3,1.9,0.6,3.2,0.6c0.7,0,1.6-0.1,2.6-0.4c2.7-0.7,3.8-2,4.9-3.1c1-1,1.9-2,4.1-2.6c2.2-0.6,3.5-0.2,4.9,0.2
		c1.4,0.4,3.1,0.9,5.8,0.2C32.1,19.1,32.3,18.7,32.2,18.3L32.2,18.3z"/>
	<path class="st0" d="M1.2,19.3h6.5c0.4,0,0.8-0.4,0.8-0.8c0-0.4-0.4-0.8-0.8-0.8l-1,0c0-3.1,1.5-5.9,4.1-7.7c2.7-1.8,6.1-2.3,9-1.2
		c0.4,0.2,0.9,0,1-0.5c0.2-0.4,0-0.9-0.5-1C17,6.1,13.1,6.6,9.9,8.8c-3,2.1-4.8,5.4-4.8,9v0l-4,0c-0.4,0-0.8,0.4-0.8,0.8
		C0.4,19,0.7,19.3,1.2,19.3L1.2,19.3z"/>
	<path class="st0" d="M16.3,5c-0.4,0-0.8-0.4-0.8-0.8V1c0-0.4,0.4-0.8,0.8-0.8c0.4,0,0.8,0.4,0.8,0.8v3.2C17.1,4.7,16.7,5,16.3,5z"
		/>
	<path class="st0" d="M27.1,9.3c-0.2,0-0.4-0.1-0.6-0.2c-0.3-0.3-0.3-0.8,0-1.1l2.3-2.3c0.3-0.3,0.8-0.3,1.1,0
		c0.3,0.3,0.3,0.8,0,1.1l-2.3,2.3C27.5,9.3,27.3,9.3,27.1,9.3L27.1,9.3z"/>
	<path class="st0" d="M5.5,9.3c-0.2,0-0.4-0.1-0.6-0.2L2.7,6.8C2.4,6.5,2.4,6,2.7,5.7c0.3-0.3,0.8-0.3,1.1,0L6,8
		c0.3,0.3,0.3,0.8,0,1.1C5.9,9.3,5.7,9.3,5.5,9.3L5.5,9.3z"/>
	<path class="st0" d="M22.7,5.8c0,1.1-1.6,1.1-1.6,0C21.1,4.8,22.7,4.8,22.7,5.8"/>
	<path class="st0" d="M30.6,12.2c0,1.1-1.6,1.1-1.6,0C29,11.1,30.6,11.1,30.6,12.2"/>
	<path class="st0" d="M3.6,12.2c0,1.1-1.6,1.1-1.6,0C2,11.1,3.6,11.1,3.6,12.2"/>
	<path class="st0" d="M11.5,5.8c0,1.1-1.6,1.1-1.6,0C9.9,4.8,11.5,4.8,11.5,5.8"/>
</g>
</svg>
