<?xml version="1.0" encoding="utf-8"?>
<!-- Generator: Adobe Illustrator 27.2.0, SVG Export Plug-In . SVG Version: 6.00 Build 0)  -->
<svg version="1.1" id="Слой_1" xmlns="http://www.w3.org/2000/svg" xmlns:xlink="http://www.w3.org/1999/xlink" x="0px" y="0px"
	 viewBox="0 0 32 34" style="enable-background:new 0 0 32 34;" xml:space="preserve">
<style type="text/css">
	.st0{fill-rule:evenodd;clip-rule:evenodd;fill:#FFFFFF;}
</style>
<g>
	<path class="st0" d="M0,5.8L15.98,0L32,5.8v11.06c0,1.39-0.25,2.78-0.63,4.08c-0.5,1.64-1.26,3.15-2.19,4.54
		c-2.69,4.04-8.12,8.28-13.2,8.28c-5.05,0-10.47-4.25-13.16-8.28C1.09,22.92,0,19.97,0,16.86V5.8z M16.74,8.87v0.38
		c2.19,0.34,4.08,2.02,4.08,4.33c0,1.43-2.35,1.43-2.35,0c0-1.05-0.76-1.85-1.72-2.1v4.37c2.19,0.34,4.08,2.02,4.08,4.33
		s-1.89,3.99-4.08,4.29v0.42c0,1.01-1.51,1.01-1.51,0v-0.42c-2.14-0.29-4.04-1.98-4.04-4.29c0-1.43,2.31-1.43,2.31,0
		c0,1.05,0.8,1.81,1.72,2.1v-4.37c-2.14-0.34-4.04-2.02-4.04-4.33s1.89-3.99,4.04-4.33V8.87C15.22,7.86,16.74,7.86,16.74,8.87z
		 M16.74,18.08v4.2c0.97-0.29,1.72-1.05,1.72-2.1C18.46,19.13,17.7,18.33,16.74,18.08z M15.22,15.68v-4.2
		c-0.93,0.25-1.72,1.05-1.72,2.1S14.3,15.39,15.22,15.68z M2.06,7.27l13.92-5.09L29.9,7.27v9.59c0,8.03-8.54,14.8-13.92,14.8
		S2.06,24.89,2.06,16.86V7.27z"/>
</g>
</svg>
