<?xml version="1.0" encoding="utf-8"?>
<!-- Generator: Adobe Illustrator 27.2.0, SVG Export Plug-In . SVG Version: 6.00 Build 0)  -->
<svg version="1.1" id="Слой_1" xmlns="http://www.w3.org/2000/svg" xmlns:xlink="http://www.w3.org/1999/xlink" x="0px" y="0px"
	 viewBox="0 0 22 28" style="enable-background:new 0 0 22 28;" xml:space="preserve">
<style type="text/css">
	.st0{fill:#FFFFFF;}
</style>
<path class="st0" d="M13.64,16.41c4.48,0,8.14-3.66,8.14-8.14s-3.66-8.14-8.14-8.14H5.97c-0.64,0-1.17,0.53-1.17,1.14V14.1H1.22
	c-0.64,0-1.17,0.53-1.17,1.14s0.53,1.14,1.17,1.14h3.57v3.16H1.22c-0.64,0-1.17,0.53-1.17,1.14c0,0.61,0.53,1.14,1.17,1.14h3.57
	v4.89c0,0.64,0.53,1.14,1.17,1.14s1.17-0.53,1.17-1.14v-4.83h7.73c0.64,0,1.17-0.53,1.17-1.14c0-0.61-0.53-1.14-1.17-1.14H7.11
	v-3.19H13.64z M7.11,2.45h6.5c3.22,0,5.83,2.61,5.83,5.83s-2.61,5.83-5.83,5.83h-6.5V2.45z"/>
</svg>
