<?xml version="1.0" encoding="utf-8"?>
<!-- Generator: Adobe Illustrator 27.2.0, SVG Export Plug-In . SVG Version: 6.00 Build 0)  -->
<svg version="1.1" id="Слой_1" xmlns="http://www.w3.org/2000/svg" xmlns:xlink="http://www.w3.org/1999/xlink" x="0px" y="0px"
	 viewBox="0 0 39 37" style="enable-background:new 0 0 39 37;" xml:space="preserve">
<style type="text/css">
	.st0{fill:#FFFFFF;}
</style>
<path class="st0" d="M19.09,25.8c0-1.3-0.58-2.58-1.55-3.42c0.03-0.18,0.03-0.33,0.03-0.52c0-1.67-1.36-3.03-3.03-3.03
	s-3.03,1.36-3.03,3.03c0,0.18,0,0.33,0.03,0.52C10.57,23.23,10,24.5,10,25.8c0,2.3,1.73,4.21,3.94,4.51v2.45H6.36
	c-0.33,0-0.61,0.27-0.61,0.61c0,0.33,0.27,0.61,0.61,0.61h10.6c0.33,0,0.61-0.27,0.61-0.61c0-0.33-0.27-0.61-0.61-0.61h-1.82v-2.45
	C17.36,30.02,19.09,28.11,19.09,25.8z M11.21,25.8c0-1.06,0.52-2.06,1.39-2.7c0.21-0.15,0.3-0.42,0.21-0.67
	c-0.06-0.21-0.09-0.39-0.09-0.58c0-1,0.82-1.82,1.82-1.82s1.82,0.82,1.82,1.82c0,0.18-0.03,0.39-0.09,0.58
	c-0.09,0.24,0,0.52,0.21,0.67c0.88,0.64,1.39,1.64,1.39,2.7c0,1.64-1.18,3-2.73,3.27v-1.82l1.79-1.79c0.24-0.24,0.24-0.61,0-0.85
	s-0.61-0.24-0.85,0l-0.94,0.94v-2.79c0-0.33-0.27-0.61-0.61-0.61s-0.61,0.27-0.61,0.61v6.3C12.39,28.8,11.21,27.44,11.21,25.8z"/>
<path class="st0" d="M36.36,7.93h-6.97c-0.33,0-0.61,0.27-0.61,0.61s0.27,0.61,0.61,0.61h6.97c0.67,0,1.21,0.55,1.21,1.21v16.97
	H24.85v-9.7c0-0.33-0.27-0.61-0.61-0.61s-0.61,0.27-0.61,0.61v10.3c0,0.33,0.27,0.61,0.61,0.61h13.33v3.64H24.24
	c-0.33,0-0.61,0.27-0.61,0.61v2.73H20v-5.76c0-0.33-0.27-0.61-0.61-0.61s-0.61,0.27-0.61,0.61v5.76H4.24
	c-1.67,0-3.03-1.36-3.03-3.03c0-1.67,1.36-3.03,3.03-3.03h2.12c1.33,0,2.42-1.09,2.42-2.42V9.14h5.45c0.33,0,0.61-0.27,0.61-0.61
	s-0.27-0.61-0.61-0.61H8.79V3.08c0-1.33-1.09-2.42-2.42-2.42H4.24C1.91,0.66,0,2.57,0,4.9v27.57c0,2.33,1.91,4.24,4.24,4.24h32.12
	c1.33,0,2.42-1.09,2.42-2.42V10.35C38.78,9.02,37.69,7.93,36.36,7.93z M1.21,4.9c0-1.67,1.36-3.03,3.03-3.03h2.12
	c0.67,0,1.21,0.55,1.21,1.21v23.94c0,0.67-0.55,1.21-1.21,1.21H4.24c-1.18,0-2.27,0.48-3.03,1.27V4.9z M36.36,35.5H24.85v-2.12
	h12.73v0.91C37.57,34.96,37.03,35.5,36.36,35.5z"/>
<path class="st0" d="M29.24,5.66l-1.21-2.09c-0.15-0.27-0.42-0.48-0.73-0.58C27,2.9,26.66,2.96,26.39,3.11l-0.97,0.55
	c-0.36-0.27-0.76-0.48-1.18-0.67V1.87c0-0.67-0.55-1.21-1.21-1.21H20.6c-0.67,0-1.21,0.55-1.21,1.21v1.12
	c-0.42,0.18-0.82,0.39-1.18,0.67l-0.97-0.55c-0.27-0.15-0.61-0.21-0.91-0.12c-0.3,0.09-0.58,0.27-0.73,0.58l-1.21,2.09
	c-0.33,0.58-0.12,1.33,0.45,1.67l0.97,0.55c-0.06,0.21-0.06,0.45-0.06,0.67s0,0.45,0.03,0.67l-0.97,0.55
	c-0.27,0.15-0.48,0.42-0.58,0.73c-0.09,0.3-0.03,0.64,0.12,0.91l1.21,2.09c0.33,0.58,1.09,0.79,1.67,0.45l0.97-0.55
	c0.36,0.27,0.76,0.48,1.18,0.67v1.15c0,0.67,0.55,1.21,1.21,1.21h2.42c0.67,0,1.21-0.55,1.21-1.21v-1.12
	c0.42-0.18,0.82-0.39,1.18-0.67l0.97,0.55c0.58,0.33,1.33,0.12,1.67-0.45l1.21-2.09c0.15-0.27,0.21-0.61,0.12-0.91
	s-0.27-0.58-0.58-0.73l-0.97-0.55c0.03-0.24,0.03-0.45,0.03-0.67s0-0.45-0.03-0.67l0.97-0.55C29.39,6.96,29.57,6.23,29.24,5.66z
	 M27.06,6.9c-0.33,0.18-0.48,0.55-0.45,0.91c0.03,0.24,0.06,0.48,0.06,0.7s-0.03,0.45-0.06,0.7c-0.06,0.36,0.12,0.73,0.45,0.91
	l1.15,0.67L27,12.87l-1.15-0.67c-0.33-0.18-0.73-0.15-1.03,0.09c-0.36,0.3-0.79,0.52-1.21,0.7c-0.36,0.15-0.58,0.48-0.58,0.85v1.36
	H20.6v-1.33c0-0.36-0.21-0.7-0.58-0.85c-0.42-0.18-0.85-0.42-1.21-0.7c-0.18-0.12-0.36-0.21-0.58-0.21c-0.15,0-0.3,0.03-0.45,0.12
	l-1.15,0.67l-1.21-2.09l1.15-0.67c0.33-0.18,0.48-0.55,0.45-0.91c-0.03-0.24-0.06-0.48-0.06-0.7s0.03-0.45,0.06-0.7
	c0.06-0.36-0.12-0.73-0.45-0.91l-1.15-0.67l1.21-2.09l1.15,0.67c0.33,0.18,0.73,0.15,1.03-0.09c0.36-0.3,0.79-0.52,1.21-0.7
	C20.39,3.9,20.6,3.57,20.6,3.2V1.87h2.42V3.2c0,0.36,0.21,0.7,0.58,0.85c0.42,0.18,0.85,0.42,1.21,0.7c0.3,0.24,0.7,0.27,1.03,0.09
	L27,4.17l1.21,2.09L27.06,6.9z"/>
<path class="st0" d="M21.82,5.5c-1.67,0-3.03,1.36-3.03,3.03s1.36,3.03,3.03,3.03s3.03-1.36,3.03-3.03S23.48,5.5,21.82,5.5z
	 M21.82,10.35c-1,0-1.82-0.82-1.82-1.82s0.82-1.82,1.82-1.82s1.82,0.82,1.82,1.82S22.82,10.35,21.82,10.35z"/>
<path class="st0" d="M26.06,19.14v6.36c0,0.33,0.27,0.61,0.61,0.61h9.09c0.33,0,0.61-0.27,0.61-0.61V13.38
	c0-0.33-0.27-0.61-0.61-0.61H30.6c-0.33,0-0.61,0.27-0.61,0.61v2.73l-3.67,2.55C26.15,18.75,26.06,18.93,26.06,19.14z M35.15,13.99
	V24.9h-3.94V13.99H35.15z M27.27,19.44L30,17.56v7.33h-2.73V19.44z"/>
<path class="st0" d="M32.42,16.41h1.51c0.33,0,0.61-0.27,0.61-0.61c0-0.33-0.27-0.61-0.61-0.61h-1.51c-0.33,0-0.61,0.27-0.61,0.61
	C31.81,16.14,32.09,16.41,32.42,16.41z"/>
<path class="st0" d="M32.42,18.84h1.51c0.33,0,0.61-0.27,0.61-0.61s-0.27-0.61-0.61-0.61h-1.51c-0.33,0-0.61,0.27-0.61,0.61
	S32.09,18.84,32.42,18.84z"/>
<path class="st0" d="M32.42,21.26h1.51c0.33,0,0.61-0.27,0.61-0.61s-0.27-0.61-0.61-0.61h-1.51c-0.33,0-0.61,0.27-0.61,0.61
	S32.09,21.26,32.42,21.26z"/>
<path class="st0" d="M32.42,23.68h1.51c0.33,0,0.61-0.27,0.61-0.61s-0.27-0.61-0.61-0.61h-1.51c-0.33,0-0.61,0.27-0.61,0.61
	S32.09,23.68,32.42,23.68z"/>
<path class="st0" d="M20,22.47v-4.85c0-0.33-0.27-0.61-0.61-0.61H10.3c-0.33,0-0.61,0.27-0.61,0.61s0.27,0.61,0.61,0.61h8.48v4.24
	c0,0.33,0.27,0.61,0.61,0.61S20,22.81,20,22.47z"/>
<path class="st0" d="M10.3,14.29h3.33c0.33,0,0.61-0.27,0.61-0.61s-0.27-0.61-0.61-0.61H10.3c-0.33,0-0.61,0.27-0.61,0.61
	S9.97,14.29,10.3,14.29z"/>
<path class="st0" d="M22.42,18.84c0-0.33-0.27-0.61-0.61-0.61s-0.61,0.27-0.61,0.61v1.21c0,0.33,0.27,0.61,0.61,0.61
	s0.61-0.27,0.61-0.61V18.84z"/>
<path class="st0" d="M22.42,23.08c0-0.33-0.27-0.61-0.61-0.61s-0.61,0.27-0.61,0.61v1.21c0,0.33,0.27,0.61,0.61,0.61
	s0.61-0.27,0.61-0.61V23.08z"/>
<path class="st0" d="M22.42,27.32c0-0.33-0.27-0.61-0.61-0.61s-0.61,0.27-0.61,0.61v1.21c0,0.33,0.27,0.61,0.61,0.61
	s0.61-0.27,0.61-0.61V27.32z"/>
<path class="st0" d="M21.82,30.96c-0.33,0-0.61,0.27-0.61,0.61v1.21c0,0.33,0.27,0.61,0.61,0.61s0.61-0.27,0.61-0.61v-1.21
	C22.42,31.23,22.15,30.96,21.82,30.96z"/>
<path class="st0" d="M35.15,30.96c0.33,0,0.61-0.27,0.61-0.61s-0.27-0.61-0.61-0.61h-1.21c-0.33,0-0.61,0.27-0.61,0.61
	s0.27,0.61,0.61,0.61H35.15z"/>
<path class="st0" d="M30.9,30.96c0.33,0,0.61-0.27,0.61-0.61s-0.27-0.61-0.61-0.61h-1.21c-0.33,0-0.61,0.27-0.61,0.61
	s0.27,0.61,0.61,0.61H30.9z"/>
<path class="st0" d="M26.66,30.96c0.33,0,0.61-0.27,0.61-0.61s-0.27-0.61-0.61-0.61h-1.21c-0.33,0-0.61,0.27-0.61,0.61
	s0.27,0.61,0.61,0.61H26.66z"/>
</svg>
