<?xml version="1.0" encoding="utf-8"?>
<!-- Generator: Adobe Illustrator 27.2.0, SVG Export Plug-In . SVG Version: 6.00 Build 0)  -->
<svg version="1.1" id="Слой_1" xmlns="http://www.w3.org/2000/svg" xmlns:xlink="http://www.w3.org/1999/xlink" x="0px" y="0px"
	 viewBox="0 0 28 35" style="enable-background:new 0 0 28 35;" xml:space="preserve">
<style type="text/css">
	.st0{fill-rule:evenodd;clip-rule:evenodd;fill:#FFFFFF;}
</style>
<g>
	<path class="st0" d="M13.12,22.11v4.81c-0.86-1.04-2.02-2.03-3.43-2.85c-3.83-2.21-9.17-0.19-9.17-0.19
		c-0.36,0.14-0.58,0.51-0.52,0.89c0,0,0.92,5.64,4.74,7.85c2.3,1.33,4.7,1.86,6.52,1.63c0.71-0.09,1.33-0.29,1.85-0.6
		c0,0,0.82,0.3,1.65-0.06c0.5,0.44,1.14,0.51,1.85,0.6c1.82,0.23,4.22-0.3,6.52-1.63c3.83-2.21,4.74-7.85,4.74-7.85
		c0.06-0.38-0.16-0.75-0.52-0.89c0,0-5.34-2.02-9.17,0.19c-1.41,0.81-2.57,1.81-3.43,2.85v-4.75c5.52-0.42,9.88-5.04,9.88-10.67
		c0-5.91-4.79-10.7-10.7-10.7s-10.7,4.79-10.7,10.7C3.25,17.07,7.6,21.69,13.12,22.11z M13.95,40.54 M13.12,30.65
		c-0.02-0.35-0.12-0.72-0.28-1.11c-0.6-1.43-2.03-2.93-3.97-4.05c-2.49-1.44-5.73-0.71-7.1-0.3l0,0c0.33,1.39,1.32,4.56,3.81,6
		c1.94,1.12,3.96,1.61,5.49,1.42c0.47-0.06,0.9-0.18,1.23-0.39L7.39,29.4c-0.39-0.23-0.53-0.73-0.3-1.12
		c0.23-0.39,0.73-0.53,1.12-0.3l4.91,2.83L13.12,30.65z M15.59,32.18c0.34,0.2,0.76,0.33,1.23,0.39c1.53,0.19,3.55-0.3,5.49-1.42
		c2.49-1.44,3.48-4.61,3.81-6l0,0c-1.37-0.41-4.61-1.14-7.1,0.3c-1.94,1.12-3.38,2.62-3.97,4.05c-0.16,0.38-0.26,0.75-0.28,1.11
		v0.16l4.91-2.83c0.39-0.23,0.9-0.09,1.12,0.3c0.23,0.39,0.09,0.9-0.3,1.12L15.59,32.18z M13.95,2.38c5,0,9.05,4.06,9.05,9.05
		s-4.06,9.05-9.05,9.05s-9.05-4.06-9.05-9.05S8.95,2.38,13.95,2.38z M13.12,4.95c-0.81,0.19-1.54,0.65-2.11,1.26
		c-0.75,0.8-1.19,1.84-1.19,2.76c0,1.16,0.56,1.9,1.44,2.41c0.68,0.4,1.58,0.63,2.48,0.86c0.74,0.19,1.49,0.36,2.05,0.68
		c0.36,0.21,0.62,0.5,0.62,0.99c0,0.55-0.3,1.16-0.74,1.64c-0.44,0.48-1.05,0.83-1.73,0.83c-1.36,0-2.47-1.11-2.47-2.47
		c0-0.45-0.37-0.82-0.82-0.82c-0.45,0-0.82,0.37-0.82,0.82c0,1.99,1.41,3.65,3.29,4.03v0.91c0,0.45,0.37,0.82,0.82,0.82
		c0.45,0,0.82-0.37,0.82-0.82v-0.92c0.81-0.19,1.54-0.65,2.11-1.26c0.75-0.8,1.19-1.84,1.19-2.76c0-1.16-0.56-1.9-1.44-2.41
		c-0.68-0.4-1.58-0.63-2.48-0.86c-0.74-0.19-1.49-0.36-2.05-0.68c-0.36-0.21-0.62-0.5-0.62-0.99c0-0.55,0.3-1.16,0.74-1.64
		c0.44-0.48,1.05-0.83,1.73-0.83c1.36,0,2.47,1.11,2.47,2.47c0,0.45,0.37,0.82,0.82,0.82s0.82-0.37,0.82-0.82
		c0-1.99-1.41-3.65-3.29-4.03V4.03c0-0.45-0.37-0.82-0.82-0.82c-0.45,0-0.82,0.37-0.82,0.82C13.12,4.03,13.12,4.95,13.12,4.95z"/>
</g>
</svg>
