<?xml version="1.0" encoding="utf-8"?>
<!-- Generator: Adobe Illustrator 27.2.0, SVG Export Plug-In . SVG Version: 6.00 Build 0)  -->
<svg version="1.1" id="Слой_1" xmlns="http://www.w3.org/2000/svg" xmlns:xlink="http://www.w3.org/1999/xlink" x="0px" y="0px"
	 viewBox="0 0 39 37" style="enable-background:new 0 0 39 37;" xml:space="preserve">
<style type="text/css">
	.st0{fill:#FFFFFF;}
</style>
<g>
	<path class="st0" d="M38.13,27.05c-0.08-1.8-1.34-3.33-3.09-3.76l-0.33-2.25c-0.43-2.86-2.88-4.98-5.77-4.99h-3.57
		c-2.89,0.02-5.34,2.14-5.77,5l-0.32,2.23c-1.72,0.4-2.98,1.88-3.09,3.65c-0.48,2-0.1,4.12,1.05,5.83c0.96,1.35,2.45,2.22,4.09,2.41
		h0.24v0.8c0,0.44,0.36,0.8,0.8,0.8s0.8-0.36,0.8-0.8v-0.8h7.96v0.8c0,0.44,0.36,0.8,0.8,0.8c0.44,0,0.8-0.36,0.8-0.8v-0.8h0.33
		c1.6-0.22,3.04-1.09,3.98-2.41C38.19,31.1,38.58,29.03,38.13,27.05z M25.39,17.66h3.57c2.1,0,3.88,1.54,4.19,3.62l0.32,2.13
		c-1.26,0.48-2.19,1.57-2.45,2.9c-0.14,0.89-0.14,1.8,0,2.69c0.09,0.51,0.23,1,0.41,1.48H22.9C23.09,30,23.23,29.5,23.32,29
		c0.14-0.89,0.14-1.8,0-2.69c-0.27-1.31-1.19-2.4-2.44-2.88l0.3-2.13c0.31-2.08,2.09-3.62,4.19-3.63H25.39z M35.79,31.85
		c-0.68,0.95-1.71,1.57-2.87,1.74H21.44c-1.16-0.15-2.21-0.78-2.9-1.74c-0.88-1.37-1.16-3.05-0.78-4.64
		c0.01-1.17,0.85-2.18,2.01-2.39l0,0c0.95,0.11,1.73,0.81,1.93,1.75c0.13,0.71,0.13,1.44,0,2.15c-0.12,0.75-0.39,1.47-0.8,2.1
		c-0.25,0.36-0.15,0.86,0.21,1.11c0.13,0.09,0.28,0.14,0.44,0.14H32.7c0.44,0,0.79-0.36,0.79-0.8c0-0.16-0.05-0.31-0.14-0.44
		c-0.39-0.61-0.66-1.3-0.78-2.02c-0.13-0.71-0.13-1.44,0-2.15c0.13-0.73,0.94-1.85,1.98-1.75c1.04,0.1,1.86,1.07,2.02,2.5
		c0.34,1.53,0.05,3.13-0.8,4.44H35.79z"/>
	<path class="st0" d="M11.23,24.03H1.67c-0.44,0-0.8,0.36-0.8,0.8v11.15c0,0.44,0.36,0.8,0.8,0.8s0.8-0.36,0.8-0.8v-3.98h7.96v3.98
		c0,0.44,0.36,0.8,0.8,0.8c0.44,0,0.8-0.36,0.8-0.8V24.82C12.02,24.38,11.67,24.03,11.23,24.03z M2.47,30.4v-4.78h7.96v4.78H2.47z"
		/>
	<path class="st0" d="M7.25,27.71c-0.03-0.1-0.09-0.19-0.18-0.25c-0.31-0.3-0.81-0.3-1.11,0c-0.31,0.29-0.32,0.77-0.03,1.08
		c0.01,0.01,0.02,0.02,0.03,0.03c0.07,0.08,0.16,0.14,0.25,0.18c0.1,0.02,0.2,0.02,0.3,0c0.44-0.01,0.79-0.36,0.8-0.8
		C7.3,27.86,7.28,27.78,7.25,27.71z"/>
	<path class="st0" d="M20.78,11.28c0.24,0.01,0.46-0.1,0.61-0.29c0.16-0.17,0.22-0.41,0.18-0.64L19.97,0.8
		c-0.06-0.38-0.39-0.67-0.78-0.67H9.63C9.24,0.13,8.9,0.41,8.84,0.8l-1.59,9.56C7.2,10.59,7.26,10.82,7.42,11
		c0.15,0.19,0.38,0.3,0.62,0.29h5.57v24.69c0,0.44,0.36,0.8,0.8,0.8s0.8-0.36,0.8-0.8V11.28H20.78z M10.3,1.73h8.22l1.32,7.96H8.98
		L10.3,1.73z"/>
</g>
</svg>
