<?xml version="1.0" encoding="utf-8"?>
<!-- Generator: Adobe Illustrator 27.2.0, SVG Export Plug-In . SVG Version: 6.00 Build 0)  -->
<svg version="1.1" id="Слой_1" xmlns="http://www.w3.org/2000/svg" xmlns:xlink="http://www.w3.org/1999/xlink" x="0px" y="0px"
	 viewBox="0 0 39 37" style="enable-background:new 0 0 39 37;" xml:space="preserve">
<style type="text/css">
	.st0{fill-rule:evenodd;clip-rule:evenodd;fill:#FFFFFF;}
</style>
<path class="st0" d="M21.91,5l5.57,10.08l7.92-4.95c1.69-1.09,3.79,0.51,3.27,2.41c0,0,0,0,0,0l-4.34,16.11l0,0
	c-0.36,1.34-1.56,2.26-2.95,2.26H8.62c-1.37,0-2.59-0.91-2.95-2.26l0,0L1.33,12.54c0,0,0,0,0,0c-0.53-1.96,1.61-3.43,3.26-2.42
	l0.01,0.01l7.9,4.96L18.08,5C18.91,3.48,21.08,3.48,21.91,5z M20,6.94l-5.88,10.62c-0.17,0.31-0.47,0.54-0.82,0.63
	c-0.35,0.09-0.72,0.03-1.02-0.16l-8.13-5.1l4.05,15.03c0,0,0,0,0,0c0.05,0.19,0.23,0.33,0.43,0.33h22.76c0.21,0,0.37-0.13,0.43-0.33
	c0,0,0,0,0,0l4.05-15.03l-8.17,5.11c-0.3,0.19-0.67,0.25-1.02,0.16c-0.35-0.09-0.64-0.32-0.82-0.63L20,6.94z"/>
</svg>
