<?xml version="1.0" encoding="utf-8"?>
<!-- Generator: Adobe Illustrator 27.2.0, SVG Export Plug-In . SVG Version: 6.00 Build 0)  -->
<svg version="1.1" id="Слой_1" xmlns="http://www.w3.org/2000/svg" xmlns:xlink="http://www.w3.org/1999/xlink" x="0px" y="0px"
	 viewBox="0 0 33 30" style="enable-background:new 0 0 33 30;" xml:space="preserve">
<style type="text/css">
	.st0{fill:#FFFFFF;}
</style>
<path class="st0" d="M32.5,23.3L25.3,8.6c-0.2-0.5-0.6-0.8-1-0.8c-0.4,0-0.8,0.3-1,0.8l-1.8,3.6l-3.7-7.6C17.4,4,17,3.7,16.5,3.7
	c-0.5,0-0.9,0.3-1.2,0.9l-4.8,9.8l-1.8-3.7c-0.2-0.4-0.6-0.7-1-0.7s-0.8,0.3-1,0.7L0.6,23.3c-0.1,0.2-0.1,0.5,0,0.7s0.3,0.3,0.5,0.3
	h30.8c0.2,0,0.4-0.1,0.5-0.3C32.6,23.8,32.6,23.5,32.5,23.3z M24.2,9.4l1.6,3.2L25.4,13l-0.7-0.8c-0.1-0.1-0.3-0.2-0.5-0.2
	c-0.2,0-0.4,0.1-0.5,0.2L23.1,13l-0.4-0.5L24.2,9.4z M16.5,5.2C16.5,5.1,16.5,5.1,16.5,5.2C16.5,5.1,16.5,5.1,16.5,5.2l2.3,4.5
	l-0.6,0.5l-1.2-1c-0.2-0.2-0.6-0.2-0.8,0l-1.2,1l-0.6-0.5L16.5,5.2z M7.8,11.6l1.5,3.1L9,14.9l-0.8-0.9c-0.2-0.3-0.7-0.3-0.9,0
	l-0.8,0.9l-0.3-0.3L7.8,11.6z M2.2,22.9l3.5-7l0.4,0.5c0.1,0.1,0.3,0.2,0.5,0.2s0.3-0.1,0.5-0.2l0.8-0.9l0.8,0.9
	c0.1,0.1,0.3,0.2,0.5,0.2c0.2,0,0.3-0.1,0.5-0.2l0.4-0.5l3.5,7C13.4,22.9,2.2,22.9,2.2,22.9z M11.3,15.8l2.4-4.9l0.8,0.7
	c0.1,0.1,0.3,0.1,0.4,0.1s0.3,0,0.4-0.1l1.2-1l1.2,1c0.2,0.2,0.6,0.2,0.8,0l0.8-0.7l1.4,2.8l-4.6,9.3h-1.3L11.3,15.8z M17.6,22.9
	l4.5-9.1l0.5,0.6c0.1,0.1,0.3,0.2,0.5,0.2l0,0c0.2,0,0.4-0.1,0.5-0.2l0.7-0.8l0.7,0.8c0.2,0.3,0.7,0.3,0.9,0l0.6-0.6l4.5,9.1
	C30.9,22.9,17.6,22.9,17.6,22.9z"/>
<path class="st0" d="M20.5,5c0,0,0.6,0.2,0.8,0.8c0.1,0.3,0.3,0.5,0.6,0.5c0.3,0,0.5-0.2,0.6-0.5c0.2-0.5,0.8-0.8,0.8-0.8
	c0.3-0.1,0.5-0.5,0.4-0.9c-0.1-0.4-0.5-0.5-0.8-0.4c0,0-0.5,0.2-1,0.6c-0.4-0.4-0.9-0.6-1-0.6c-0.3-0.1-0.7,0.1-0.8,0.4
	C20,4.5,20.2,4.9,20.5,5z"/>
<path class="st0" d="M8.9,7.6c0,0,0.6,0.2,0.8,0.8c0.1,0.3,0.3,0.5,0.6,0.5c0.3,0,0.5-0.2,0.6-0.5c0.2-0.5,0.7-0.8,0.8-0.8
	C12,7.5,12.1,7.1,12,6.7c-0.1-0.4-0.5-0.5-0.8-0.4c0,0-0.5,0.2-1,0.6c-0.4-0.4-0.9-0.6-1-0.6C9,6.2,8.6,6.4,8.5,6.7
	C8.4,7.1,8.5,7.5,8.9,7.6z"/>
</svg>
