<?xml version="1.0" encoding="utf-8"?>
<!-- Generator: Adobe Illustrator 27.2.0, SVG Export Plug-In . SVG Version: 6.00 Build 0)  -->
<svg version="1.1" id="Слой_1" xmlns="http://www.w3.org/2000/svg" xmlns:xlink="http://www.w3.org/1999/xlink" x="0px" y="0px"
	 viewBox="0 0 39 37" style="enable-background:new 0 0 39 37;" xml:space="preserve">
<style type="text/css">
	.st0{fill-rule:evenodd;clip-rule:evenodd;fill:#FFFFFF;}
</style>
<path class="st0" d="M15.14,0c-0.18,0-0.36,0.05-0.51,0.16L2.41,8.89C2.18,9.06,2.04,9.32,2.04,9.6v4.37c0,0.33,0.18,0.63,0.47,0.78
	c0.29,0.15,0.64,0.12,0.91-0.07l0.37-0.26v20.5H2.91c-0.48,0-0.87,0.39-0.87,0.87s0.39,0.87,0.87,0.87h10.48
	c0.48,0,0.87-0.39,0.87-0.87c0-0.48-0.39-0.87-0.87-0.87h-1.75v-8.73h2.62v6.99c0,0.48,0.39,0.87,0.87,0.87s0.87-0.39,0.87-0.87
	v-6.99h2.62v2.62c0,0.48,0.39,0.88,0.87,0.88c0.48,0,0.87-0.39,0.87-0.88v-3.49c0-0.48-0.39-0.87-0.87-0.87h-4.34
	c-0.01,0-0.02,0-0.03,0s-0.02,0-0.03,0h-4.34c-0.48,0-0.87,0.39-0.87,0.87v9.6H5.53V13.17l9.6-6.86l9.6,6.86v9.53
	c0,0.48,0.39,0.87,0.87,0.87c0.48,0,0.87-0.39,0.87-0.87v-8.28l0.37,0.26c0.27,0.19,0.61,0.22,0.91,0.07
	c0.29-0.15,0.47-0.45,0.47-0.78V9.61c0-0.28-0.14-0.55-0.37-0.71L15.64,0.17C15.49,0.06,15.31,0,15.14,0L15.14,0z M15.14,1.95
	l11.35,8.11v2.22L15.64,4.53c-0.3-0.22-0.71-0.22-1.01,0L3.79,12.27v-2.22L15.14,1.95L15.14,1.95z M9.03,13.97
	c-0.48,0-0.87,0.39-0.87,0.87v3.49c0,0.48,0.39,0.87,0.87,0.87h3.49c0.48,0,0.87-0.39,0.87-0.87v-3.49c0-0.48-0.39-0.87-0.87-0.87
	H9.03z M17.75,13.97c-0.48,0-0.87,0.39-0.87,0.87v3.49c0,0.48,0.39,0.87,0.87,0.87h3.49c0.48,0,0.87-0.39,0.87-0.87v-3.49
	c0-0.48-0.39-0.87-0.87-0.87H17.75z M9.9,15.72h1.75v1.75H9.9V15.72z M18.63,15.72h1.75v1.75h-1.75V15.72z M36.04,15.72
	c-0.21,0.01-0.42,0.1-0.57,0.25L16.26,35.18c-0.25,0.25-0.32,0.63-0.19,0.95c0.14,0.33,0.45,0.54,0.81,0.54h19.21
	c0.48,0,0.87-0.39,0.87-0.87V16.59c0-0.35-0.21-0.67-0.54-0.81C36.3,15.73,36.17,15.71,36.04,15.72L36.04,15.72z M35.21,18.7v16.23
	H18.99L35.21,18.7z M32.55,24.45c-0.21,0.01-0.42,0.1-0.57,0.25l-6.98,6.98c-0.25,0.25-0.32,0.63-0.19,0.95
	c0.14,0.33,0.45,0.54,0.81,0.54h6.98c0.48,0,0.87-0.39,0.87-0.87v-6.98c0-0.35-0.21-0.67-0.54-0.81
	C32.81,24.46,32.68,24.44,32.55,24.45L32.55,24.45z M31.72,27.43v4h-4L31.72,27.43z"/>
</svg>
