<?xml version="1.0" encoding="utf-8"?>
<!-- Generator: Adobe Illustrator 27.2.0, SVG Export Plug-In . SVG Version: 6.00 Build 0)  -->
<svg version="1.1" id="Слой_1" xmlns="http://www.w3.org/2000/svg" xmlns:xlink="http://www.w3.org/1999/xlink" x="0px" y="0px"
	 viewBox="0 0 32 32" style="enable-background:new 0 0 32 32;" xml:space="preserve">
<style type="text/css">
	.st0{fill:#FFFFFF;}
</style>
<path class="st0" d="M31.25,4.53c0,8.02,0,16.04,0,24.14c-0.45,0.11-0.87,0.2-1.63,0.38c-0.14-1.37-0.08-4.94-0.2-6.85
	c-0.4,0.69-0.78,1.39-1.2,2.06c-3.72,5.95-11.55,8.52-17.95,5.64c-2.85-1.28-5.3-3.29-7.14-5.95c-5.95-8.58-1.5-17.97,5.36-21.76
	c4.84-2.68,11.59-2.03,15.82,1.16c0.36,0.27,0.6,0.69,1.03,1.2C23.07,4,21.1,3.42,19.08,3.05c-2.56-0.46-5.14-0.56-7.67,0.28
	c-5.01,1.67-7.2,5.84-6.05,11.03c0.83,3.76,3.22,6.16,6.54,7.5c2.04,0.83,4.42,0.75,6.31-0.75c2.19-1.74,3.09-4.13,2.65-6.91
	c-0.57-3.52-4.04-5.13-7.09-3.22c-0.73,0.46-1.09,1.52-1.58,2.25c-0.37-2.47,2.72-5.12,5.41-4.52c5.6,1.26,7.3,7.81,3.24,12.36
	c-2.94,3.3-7.1,3.47-11.44,1.33c-3.8-1.88-5.36-5.3-5.73-9.35c-0.11-1.2-0.02-2.43-0.02-3.78c-0.2,0.33-0.44,0.59-0.53,0.9
	c-1.63,5.54-1.23,10.8,2.96,15.1c3.04,3.12,6.95,4.25,11.38,3.91c6.64-0.51,10.33-5.71,11.33-10.36c0.48-2.2,0.12-4.58,0.28-6.86
	C29.26,9.36,29.9,6.86,31.25,4.53z"/>
</svg>
