<?xml version="1.0" encoding="utf-8"?>
<!-- Generator: Adobe Illustrator 27.2.0, SVG Export Plug-In . SVG Version: 6.00 Build 0)  -->
<svg version="1.1" id="Слой_1" xmlns="http://www.w3.org/2000/svg" xmlns:xlink="http://www.w3.org/1999/xlink" x="0px" y="0px"
	 viewBox="0 0 33 30" style="enable-background:new 0 0 33 30;" xml:space="preserve">
<style type="text/css">
	.st0{fill:#FFFFFF;}
</style>
<g>
	<path class="st0" d="M32.7,27.74l-1.41-3.41c-0.23-0.56-0.78-0.93-1.39-0.93h-2.15v-9.49h1.77c1.1,0,1.99-0.89,1.99-1.99v-3.1
		c0-0.77-0.43-1.45-1.12-1.79L17.46,0.72c-0.55-0.27-1.19-0.27-1.74,0L2.78,7.03C2.09,7.37,1.67,8.05,1.67,8.82v3.1
		c0,1.1,0.89,1.99,1.99,1.99h1.77v9.49H3.28c-0.61,0-1.15,0.36-1.38,0.93l-1.41,3.41c-0.19,0.46-0.14,0.99,0.14,1.41
		c0.28,0.42,0.74,0.67,1.25,0.67h29.45c0.5,0,0.97-0.25,1.25-0.67C32.84,28.73,32.89,28.2,32.7,27.74z M25.79,23.4h-3.72v-9.49h3.72
		L25.79,23.4z M20.11,13.91v9.49h-7.04v-9.49L20.11,13.91z M3.63,11.92l0.02-3.13L16.6,2.48l12.93,6.31
		c0.01,0.01,0.02,0.02,0.02,0.03l-0.03,3.13L3.63,11.92z M7.39,13.91h3.72v9.49H7.39V13.91z M2.55,27.85l1.03-2.49h26.01l1.03,2.49
		L2.55,27.85z"/>
	<circle class="st0" cx="16.59" cy="8.12" r="1.56"/>
</g>
</svg>
