<?xml version="1.0" encoding="utf-8"?>
<!-- Generator: Adobe Illustrator 27.2.0, SVG Export Plug-In . SVG Version: 6.00 Build 0)  -->
<svg version="1.1" id="Слой_1" xmlns="http://www.w3.org/2000/svg" xmlns:xlink="http://www.w3.org/1999/xlink" x="0px" y="0px"
	 viewBox="0 0 18 16" style="enable-background:new 0 0 18 16;" xml:space="preserve">
<style type="text/css">
	.st0{fill-rule:evenodd;clip-rule:evenodd;fill:url(#SVGID_1_);}
</style>
<g>
	
		<linearGradient id="SVGID_1_" gradientUnits="userSpaceOnUse" x1="0.999" y1="7.8849" x2="17.002" y2="7.8849" gradientTransform="matrix(1 0 0 -1 0 15.89)">
		<stop  offset="0" style="stop-color:#E6C482"/>
		<stop  offset="1" style="stop-color:#B07638"/>
	</linearGradient>
	<path class="st0" d="M13.6,10.2c1,0.6,2,1.1,2.9,1.6c0.4,0.2,0.6,0.7,0.4,1.2c-0.8,2.3-3.3,3.5-5.6,2.7C6.5,14,3,10.5,1.3,5.7
		C0.4,3.4,1.6,0.9,3.9,0.1c0.5-0.2,0.9,0,1.2,0.4c0.5,1,1.1,2,1.6,2.9C7,3.9,7,4.4,6.6,4.8c-0.5,0.5-0.9,1-1.4,1.5
		c1,2.4,3,4.4,5.4,5.4c0.5-0.5,1-0.9,1.6-1.4C12.6,10,13.1,10,13.6,10.2L13.6,10.2z"/>
</g>
</svg>
