<?xml version="1.0" encoding="utf-8"?>
<!-- Generator: Adobe Illustrator 27.2.0, SVG Export Plug-In . SVG Version: 6.00 Build 0)  -->
<svg version="1.1" id="Слой_1" xmlns="http://www.w3.org/2000/svg" xmlns:xlink="http://www.w3.org/1999/xlink" x="0px" y="0px"
	 viewBox="0 0 23 29" style="enable-background:new 0 0 23 29;" xml:space="preserve">
<style type="text/css">
	.st0{fill:#FFFFFF;}
	.st1{opacity:0.35;fill:#FFFFFF;}
</style>
<path class="st0" d="M20.45,10.06h-9.56l1.58-5.15c0.36-1.08,0.18-2.06-0.27-3.39c-0.3-0.89-1.1-1.5-2-1.52c-0.02,0-0.03,0-0.05,0
	C9.28,0,8.52,0.56,8.16,1.48C7.7,2.65,7.21,3.74,6.85,4.4l-5.21,7.09c-1.03,1.27-1.6,2.88-1.6,4.56v6.09C0.04,25.93,3.12,29,6.9,29
	h10.93c1.38,0,2.51-1.12,2.51-2.51v-0.87c0-0.48-0.14-0.93-0.37-1.32c0.74-0.44,1.24-1.24,1.24-2.16v-0.87
	c0-0.48-0.14-0.93-0.37-1.32c0.74-0.44,1.24-1.24,1.24-2.17v-0.87c0-0.48-0.14-0.93-0.37-1.32c0.74-0.44,1.24-1.24,1.24-2.17v-0.87
	C22.95,11.19,21.83,10.06,20.45,10.06z M21.42,13.44c0,0.54-0.44,0.97-0.97,0.97h-0.87h-1.23v1.53h1.23c0.54,0,0.97,0.44,0.97,0.97
	v0.87c0,0.54-0.44,0.97-0.97,0.97H18.7h-1.23v1.53h1.23c0.54,0,0.97,0.44,0.97,0.97v0.87c0,0.54-0.44,0.97-0.97,0.97h-0.87H16.6
	v1.53h1.23c0.54,0,0.97,0.44,0.97,0.97v0.87c0,0.54-0.44,0.97-0.97,0.97H6.9c-2.93,0-5.32-2.39-5.32-5.32v-6.1
	c0-1.32,0.44-2.6,1.28-3.62l5.26-7.16l0.05-0.08c0.58-1.03,1.19-2.55,1.42-3.15c0.07-0.19,0.25-0.5,0.56-0.5c0,0,0.01,0,0.01,0
	c0.21,0,0.48,0.15,0.58,0.47c0.36,1.07,0.5,1.74,0.26,2.44l-2.2,7.15h11.63c0.54,0,0.97,0.44,0.97,0.97L21.42,13.44L21.42,13.44z"/>
<path class="st1" d="M19.89,10.42H10.8l1.5-4.88c0.35-1.02,0.17-1.95-0.26-3.21C11.76,1.48,11,0.9,10.14,0.88c-0.01,0-0.03,0-0.05,0
	c-0.83,0-1.55,0.53-1.9,1.4C7.76,3.4,7.3,4.43,6.95,5.05L2,11.78c-0.98,1.2-1.52,2.73-1.52,4.32v5.78c0,3.59,2.93,6.5,6.53,6.5h10.4
	c1.31,0,2.39-1.07,2.39-2.38v-0.82c0-0.46-0.13-0.88-0.35-1.25c0.71-0.41,1.18-1.18,1.18-2.05v-0.83c0-0.46-0.13-0.88-0.35-1.25
	c0.71-0.41,1.18-1.18,1.18-2.05v-0.83c0-0.46-0.13-0.88-0.35-1.25c0.71-0.41,1.18-1.18,1.18-2.05v-0.83
	C22.27,11.48,21.2,10.42,19.89,10.42z"/>
</svg>
