<?xml version="1.0" encoding="utf-8"?>
<!-- Generator: Adobe Illustrator 27.2.0, SVG Export Plug-In . SVG Version: 6.00 Build 0)  -->
<svg version="1.1" id="Слой_1" xmlns="http://www.w3.org/2000/svg" xmlns:xlink="http://www.w3.org/1999/xlink" x="0px" y="0px"
	 viewBox="0 0 37 37" style="enable-background:new 0 0 37 37;" xml:space="preserve">
<style type="text/css">
	.st0{fill:#FFFFFF;}
</style>
<g>
	<g>
		<g>
			<path class="st0" d="M24.75,32.79c-4.65,0-8.43-3.78-8.43-8.43s3.79-8.42,8.43-8.42c4.65,0,8.42,3.78,8.42,8.43
				S29.4,32.79,24.75,32.79z M24.75,17.04c-4.04,0-7.33,3.29-7.33,7.33s3.29,7.33,7.33,7.33s7.33-3.29,7.33-7.33
				S28.8,17.04,24.75,17.04z"/>
		</g>
		<g>
			<path class="st0" d="M34.04,35.94c-0.66,0-1.33-0.26-1.83-0.75l-3.72-3.72c-0.22-0.22-0.22-0.56,0-0.78
				c0.22-0.22,0.56-0.22,0.78,0l3.72,3.72c0.58,0.58,1.53,0.58,2.12,0c0.28-0.28,0.44-0.66,0.44-1.05c0-0.4-0.15-0.77-0.44-1.05
				l-3.8-3.8c-0.22-0.22-0.22-0.56,0-0.78c0.22-0.22,0.56-0.22,0.78,0l3.8,3.8c0.49,0.49,0.76,1.14,0.76,1.83
				c0,0.69-0.27,1.34-0.76,1.83C35.37,35.69,34.71,35.94,34.04,35.94z"/>
		</g>
	</g>
	<g>
		<path class="st0" d="M14,27.79H8.94c-0.31,0-0.55-0.24-0.55-0.55V5.93c0-0.31,0.24-0.55,0.55-0.55H14c0.31,0,0.55,0.24,0.55,0.55
			v21.31C14.55,27.54,14.31,27.79,14,27.79z M9.49,26.69h3.97V6.48H9.49V26.69z"/>
	</g>
	<g>
		<path class="st0" d="M5.98,27.79H0.91c-0.31,0-0.55-0.24-0.55-0.55v-9.59c0-0.31,0.24-0.55,0.55-0.55h5.07
			c0.31,0,0.55,0.24,0.55,0.55v9.59C6.53,27.54,6.28,27.79,5.98,27.79z M1.46,26.69h3.97V18.2H1.46L1.46,26.69z"/>
	</g>
	<g>
		<path class="st0" d="M16.88,18.75c-0.31,0-0.55-0.24-0.55-0.55V11c0-0.31,0.24-0.55,0.55-0.55h5.07c0.31,0,0.55,0.24,0.55,0.55
			v3.82c0,0.31-0.24,0.55-0.55,0.55s-0.55-0.24-0.55-0.55v-3.27h-3.97v6.66C17.43,18.5,17.18,18.75,16.88,18.75z"/>
	</g>
	<g>
		<path class="st0" d="M29.76,15.63c-0.31,0-0.55-0.24-0.55-0.55V1.68h-3.97v13.4c0,0.31-0.24,0.55-0.55,0.55s-0.55-0.24-0.55-0.55
			V1.13c0-0.31,0.24-0.55,0.55-0.55h5.07c0.31,0,0.55,0.24,0.55,0.55v13.95C30.31,15.39,30.07,15.63,29.76,15.63z"/>
	</g>
</g>
</svg>
